<?xml version="1.0" standalone="yes"?>

<svg version="1.1" viewBox="0.0 0.0 960.0 720.0" fill="none" stroke="none" stroke-linecap="square" stroke-miterlimit="10" xmlns="http://www.w3.org/2000/svg" xmlns:xlink="http://www.w3.org/1999/xlink"><clipPath id="p.0"><path d="m0 0l960.0 0l0 720.0l-960.0 0l0 -720.0z" clip-rule="nonzero"></path></clipPath><g clip-path="url(#p.0)"><path fill="#000000" fill-opacity="0.0" d="m0 0l960.0 0l0 720.0l-960.0 0z" fill-rule="nonzero"></path><path fill="#cfe2f3" d="m131.51181 166.04199l265.85828 0l0 157.03937l-265.85828 0z" fill-rule="nonzero"></path><path stroke="#000000" stroke-width="2.0" stroke-linejoin="round" stroke-linecap="butt" d="m131.51181 166.04199l265.85828 0l0 157.03937l-265.85828 0z" fill-rule="nonzero"></path><path fill="#000000" fill-opacity="0.0" d="m152.5958 220.56168l144.0 0l0 48.0l-144.0 0z" fill-rule="nonzero"></path><path fill="#d9ead3" d="m152.5958 196.56168l96.0 0l0 96.0l-96.0 0z" fill-rule="nonzero"></path><path stroke="#000000" stroke-width="2.0" stroke-linejoin="round" stroke-linecap="butt" d="m152.5958 196.56168l96.0 0l0 96.0l-96.0 0z" fill-rule="nonzero"></path><path fill="#ffe599" d="m281.7979 196.56168l96.0 0l0 96.0l-96.0 0z" fill-rule="nonzero"></path><path stroke="#000000" stroke-width="2.0" stroke-linejoin="round" stroke-linecap="butt" d="m281.7979 196.56168l96.0 0l0 96.0l-96.0 0z" fill-rule="nonzero"></path><path fill="#f4cccc" d="m129.46457 420.15747l269.95276 0l0 96.0l-269.95276 0z" fill-rule="nonzero"></path><path stroke="#000000" stroke-width="2.0" stroke-linejoin="round" stroke-linecap="butt" d="m129.46457 420.15747l269.95276 0l0 96.0l-269.95276 0z" fill-rule="nonzero"></path><path fill="#000000" fill-opacity="0.0" d="m183.3412 444.15747l144.00002 0l0 48.0l-144.00002 0z" fill-rule="nonzero"></path><path fill="#000000" d="m223.06053 474.32153l0 -13.59375l2.71875 0l3.21875 9.625q0.4375 1.34375 0.640625 2.015625q0.234375 -0.75 0.734375 -2.1875l3.25 -9.453125l2.421875 0l0 13.59375l-1.734375 0l0 -11.390625l-3.953125 11.390625l-1.625 0l-3.9375 -11.578125l0 11.578125l-1.734375 0zm22.134552 -3.171875l1.71875 0.21875q-0.40625 1.5 -1.515625 2.34375q-1.09375 0.828125 -2.8125 0.828125q-2.15625 0 -3.421875 -1.328125q-1.265625 -1.328125 -1.265625 -3.734375q0 -2.484375 1.265625 -3.859375q1.28125 -1.375 3.328125 -1.375q1.984375 0 3.234375 1.34375q1.25 1.34375 1.25 3.796875q0 0.140625 -0.015625 0.4375l-7.34375 0q0.09375 1.625 0.921875 2.484375q0.828125 0.859375 2.0625 0.859375q0.90625 0 1.546875 -0.46875q0.65625 -0.484375 1.046875 -1.546875zm-5.484375 -2.703125l5.5 0q-0.109375 -1.234375 -0.625 -1.859375q-0.796875 -0.96875 -2.078125 -0.96875q-1.140625 0 -1.9375 0.78125q-0.78125 0.765625 -0.859375 2.046875zm9.110092 5.875l0 -9.859375l1.5 0l0 1.390625q0.453125 -0.71875 1.21875 -1.15625q0.78125 -0.453125 1.765625 -0.453125q1.09375 0 1.796875 0.453125q0.703125 0.453125 0.984375 1.28125q1.171875 -1.734375 3.046875 -1.734375q1.46875 0 2.25 0.8125q0.796875 0.8125 0.796875 2.5l0 6.765625l-1.671875 0l0 -6.203125q0 -1.0 -0.15625 -1.4375q-0.15625 -0.453125 -0.59375 -0.71875q-0.421875 -0.265625 -1.0 -0.265625q-1.03125 0 -1.71875 0.6875q-0.6875 0.6875 -0.6875 2.21875l0 5.71875l-1.671875 0l0 -6.40625q0 -1.109375 -0.40625 -1.65625q-0.40625 -0.5625 -1.34375 -0.5625q-0.703125 0 -1.3125 0.375q-0.59375 0.359375 -0.859375 1.078125q-0.265625 0.71875 -0.265625 2.0625l0 5.109375l-1.671875 0zm14.915802 -4.921875q0 -2.734375 1.53125 -4.0625q1.265625 -1.09375 3.09375 -1.09375q2.03125 0 3.3125 1.34375q1.296875 1.328125 1.296875 3.671875q0 1.90625 -0.578125 3.0q-0.5625 1.078125 -1.65625 1.6875q-1.078125 0.59375 -2.375 0.59375q-2.0625 0 -3.34375 -1.328125q-1.28125 -1.328125 -1.28125 -3.8125zm1.71875 0q0 1.890625 0.828125 2.828125q0.828125 0.9375 2.078125 0.9375q1.25 0 2.0625 -0.9375q0.828125 -0.953125 0.828125 -2.890625q0 -1.828125 -0.828125 -2.765625q-0.828125 -0.9375 -2.0625 -0.9375q-1.25 0 -2.078125 0.9375q-0.828125 0.9375 -0.828125 2.828125zm9.266357 4.921875l0 -9.859375l1.5 0l0 1.5q0.578125 -1.046875 1.0625 -1.375q0.484375 -0.34375 1.078125 -0.34375q0.84375 0 1.71875 0.546875l-0.578125 1.546875q-0.609375 -0.359375 -1.234375 -0.359375q-0.546875 0 -0.984375 0.328125q-0.421875 0.328125 -0.609375 0.90625q-0.28125 0.890625 -0.28125 1.953125l0 5.15625l-1.671875 0zm6.150177 3.796875l-0.171875 -1.5625q0.546875 0.140625 0.953125 0.140625q0.546875 0 0.875 -0.1875q0.34375 -0.1875 0.5625 -0.515625q0.15625 -0.25 0.5 -1.25q0.046875 -0.140625 0.15625 -0.40625l-3.734375 -9.875l1.796875 0l2.046875 5.71875q0.40625 1.078125 0.71875 2.28125q0.28125 -1.15625 0.6875 -2.25l2.09375 -5.75l1.671875 0l-3.75 10.03125q-0.59375 1.625 -0.9375 2.234375q-0.4375 0.828125 -1.015625 1.203125q-0.578125 0.390625 -1.375 0.390625q-0.484375 0 -1.078125 -0.203125z" fill-rule="nonzero"></path><path fill="#000000" fill-opacity="0.0" d="m146.81627 220.56168l107.55907 0l0 53.007874l-107.55907 0z" fill-rule="nonzero"></path><path fill="#000000" d="m159.12048 242.50311l0 -13.59375l9.171875 0l0 1.59375l-7.375 0l0 4.21875l6.375 0l0 1.609375l-6.375 0l0 6.171875l-1.796875 0zm17.536606 0l0 -1.453125q-1.140625 1.671875 -3.125 1.671875q-0.859375 0 -1.625 -0.328125q-0.75 -0.34375 -1.125 -0.84375q-0.359375 -0.5 -0.515625 -1.234375q-0.09375 -0.5 -0.09375 -1.5625l0 -6.109375l1.671875 0l0 5.46875q0 1.3125 0.09375 1.765625q0.15625 0.65625 0.671875 1.03125q0.515625 0.375 1.265625 0.375q0.75 0 1.40625 -0.375q0.65625 -0.390625 0.921875 -1.046875q0.28125 -0.671875 0.28125 -1.9375l0 -5.28125l1.671875 0l0 9.859375l-1.5 0zm3.9225922 0l0 -9.859375l1.5 0l0 1.40625q1.09375 -1.625 3.140625 -1.625q0.890625 0 1.640625 0.328125q0.75 0.3125 1.109375 0.84375q0.375 0.515625 0.53125 1.21875q0.09375 0.46875 0.09375 1.625l0 6.0625l-1.671875 0l0 -6.0q0 -1.015625 -0.203125 -1.515625q-0.1875 -0.515625 -0.6875 -0.8125q-0.5 -0.296875 -1.171875 -0.296875q-1.0625 0 -1.84375 0.671875q-0.765625 0.671875 -0.765625 2.578125l0 5.375l-1.671875 0zm16.813217 -3.609375l1.640625 0.21875q-0.265625 1.6875 -1.375 2.65625q-1.109375 0.953125 -2.734375 0.953125q-2.015625 0 -3.25 -1.3125q-1.21875 -1.328125 -1.21875 -3.796875q0 -1.59375 0.515625 -2.78125q0.53125 -1.203125 1.609375 -1.796875q1.09375 -0.609375 2.359375 -0.609375q1.609375 0 2.625 0.8125q1.015625 0.8125 1.3125 2.3125l-1.625 0.25q-0.234375 -1.0 -0.828125 -1.5q-0.59375 -0.5 -1.421875 -0.5q-1.265625 0 -2.0625 0.90625q-0.78125 0.90625 -0.78125 2.859375q0 1.984375 0.765625 2.890625q0.765625 0.890625 1.984375 0.890625q0.984375 0 1.640625 -0.59375q0.65625 -0.609375 0.84375 -1.859375zm6.546875 2.109375l0.234375 1.484375q-0.703125 0.140625 -1.265625 0.140625q-0.90625 0 -1.40625 -0.28125q-0.5 -0.296875 -0.703125 -0.75q-0.203125 -0.46875 -0.203125 -1.984375l0 -5.65625l-1.234375 0l0 -1.3125l1.234375 0l0 -2.4375l1.65625 -1.0l0 3.4375l1.6875 0l0 1.3125l-1.6875 0l0 5.75q0 0.71875 0.078125 0.921875q0.09375 0.203125 0.296875 0.328125q0.203125 0.125 0.578125 0.125q0.265625 0 0.734375 -0.078125zm1.5426788 -10.1875l0 -1.90625l1.671875 0l0 1.90625l-1.671875 0zm0 11.6875l0 -9.859375l1.671875 0l0 9.859375l-1.671875 0zm3.5041962 -4.921875q0 -2.734375 1.53125 -4.0625q1.265625 -1.09375 3.09375 -1.09375q2.03125 0 3.3125 1.34375q1.296875 1.328125 1.296875 3.671875q0 1.90625 -0.578125 3.0q-0.5625 1.078125 -1.65625 1.6875q-1.078125 0.59375 -2.375 0.59375q-2.0625 0 -3.34375 -1.328125q-1.28125 -1.328125 -1.28125 -3.8125zm1.71875 0q0 1.890625 0.828125 2.828125q0.828125 0.9375 2.078125 0.9375q1.25 0 2.0625 -0.9375q0.828125 -0.953125 0.828125 -2.890625q0 -1.828125 -0.828125 -2.765625q-0.828125 -0.9375 -2.0625 -0.9375q-1.25 0 -2.078125 0.9375q-0.828125 0.9375 -0.828125 2.828125zm9.281967 4.921875l0 -9.859375l1.5 0l0 1.40625q1.09375 -1.625 3.140625 -1.625q0.890625 0 1.640625 0.328125q0.75 0.3125 1.109375 0.84375q0.375 0.515625 0.53125 1.21875q0.09375 0.46875 0.09375 1.625l0 6.0625l-1.671875 0l0 -6.0q0 -1.015625 -0.203125 -1.515625q-0.1875 -0.515625 -0.6875 -0.8125q-0.5 -0.296875 -1.171875 -0.296875q-1.0625 0 -1.84375 0.671875q-0.765625 0.671875 -0.765625 2.578125l0 5.375l-1.671875 0zm16.813217 -1.21875q-0.9375 0.796875 -1.796875 1.125q-0.859375 0.3125 -1.84375 0.3125q-1.609375 0 -2.484375 -0.78125q-0.875 -0.796875 -0.875 -2.03125q0 -0.734375 0.328125 -1.328125q0.328125 -0.59375 0.859375 -0.953125q0.53125 -0.359375 1.203125 -0.546875q0.5 -0.140625 1.484375 -0.25q2.03125 -0.25 2.984375 -0.578125q0 -0.34375 0 -0.4375q0 -1.015625 -0.46875 -1.4375q-0.640625 -0.5625 -1.90625 -0.5625q-1.171875 0 -1.734375 0.40625q-0.5625 0.40625 -0.828125 1.46875l-1.640625 -0.234375q0.234375 -1.046875 0.734375 -1.6875q0.515625 -0.640625 1.46875 -0.984375q0.96875 -0.359375 2.25 -0.359375q1.265625 0 2.046875 0.296875q0.78125 0.296875 1.15625 0.75q0.375 0.453125 0.515625 1.140625q0.09375 0.421875 0.09375 1.53125l0 2.234375q0 2.328125 0.09375 2.953125q0.109375 0.609375 0.4375 1.171875l-1.75 0q-0.265625 -0.515625 -0.328125 -1.21875zm-0.140625 -3.71875q-0.90625 0.359375 -2.734375 0.625q-1.03125 0.140625 -1.453125 0.328125q-0.421875 0.1875 -0.65625 0.546875q-0.234375 0.359375 -0.234375 0.796875q0 0.671875 0.5 1.125q0.515625 0.4375 1.484375 0.4375q0.96875 0 1.71875 -0.421875q0.75 -0.4375 1.109375 -1.15625q0.265625 -0.578125 0.265625 -1.671875l0 -0.609375zm4.047592 4.9375l0 -13.59375l1.671875 0l0 13.59375l-1.671875 0z" fill-rule="nonzero"></path><path fill="#000000" d="m194.39804 250.36249l1.796875 0l0 7.84375q0 2.0625 -0.46875 3.265625q-0.453125 1.203125 -1.671875 1.96875q-1.203125 0.75 -3.171875 0.75q-1.90625 0 -3.125 -0.65625q-1.21875 -0.65625 -1.734375 -1.90625q-0.515625 -1.25 -0.515625 -3.421875l0 -7.84375l1.796875 0l0 7.84375q0 1.765625 0.328125 2.609375q0.328125 0.84375 1.125 1.296875q0.8125 0.453125 1.96875 0.453125q1.984375 0 2.828125 -0.890625q0.84375 -0.90625 0.84375 -3.46875l0 -7.84375zm4.332321 13.59375l0 -9.859375l1.5 0l0 1.40625q1.09375 -1.625 3.140625 -1.625q0.890625 0 1.640625 0.328125q0.75 0.3125 1.109375 0.84375q0.375 0.515625 0.53125 1.21875q0.09375 0.46875 0.09375 1.625l0 6.0625l-1.671875 0l0 -6.0q0 -1.015625 -0.203125 -1.515625q-0.1875 -0.515625 -0.6875 -0.8125q-0.5 -0.296875 -1.171875 -0.296875q-1.0625 0 -1.84375 0.671875q-0.765625 0.671875 -0.765625 2.578125l0 5.375l-1.671875 0zm10.391342 -11.6875l0 -1.90625l1.671875 0l0 1.90625l-1.671875 0zm0 11.6875l0 -9.859375l1.671875 0l0 9.859375l-1.671875 0zm7.785431 -1.5l0.234375 1.484375q-0.703125 0.140625 -1.265625 0.140625q-0.90625 0 -1.40625 -0.28125q-0.5 -0.296875 -0.703125 -0.75q-0.203125 -0.46875 -0.203125 -1.984375l0 -5.65625l-1.234375 0l0 -1.3125l1.234375 0l0 -2.4375l1.65625 -1.0l0 3.4375l1.6875 0l0 1.3125l-1.6875 0l0 5.75q0 0.71875 0.078125 0.921875q0.09375 0.203125 0.296875 0.328125q0.203125 0.125 0.578125 0.125q0.265625 0 0.734375 -0.078125z" fill-rule="nonzero"></path><path fill="#000000" fill-opacity="0.0" d="m257.7979 220.56168l144.0 0l0 48.0l-144.0 0z" fill-rule="nonzero"></path><path fill="#000000" d="m297.51724 239.99918l0 -13.59375l2.71875 0l3.21875 9.625q0.4375 1.34375 0.640625 2.015625q0.234375 -0.75 0.734375 -2.1875l3.25 -9.453125l2.421875 0l0 13.59375l-1.734375 0l0 -11.390625l-3.953125 11.390625l-1.625 0l-3.9375 -11.578125l0 11.578125l-1.734375 0zm22.134552 -3.171875l1.71875 0.21875q-0.40625 1.5 -1.515625 2.34375q-1.09375 0.828125 -2.8125 0.828125q-2.15625 0 -3.421875 -1.328125q-1.265625 -1.328125 -1.265625 -3.734375q0 -2.484375 1.265625 -3.859375q1.28125 -1.375 3.328125 -1.375q1.984375 0 3.234375 1.34375q1.25 1.34375 1.25 3.796875q0 0.140625 -0.015625 0.4375l-7.34375 0q0.09375 1.625 0.921875 2.484375q0.828125 0.859375 2.0625 0.859375q0.90625 0 1.546875 -0.46875q0.65625 -0.484375 1.046875 -1.546875zm-5.484375 -2.703125l5.5 0q-0.109375 -1.234375 -0.625 -1.859375q-0.796875 -0.96875 -2.078125 -0.96875q-1.140625 0 -1.9375 0.78125q-0.78125 0.765625 -0.859375 2.046875zm9.110077 5.875l0 -9.859375l1.5 0l0 1.390625q0.453125 -0.71875 1.21875 -1.15625q0.78125 -0.453125 1.765625 -0.453125q1.09375 0 1.796875 0.453125q0.703125 0.453125 0.984375 1.28125q1.171875 -1.734375 3.046875 -1.734375q1.46875 0 2.25 0.8125q0.796875 0.8125 0.796875 2.5l0 6.765625l-1.671875 0l0 -6.203125q0 -1.0 -0.15625 -1.4375q-0.15625 -0.453125 -0.59375 -0.71875q-0.421875 -0.265625 -1.0 -0.265625q-1.03125 0 -1.71875 0.6875q-0.6875 0.6875 -0.6875 2.21875l0 5.71875l-1.671875 0l0 -6.40625q0 -1.109375 -0.40625 -1.65625q-0.40625 -0.5625 -1.34375 -0.5625q-0.703125 0 -1.3125 0.375q-0.59375 0.359375 -0.859375 1.078125q-0.265625 0.71875 -0.265625 2.0625l0 5.109375l-1.671875 0zm14.915802 -4.921875q0 -2.734375 1.53125 -4.0625q1.265625 -1.09375 3.09375 -1.09375q2.03125 0 3.3125 1.34375q1.296875 1.328125 1.296875 3.671875q0 1.90625 -0.578125 3.0q-0.5625 1.078125 -1.65625 1.6875q-1.078125 0.59375 -2.375 0.59375q-2.0625 0 -3.34375 -1.328125q-1.28125 -1.328125 -1.28125 -3.8125zm1.71875 0q0 1.890625 0.828125 2.828125q0.828125 0.9375 2.078125 0.9375q1.25 0 2.0625 -0.9375q0.828125 -0.953125 0.828125 -2.890625q0 -1.828125 -0.828125 -2.765625q-0.828125 -0.9375 -2.0625 -0.9375q-1.25 0 -2.078125 0.9375q-0.828125 0.9375 -0.828125 2.828125zm9.266357 4.921875l0 -9.859375l1.5 0l0 1.5q0.578125 -1.046875 1.0625 -1.375q0.484375 -0.34375 1.078125 -0.34375q0.84375 0 1.71875 0.546875l-0.578125 1.546875q-0.609375 -0.359375 -1.234375 -0.359375q-0.546875 0 -0.984375 0.328125q-0.421875 0.328125 -0.609375 0.90625q-0.28125 0.890625 -0.28125 1.953125l0 5.15625l-1.671875 0zm6.150177 3.796875l-0.171875 -1.5625q0.546875 0.140625 0.953125 0.140625q0.546875 0 0.875 -0.1875q0.34375 -0.1875 0.5625 -0.515625q0.15625 -0.25 0.5 -1.25q0.046875 -0.140625 0.15625 -0.40625l-3.734375 -9.875l1.796875 0l2.046875 5.71875q0.40625 1.078125 0.71875 2.28125q0.28125 -1.15625 0.6875 -2.25l2.09375 -5.75l1.671875 0l-3.75 10.03125q-0.59375 1.625 -0.9375 2.234375q-0.4375 0.828125 -1.015625 1.203125q-0.578125 0.390625 -1.375 0.390625q-0.484375 0 -1.078125 -0.203125z" fill-rule="nonzero"></path><path fill="#000000" d="m300.5327 256.68668l1.796875 0.453125q-0.5625 2.21875 -2.03125 3.390625q-1.46875 1.15625 -3.59375 1.15625q-2.203125 0 -3.578125 -0.890625q-1.375 -0.90625 -2.09375 -2.59375q-0.71875 -1.703125 -0.71875 -3.65625q0 -2.125 0.796875 -3.703125q0.8125 -1.578125 2.3125 -2.390625q1.5 -0.828125 3.296875 -0.828125q2.046875 0 3.4375 1.046875q1.390625 1.03125 1.9375 2.90625l-1.765625 0.421875q-0.46875 -1.484375 -1.375 -2.15625q-0.90625 -0.6875 -2.265625 -0.6875q-1.5625 0 -2.625 0.75q-1.046875 0.75 -1.484375 2.03125q-0.421875 1.265625 -0.421875 2.609375q0 1.734375 0.5 3.03125q0.515625 1.28125 1.578125 1.921875q1.078125 0.640625 2.3125 0.640625q1.515625 0 2.5625 -0.859375q1.046875 -0.875 1.421875 -2.59375zm2.9260864 -0.15625q0 -2.734375 1.53125 -4.0625q1.265625 -1.09375 3.09375 -1.09375q2.03125 0 3.3125 1.34375q1.296875 1.328125 1.296875 3.671875q0 1.90625 -0.578125 3.0q-0.5625 1.078125 -1.65625 1.6875q-1.078125 0.59375 -2.375 0.59375q-2.0625 0 -3.34375 -1.328125q-1.28125 -1.328125 -1.28125 -3.8125zm1.71875 0q0 1.890625 0.828125 2.828125q0.828125 0.9375 2.078125 0.9375q1.25 0 2.0625 -0.9375q0.828125 -0.953125 0.828125 -2.890625q0 -1.828125 -0.828125 -2.765625q-0.828125 -0.9375 -2.0625 -0.9375q-1.25 0 -2.078125 0.9375q-0.828125 0.9375 -0.828125 2.828125zm9.281952 4.921875l0 -9.859375l1.5 0l0 1.40625q1.09375 -1.625 3.140625 -1.625q0.890625 0 1.640625 0.328125q0.75 0.3125 1.109375 0.84375q0.375 0.515625 0.53125 1.21875q0.09375 0.46875 0.09375 1.625l0 6.0625l-1.671875 0l0 -6.0q0 -1.015625 -0.203125 -1.515625q-0.1875 -0.515625 -0.6875 -0.8125q-0.5 -0.296875 -1.171875 -0.296875q-1.0625 0 -1.84375 0.671875q-0.765625 0.671875 -0.765625 2.578125l0 5.375l-1.671875 0zm14.031982 -1.5l0.234375 1.484375q-0.703125 0.140625 -1.265625 0.140625q-0.90625 0 -1.40625 -0.28125q-0.5 -0.296875 -0.703125 -0.75q-0.203125 -0.46875 -0.203125 -1.984375l0 -5.65625l-1.234375 0l0 -1.3125l1.234375 0l0 -2.4375l1.65625 -1.0l0 3.4375l1.6875 0l0 1.3125l-1.6875 0l0 5.75q0 0.71875 0.078125 0.921875q0.09375 0.203125 0.296875 0.328125q0.203125 0.125 0.578125 0.125q0.265625 0 0.734375 -0.078125zm1.5114136 1.5l0 -9.859375l1.5 0l0 1.5q0.578125 -1.046875 1.0625 -1.375q0.484375 -0.34375 1.078125 -0.34375q0.84375 0 1.71875 0.546875l-0.578125 1.546875q-0.609375 -0.359375 -1.234375 -0.359375q-0.546875 0 -0.984375 0.328125q-0.421875 0.328125 -0.609375 0.90625q-0.28125 0.890625 -0.28125 1.953125l0 5.15625l-1.671875 0zm5.603302 -4.921875q0 -2.734375 1.53125 -4.0625q1.265625 -1.09375 3.09375 -1.09375q2.03125 0 3.3125 1.34375q1.296875 1.328125 1.296875 3.671875q0 1.90625 -0.578125 3.0q-0.5625 1.078125 -1.65625 1.6875q-1.078125 0.59375 -2.375 0.59375q-2.0625 0 -3.34375 -1.328125q-1.28125 -1.328125 -1.28125 -3.8125zm1.71875 0q0 1.890625 0.828125 2.828125q0.828125 0.9375 2.078125 0.9375q1.25 0 2.0625 -0.9375q0.828125 -0.953125 0.828125 -2.890625q0 -1.828125 -0.828125 -2.765625q-0.828125 -0.9375 -2.0625 -0.9375q-1.25 0 -2.078125 0.9375q-0.828125 0.9375 -0.828125 2.828125zm9.250732 4.921875l0 -13.59375l1.671875 0l0 13.59375l-1.671875 0zm4.144806 0l0 -13.59375l1.671875 0l0 13.59375l-1.671875 0zm10.926086 -3.171875l1.71875 0.21875q-0.40625 1.5 -1.515625 2.34375q-1.09375 0.828125 -2.8125 0.828125q-2.15625 0 -3.421875 -1.328125q-1.265625 -1.328125 -1.265625 -3.734375q0 -2.484375 1.265625 -3.859375q1.28125 -1.375 3.328125 -1.375q1.984375 0 3.234375 1.34375q1.25 1.34375 1.25 3.796875q0 0.140625 -0.015625 0.4375l-7.34375 0q0.09375 1.625 0.921875 2.484375q0.828125 0.859375 2.0625 0.859375q0.90625 0 1.546875 -0.46875q0.65625 -0.484375 1.046875 -1.546875zm-5.484375 -2.703125l5.5 0q-0.109375 -1.234375 -0.625 -1.859375q-0.796875 -0.96875 -2.078125 -0.96875q-1.140625 0 -1.9375 0.78125q-0.78125 0.765625 -0.859375 2.046875zm9.094452 5.875l0 -9.859375l1.5 0l0 1.5q0.578125 -1.046875 1.0625 -1.375q0.484375 -0.34375 1.078125 -0.34375q0.84375 0 1.71875 0.546875l-0.578125 1.546875q-0.609375 -0.359375 -1.234375 -0.359375q-0.546875 0 -0.984375 0.328125q-0.421875 0.328125 -0.609375 0.90625q-0.28125 0.890625 -0.28125 1.953125l0 5.15625l-1.671875 0z" fill-rule="nonzero"></path><path fill="#000000" fill-opacity="0.0" d="m200.5958 292.56168l0 126.4252" fill-rule="nonzero"></path><path stroke="#000000" stroke-width="2.0" stroke-linejoin="round" stroke-linecap="butt" d="m200.5958 292.56168l0 119.571045" fill-rule="evenodd"></path><path fill="#000000" stroke="#000000" stroke-width="2.0" stroke-linecap="butt" d="m200.5958 412.1327l-2.2491608 -2.2491455l2.2491608 6.179535l2.249176 -6.179535z" fill-rule="evenodd"></path><path fill="#000000" fill-opacity="0.0" d="m329.7979 292.56168l0 129.13385" fill-rule="nonzero"></path><path stroke="#000000" stroke-width="2.0" stroke-linejoin="round" stroke-linecap="butt" d="m329.7979 292.56168l0 122.27969" fill-rule="evenodd"></path><path fill="#000000" stroke="#000000" stroke-width="2.0" stroke-linecap="butt" d="m329.7979 414.84137l-2.249176 -2.249176l2.249176 6.179535l2.2491455 -6.179535z" fill-rule="evenodd"></path><path fill="#000000" fill-opacity="0.0" d="m130.93788 464.79526l-54.80394 1.3693237l0 -223.43042l57.54387 -1.369339" fill-rule="nonzero"></path><path stroke="#000000" stroke-width="2.0" stroke-linejoin="round" stroke-linecap="butt" d="m130.93788 464.79523l-54.80394 1.3693542l0 -223.4304l50.691643 -1.2062836" fill-rule="evenodd"></path><path fill="#000000" stroke="#000000" stroke-width="2.0" stroke-linecap="butt" d="m126.82558 241.5279l-2.1950226 2.3020325l6.124283 -2.3955383l-6.2313004 -2.1015167z" fill-rule="evenodd"></path><path fill="#000000" fill-opacity="0.0" d="m66.94226 435.19028l0 -163.59055l48.0 0l0 163.59055z" fill-rule="nonzero"></path><path fill="#000000" d="m97.10632 421.9191l-13.59375 0l0 -4.6875q0 -1.578125 0.1875 -2.421875q0.265625 -1.15625 0.96875 -1.984375q0.921875 -1.078125 2.34375 -1.609375q1.40625 -0.53125 3.21875 -0.53125q1.546875 0 2.75 0.359375q1.1875 0.359375 1.984375 0.921875q0.78125 0.5625 1.234375 1.234375q0.4375 0.671875 0.671875 1.625q0.234375 0.953125 0.234375 2.1875l0 4.90625zm-1.609375 -1.796875l0 -2.90625q0 -1.34375 -0.25 -2.109375q-0.25 -0.765625 -0.703125 -1.21875q-0.640625 -0.640625 -1.71875 -1.0q-1.078125 -0.359375 -2.625 -0.359375q-2.125 0 -3.265625 0.703125q-1.15625 0.703125 -1.546875 1.703125q-0.28125 0.71875 -0.28125 2.328125l0 2.859375l10.390625 0zm0.390625 -17.894836q0.796875 0.9375 1.125 1.796875q0.3125 0.859375 0.3125 1.84375q0 1.609375 -0.78125 2.484375q-0.796875 0.875 -2.03125 0.875q-0.734375 0 -1.328125 -0.328125q-0.59375 -0.328125 -0.953125 -0.859375q-0.359375 -0.53125 -0.546875 -1.203125q-0.140625 -0.5 -0.25 -1.484375q-0.25 -2.03125 -0.578125 -2.984375q-0.34375 0 -0.4375 0q-1.015625 0 -1.4375 0.46875q-0.5625 0.640625 -0.5625 1.90625q0 1.171875 0.40625 1.734375q0.40625 0.5625 1.46875 0.828125l-0.234375 1.640625q-1.046875 -0.234375 -1.6875 -0.734375q-0.640625 -0.515625 -0.984375 -1.46875q-0.359375 -0.96875 -0.359375 -2.25q0 -1.265625 0.296875 -2.046875q0.296875 -0.78125 0.75 -1.15625q0.453125 -0.375 1.140625 -0.515625q0.421875 -0.09375 1.53125 -0.09375l2.234375 0q2.328125 0 2.953125 -0.09375q0.609375 -0.109375 1.171875 -0.4375l0 1.75q-0.515625 0.265625 -1.21875 0.328125zm-3.71875 0.140625q0.359375 0.90625 0.625 2.734375q0.140625 1.03125 0.328125 1.453125q0.1875 0.421875 0.546875 0.65625q0.359375 0.234375 0.796875 0.234375q0.671875 0 1.125 -0.5q0.4375 -0.515625 0.4375 -1.484375q0 -0.96875 -0.421875 -1.71875q-0.4375 -0.75 -1.15625 -1.109375q-0.578125 -0.265625 -1.671875 -0.265625l-0.609375 0zm3.4375 -7.735077l1.484375 -0.234375q0.140625 0.703125 0.140625 1.265625q0 0.90625 -0.28125 1.40625q-0.296875 0.5 -0.75 0.703125q-0.46875 0.203125 -1.984375 0.203125l-5.65625 0l0 1.234375l-1.3125 0l0 -1.234375l-2.4375 0l-1.0 -1.65625l3.4375 0l0 -1.6875l1.3125 0l0 1.6875l5.75 0q0.71875 0 0.921875 -0.078125q0.203125 -0.09375 0.328125 -0.296875q0.125 -0.203125 0.125 -0.578125q0 -0.265625 -0.078125 -0.734375zm0.28125 -7.964569q0.796875 0.9375 1.125 1.796875q0.3125 0.859375 0.3125 1.84375q0 1.609375 -0.78125 2.484375q-0.796875 0.875 -2.03125 0.875q-0.734375 0 -1.328125 -0.328125q-0.59375 -0.328125 -0.953125 -0.859375q-0.359375 -0.53125 -0.546875 -1.203125q-0.140625 -0.5 -0.25 -1.484375q-0.25 -2.03125 -0.578125 -2.984375q-0.34375 0 -0.4375 0q-1.015625 0 -1.4375 0.46875q-0.5625 0.640625 -0.5625 1.90625q0 1.171875 0.40625 1.734375q0.40625 0.5625 1.46875 0.828125l-0.234375 1.640625q-1.046875 -0.234375 -1.6875 -0.734375q-0.640625 -0.515625 -0.984375 -1.46875q-0.359375 -0.96875 -0.359375 -2.25q0 -1.265625 0.296875 -2.046875q0.296875 -0.78125 0.75 -1.15625q0.453125 -0.375 1.140625 -0.515625q0.421875 -0.09375 1.53125 -0.09375l2.234375 0q2.328125 0 2.953125 -0.09375q0.609375 -0.109375 1.171875 -0.4375l0 1.75q-0.515625 0.265625 -1.21875 0.328125zm-3.71875 0.140625q0.359375 0.90625 0.625 2.734375q0.140625 1.03125 0.328125 1.453125q0.1875 0.421875 0.546875 0.65625q0.359375 0.234375 0.796875 0.234375q0.671875 0 1.125 -0.5q0.4375 -0.515625 0.4375 -1.484375q0 -0.96875 -0.421875 -1.71875q-0.4375 -0.75 -1.15625 -1.109375q-0.578125 -0.265625 -1.671875 -0.265625l-0.609375 0zm5.171875 -2.828827l-14.0625 -3.9375l0 -1.34375l14.0625 3.9375l0 1.34375zm-0.234375 -6.948944l-13.59375 0l0 -1.8125l13.59375 0l0 1.8125zm0 -4.6676636l-9.859375 0l0 -1.5l1.40625 0q-1.625 -1.09375 -1.625 -3.140625q0 -0.890625 0.328125 -1.640625q0.3125 -0.75 0.84375 -1.109375q0.515625 -0.375 1.21875 -0.53125q0.46875 -0.09375 1.625 -0.09375l6.0625 0l0 1.671875l-6.0 0q-1.015625 0 -1.515625 0.203125q-0.515625 0.1875 -0.8125 0.6875q-0.296875 0.5 -0.296875 1.171875q0 1.0625 0.671875 1.84375q0.671875 0.765625 2.578125 0.765625l5.375 0l0 1.671875zm-2.9375 -9.703857l-0.265625 -1.65625q1.0 -0.140625 1.53125 -0.765625q0.515625 -0.640625 0.515625 -1.78125q0 -1.15625 -0.46875 -1.703125q-0.46875 -0.5625 -1.09375 -0.5625q-0.5625 0 -0.890625 0.484375q-0.21875 0.34375 -0.5625 1.703125q-0.46875 1.84375 -0.796875 2.5625q-0.34375 0.703125 -0.9375 1.078125q-0.609375 0.359375 -1.328125 0.359375q-0.65625 0 -1.21875 -0.296875q-0.5625 -0.3125 -0.9375 -0.828125q-0.28125 -0.390625 -0.484375 -1.0625q-0.203125 -0.671875 -0.203125 -1.4375q0 -1.171875 0.34375 -2.046875q0.328125 -0.875 0.90625 -1.28125q0.5625 -0.421875 1.515625 -0.578125l0.21875 1.625q-0.75 0.109375 -1.171875 0.65625q-0.4375 0.53125 -0.4375 1.5q0 1.15625 0.390625 1.640625q0.375 0.484375 0.875 0.484375q0.328125 0 0.59375 -0.203125q0.265625 -0.203125 0.4375 -0.640625q0.09375 -0.25 0.4375 -1.46875q0.46875 -1.765625 0.765625 -2.46875q0.296875 -0.703125 0.875 -1.09375q0.578125 -0.40625 1.4375 -0.40625q0.828125 0 1.578125 0.484375q0.734375 0.484375 1.140625 1.40625q0.390625 0.921875 0.390625 2.078125q0 1.921875 -0.796875 2.9375q-0.796875 1.0 -2.359375 1.28125zm1.4375 -13.65625l1.484375 -0.234375q0.140625 0.703125 0.140625 1.265625q0 0.90625 -0.28125 1.40625q-0.296875 0.5 -0.75 0.703125q-0.46875 0.203125 -1.984375 0.203125l-5.65625 0l0 1.234375l-1.3125 0l0 -1.234375l-2.4375 0l-1.0 -1.65625l3.4375 0l0 -1.6875l1.3125 0l0 1.6875l5.75 0q0.71875 0 0.921875 -0.078125q0.203125 -0.09375 0.328125 -0.296875q0.125 -0.203125 0.125 -0.578125q0 -0.265625 -0.078125 -0.734375zm1.5 -1.5114136l-9.859375 0l0 -1.5l1.5 0q-1.046875 -0.578125 -1.375 -1.0625q-0.34375 -0.484375 -0.34375 -1.078125q0 -0.84375 0.546875 -1.71875l1.546875 0.578125q-0.359375 0.609375 -0.359375 1.234375q0 0.546875 0.328125 0.984375q0.328125 0.421875 0.90625 0.609375q0.890625 0.28125 1.953125 0.28125l5.15625 0l0 1.671875zm0 -12.681427l-1.453125 0q1.671875 1.140625 1.671875 3.125q0 0.859375 -0.328125 1.625q-0.34375 0.75 -0.84375 1.125q-0.5 0.359375 -1.234375 0.515625q-0.5 0.09375 -1.5625 0.09375l-6.109375 0l0 -1.671875l5.46875 0q1.3125 0 1.765625 -0.09375q0.65625 -0.15625 1.03125 -0.671875q0.375 -0.515625 0.375 -1.265625q0 -0.75 -0.375 -1.40625q-0.390625 -0.65625 -1.046875 -0.921875q-0.671875 -0.28125 -1.9375 -0.28125l-5.28125 0l0 -1.671875l9.859375 0l0 1.5zm-3.609375 -10.360107l0.21875 -1.640625q1.6875 0.265625 2.65625 1.375q0.953125 1.109375 0.953125 2.734375q0 2.015625 -1.3125 3.25q-1.328125 1.21875 -3.796875 1.21875q-1.59375 0 -2.78125 -0.515625q-1.203125 -0.53125 -1.796875 -1.609375q-0.609375 -1.09375 -0.609375 -2.359375q0 -1.609375 0.8125 -2.625q0.8125 -1.015625 2.3125 -1.3125l0.25 1.625q-1.0 0.234375 -1.5 0.828125q-0.5 0.59375 -0.5 1.421875q0 1.265625 0.90625 2.0625q0.90625 0.78125 2.859375 0.78125q1.984375 0 2.890625 -0.765625q0.890625 -0.765625 0.890625 -1.984375q0 -0.984375 -0.59375 -1.640625q-0.609375 -0.65625 -1.859375 -0.84375zm2.109375 -6.546875l1.484375 -0.234375q0.140625 0.703125 0.140625 1.265625q0 0.90625 -0.28125 1.40625q-0.296875 0.5 -0.75 0.703125q-0.46875 0.203125 -1.984375 0.203125l-5.65625 0l0 1.234375l-1.3125 0l0 -1.234375l-2.4375 0l-1.0 -1.65625l3.4375 0l0 -1.6875l1.3125 0l0 1.6875l5.75 0q0.71875 0 0.921875 -0.078125q0.203125 -0.09375 0.328125 -0.296875q0.125 -0.203125 0.125 -0.578125q0 -0.265625 -0.078125 -0.734375zm-10.1875 -1.5426636l-1.90625 0l0 -1.671875l1.90625 0l0 1.671875zm11.6875 0l-9.859375 0l0 -1.671875l9.859375 0l0 1.671875zm-4.921875 -3.5042114q-2.734375 0 -4.0625 -1.53125q-1.09375 -1.265625 -1.09375 -3.09375q0 -2.03125 1.34375 -3.3125q1.328125 -1.296875 3.671875 -1.296875q1.90625 0 3.0 0.578125q1.078125 0.5625 1.6875 1.65625q0.59375 1.078125 0.59375 2.375q0 2.0625 -1.328125 3.34375q-1.328125 1.28125 -3.8125 1.28125zm0 -1.71875q1.890625 0 2.828125 -0.828125q0.9375 -0.828125 0.9375 -2.078125q0 -1.25 -0.9375 -2.0625q-0.953125 -0.828125 -2.890625 -0.828125q-1.828125 0 -2.765625 0.828125q-0.9375 0.828125 -0.9375 2.0625q0 1.25 0.9375 2.078125q0.9375 0.828125 2.828125 0.828125zm4.921875 -9.281982l-9.859375 0l0 -1.5l1.40625 0q-1.625 -1.09375 -1.625 -3.140625q0 -0.890625 0.328125 -1.640625q0.3125 -0.75 0.84375 -1.109375q0.515625 -0.375 1.21875 -0.53125q0.46875 -0.09375 1.625 -0.09375l6.0625 0l0 1.671875l-6.0 0q-1.015625 0 -1.515625 0.203125q-0.515625 0.1875 -0.8125 0.6875q-0.296875 0.5 -0.296875 1.171875q0 1.0625 0.671875 1.84375q0.671875 0.765625 2.578125 0.765625l5.375 0l0 1.671875zm-2.9375 -9.703827l-0.265625 -1.65625q1.0 -0.140625 1.53125 -0.765625q0.515625 -0.640625 0.515625 -1.78125q0 -1.15625 -0.46875 -1.703125q-0.46875 -0.5625 -1.09375 -0.5625q-0.5625 0 -0.890625 0.484375q-0.21875 0.34375 -0.5625 1.703125q-0.46875 1.84375 -0.796875 2.5625q-0.34375 0.703125 -0.9375 1.078125q-0.609375 0.359375 -1.328125 0.359375q-0.65625 0 -1.21875 -0.296875q-0.5625 -0.3125 -0.9375 -0.828125q-0.28125 -0.390625 -0.484375 -1.0625q-0.203125 -0.671875 -0.203125 -1.4375q0 -1.171875 0.34375 -2.046875q0.328125 -0.875 0.90625 -1.28125q0.5625 -0.421875 1.515625 -0.578125l0.21875 1.625q-0.75 0.109375 -1.171875 0.65625q-0.4375 0.53125 -0.4375 1.5q0 1.15625 0.390625 1.640625q0.375 0.484375 0.875 0.484375q0.328125 0 0.59375 -0.203125q0.265625 -0.203125 0.4375 -0.640625q0.09375 -0.25 0.4375 -1.46875q0.46875 -1.765625 0.765625 -2.46875q0.296875 -0.703125 0.875 -1.09375q0.578125 -0.40625 1.4375 -0.40625q0.828125 0 1.578125 0.484375q0.734375 0.484375 1.140625 1.40625q0.390625 0.921875 0.390625 2.078125q0 1.921875 -0.796875 2.9375q-0.796875 1.0 -2.359375 1.28125z" fill-rule="nonzero"></path><path fill="#000000" fill-opacity="0.0" d="m528.3097 288.40945l144.0 0l0 48.0l-144.0 0z" fill-rule="nonzero"></path><path fill="#000000" fill-opacity="0.0" d="m104.5958 155.3937l144.0 0l0 48.0l-144.0 0z" fill-rule="nonzero"></path><path fill="#000000" d="m165.36923 181.29996l2.28125 0.578125q-0.71875 2.796875 -2.578125 4.28125q-1.859375 1.46875 -4.546875 1.46875q-2.765625 0 -4.515625 -1.125q-1.734375 -1.140625 -2.640625 -3.28125q-0.90625 -2.15625 -0.90625 -4.609375q0 -2.6875 1.015625 -4.6875q1.03125 -2.0 2.921875 -3.03125q1.890625 -1.03125 4.171875 -1.03125q2.578125 0 4.328125 1.3125q1.765625 1.3125 2.453125 3.6875l-2.234375 0.53125q-0.609375 -1.875 -1.75 -2.734375q-1.125 -0.859375 -2.84375 -0.859375q-1.984375 0 -3.3125 0.953125q-1.328125 0.953125 -1.875 2.546875q-0.53125 1.59375 -0.53125 3.296875q0 2.1875 0.625 3.828125q0.640625 1.640625 1.984375 2.453125q1.359375 0.796875 2.921875 0.796875q1.921875 0 3.234375 -1.09375q1.328125 -1.109375 1.796875 -3.28125zm5.0820312 6.03125l0 -17.1875l6.46875 0q1.71875 0 2.625 0.171875q1.265625 0.203125 2.109375 0.796875q0.859375 0.59375 1.375 1.671875q0.53125 1.0625 0.53125 2.328125q0 2.203125 -1.40625 3.71875q-1.390625 1.515625 -5.03125 1.515625l-4.40625 0l0 6.984375l-2.265625 0zm2.265625 -9.015625l4.4375 0q2.203125 0 3.125 -0.8125q0.9375 -0.828125 0.9375 -2.3125q0 -1.078125 -0.546875 -1.84375q-0.546875 -0.765625 -1.4375 -1.015625q-0.578125 -0.15625 -2.125 -0.15625l-4.390625 0l0 6.140625zm25.007812 -8.171875l2.28125 0l0 9.9375q0 2.578125 -0.59375 4.109375q-0.578125 1.515625 -2.109375 2.484375q-1.53125 0.953125 -4.015625 0.953125q-2.421875 0 -3.953125 -0.828125q-1.53125 -0.84375 -2.1875 -2.421875q-0.65625 -1.578125 -0.65625 -4.296875l0 -9.9375l2.265625 0l0 9.921875q0 2.234375 0.421875 3.296875q0.421875 1.0625 1.421875 1.640625q1.015625 0.5625 2.484375 0.5625q2.515625 0 3.578125 -1.125q1.0625 -1.140625 1.0625 -4.375l0 -9.921875z" fill-rule="nonzero"></path><path fill="#f4cccc" d="m528.3097 420.15747l269.95276 0l0 96.0l-269.95276 0z" fill-rule="nonzero"></path><path stroke="#000000" stroke-width="2.0" stroke-linejoin="round" stroke-linecap="butt" d="m528.3097 420.15747l269.95276 0l0 96.0l-269.95276 0z" fill-rule="nonzero"></path><path fill="#000000" fill-opacity="0.0" d="m591.2861 444.15747l144.0 0l0 48.0l-144.0 0z" fill-rule="nonzero"></path><path fill="#000000" d="m631.00543 474.32153l0 -13.59375l2.71875 0l3.21875 9.625q0.4375 1.34375 0.640625 2.015625q0.234375 -0.75 0.734375 -2.1875l3.25 -9.453125l2.421875 0l0 13.59375l-1.734375 0l0 -11.390625l-3.953125 11.390625l-1.625 0l-3.9375 -11.578125l0 11.578125l-1.734375 0zm22.134521 -3.171875l1.71875 0.21875q-0.40625 1.5 -1.515625 2.34375q-1.09375 0.828125 -2.8125 0.828125q-2.15625 0 -3.421875 -1.328125q-1.265625 -1.328125 -1.265625 -3.734375q0 -2.484375 1.265625 -3.859375q1.28125 -1.375 3.328125 -1.375q1.984375 0 3.234375 1.34375q1.25 1.34375 1.25 3.796875q0 0.140625 -0.015625 0.4375l-7.34375 0q0.09375 1.625 0.921875 2.484375q0.828125 0.859375 2.0625 0.859375q0.90625 0 1.546875 -0.46875q0.65625 -0.484375 1.046875 -1.546875zm-5.484375 -2.703125l5.5 0q-0.109375 -1.234375 -0.625 -1.859375q-0.796875 -0.96875 -2.078125 -0.96875q-1.140625 0 -1.9375 0.78125q-0.78125 0.765625 -0.859375 2.046875zm9.110107 5.875l0 -9.859375l1.5 0l0 1.390625q0.453125 -0.71875 1.21875 -1.15625q0.78125 -0.453125 1.765625 -0.453125q1.09375 0 1.796875 0.453125q0.703125 0.453125 0.984375 1.28125q1.171875 -1.734375 3.046875 -1.734375q1.46875 0 2.25 0.8125q0.796875 0.8125 0.796875 2.5l0 6.765625l-1.671875 0l0 -6.203125q0 -1.0 -0.15625 -1.4375q-0.15625 -0.453125 -0.59375 -0.71875q-0.421875 -0.265625 -1.0 -0.265625q-1.03125 0 -1.71875 0.6875q-0.6875 0.6875 -0.6875 2.21875l0 5.71875l-1.671875 0l0 -6.40625q0 -1.109375 -0.40625 -1.65625q-0.40625 -0.5625 -1.34375 -0.5625q-0.703125 0 -1.3125 0.375q-0.59375 0.359375 -0.859375 1.078125q-0.265625 0.71875 -0.265625 2.0625l0 5.109375l-1.671875 0zm14.9158325 -4.921875q0 -2.734375 1.53125 -4.0625q1.265625 -1.09375 3.09375 -1.09375q2.03125 0 3.3125 1.34375q1.296875 1.328125 1.296875 3.671875q0 1.90625 -0.578125 3.0q-0.5625 1.078125 -1.65625 1.6875q-1.078125 0.59375 -2.375 0.59375q-2.0625 0 -3.34375 -1.328125q-1.28125 -1.328125 -1.28125 -3.8125zm1.71875 0q0 1.890625 0.828125 2.828125q0.828125 0.9375 2.078125 0.9375q1.25 0 2.0625 -0.9375q0.828125 -0.953125 0.828125 -2.890625q0 -1.828125 -0.828125 -2.765625q-0.828125 -0.9375 -2.0625 -0.9375q-1.25 0 -2.078125 0.9375q-0.828125 0.9375 -0.828125 2.828125zm9.266296 4.921875l0 -9.859375l1.5 0l0 1.5q0.578125 -1.046875 1.0625 -1.375q0.484375 -0.34375 1.078125 -0.34375q0.84375 0 1.71875 0.546875l-0.578125 1.546875q-0.609375 -0.359375 -1.234375 -0.359375q-0.546875 0 -0.984375 0.328125q-0.421875 0.328125 -0.609375 0.90625q-0.28125 0.890625 -0.28125 1.953125l0 5.15625l-1.671875 0zm6.1502075 3.796875l-0.171875 -1.5625q0.546875 0.140625 0.953125 0.140625q0.546875 0 0.875 -0.1875q0.34375 -0.1875 0.5625 -0.515625q0.15625 -0.25 0.5 -1.25q0.046875 -0.140625 0.15625 -0.40625l-3.734375 -9.875l1.796875 0l2.046875 5.71875q0.40625 1.078125 0.71875 2.28125q0.28125 -1.15625 0.6875 -2.25l2.09375 -5.75l1.671875 0l-3.75 10.03125q-0.59375 1.625 -0.9375 2.234375q-0.4375 0.828125 -1.015625 1.203125q-0.578125 0.390625 -1.375 0.390625q-0.484375 0 -1.078125 -0.203125z" fill-rule="nonzero"></path><path fill="#cfe2f3" d="m528.3097 166.04199l265.85828 0l0 157.03937l-265.85828 0z" fill-rule="nonzero"></path><path stroke="#000000" stroke-width="2.0" stroke-linejoin="round" stroke-linecap="butt" d="m528.3097 166.04199l265.85828 0l0 157.03937l-265.85828 0z" fill-rule="nonzero"></path><path fill="#d9ead3" d="m562.5016 207.93176l0 0c0 -9.913635 8.959961 -17.950226 20.012634 -17.950226l0 0c11.052734 0 20.012695 8.036591 20.012695 17.950226l0 0c0 9.91362 -8.959961 17.95021 -20.012695 17.95021l0 0c-11.052673 0 -20.012634 -8.036591 -20.012634 -17.95021z" fill-rule="nonzero"></path><path stroke="#000000" stroke-width="2.0" stroke-linejoin="round" stroke-linecap="butt" d="m562.5016 207.93176l0 0c0 -9.913635 8.959961 -17.950226 20.012634 -17.950226l0 0c11.052734 0 20.012695 8.036591 20.012695 17.950226l0 0c0 9.91362 -8.959961 17.95021 -20.012695 17.95021l0 0c-11.052673 0 -20.012634 -8.036591 -20.012634 -17.95021z" fill-rule="nonzero"></path><path fill="#000000" fill-opacity="0.0" d="m547.4104 198.47047l70.2077 0l0 18.922562l-70.2077 0z" fill-rule="nonzero"></path><path fill="#000000" d="m581.18616 214.79895l0 -6.28125l-6.234436 0l0 -2.625l6.234436 0l0 -6.234375l2.65625 0l0 6.234375l6.234375 0l0 2.625l-6.234375 0l0 6.28125l-2.65625 0z" fill-rule="nonzero"></path><path fill="#000000" fill-opacity="0.0" d="m526.53284 235.90027l-57.38324 0l1.3674622 225.42783l58.748016 0" fill-rule="nonzero"></path><path stroke="#000000" stroke-width="2.0" stroke-linejoin="round" stroke-linecap="butt" d="m526.53284 235.90027l-57.38324 0l1.3674622 225.42783l51.89389 0" fill-rule="evenodd"></path><path fill="#000000" stroke="#000000" stroke-width="2.0" stroke-linecap="butt" d="m522.4109 461.3281l-2.2491455 2.2491455l6.1795654 -2.2491455l-6.1795654 -2.249176z" fill-rule="evenodd"></path><path fill="#000000" fill-opacity="0.0" d="m798.41205 464.06036l56.013123 0l0 -225.42781l-54.648254 0" fill-rule="nonzero"></path><path stroke="#000000" stroke-width="2.0" stroke-linejoin="round" stroke-linecap="butt" d="m798.41205 464.06036l56.013123 0l0 -225.42781l-47.79413 0" fill-rule="evenodd"></path><path fill="#000000" stroke="#000000" stroke-width="2.0" stroke-linecap="butt" d="m806.6311 238.63255l2.2491455 -2.249176l-6.1795654 2.249176l6.1795654 2.2491608z" fill-rule="evenodd"></path><path fill="#d9ead3" d="m578.5016 223.93176l0 0c0 -9.913635 8.959961 -17.950226 20.012634 -17.950226l0 0c11.052734 0 20.012695 8.036591 20.012695 17.950226l0 0c0 9.91362 -8.959961 17.95021 -20.012695 17.95021l0 0c-11.052673 0 -20.012634 -8.036591 -20.012634 -17.95021z" fill-rule="nonzero"></path><path stroke="#000000" stroke-width="2.0" stroke-linejoin="round" stroke-linecap="butt" d="m578.5016 223.93176l0 0c0 -9.913635 8.959961 -17.950226 20.012634 -17.950226l0 0c11.052734 0 20.012695 8.036591 20.012695 17.950226l0 0c0 9.91362 -8.959961 17.95021 -20.012695 17.95021l0 0c-11.052673 0 -20.012634 -8.036591 -20.012634 -17.95021z" fill-rule="nonzero"></path><path fill="#000000" fill-opacity="0.0" d="m563.4104 214.47047l70.2077 0l0 18.922562l-70.2077 0z" fill-rule="nonzero"></path><path fill="#000000" d="m597.18616 230.79895l0 -6.28125l-6.234436 0l0 -2.625l6.234436 0l0 -6.234375l2.65625 0l0 6.234375l6.234375 0l0 2.625l-6.234375 0l0 6.28125l-2.65625 0z" fill-rule="nonzero"></path><path fill="#d9ead3" d="m594.5016 239.93176l0 0c0 -9.913635 8.959961 -17.950226 20.012634 -17.950226l0 0c11.052734 0 20.012695 8.036591 20.012695 17.950226l0 0c0 9.91362 -8.959961 17.950195 -20.012695 17.950195l0 0c-11.052673 0 -20.012634 -8.036575 -20.012634 -17.950195z" fill-rule="nonzero"></path><path stroke="#000000" stroke-width="2.0" stroke-linejoin="round" stroke-linecap="butt" d="m594.5016 239.93176l0 0c0 -9.913635 8.959961 -17.950226 20.012634 -17.950226l0 0c11.052734 0 20.012695 8.036591 20.012695 17.950226l0 0c0 9.91362 -8.959961 17.950195 -20.012695 17.950195l0 0c-11.052673 0 -20.012634 -8.036575 -20.012634 -17.950195z" fill-rule="nonzero"></path><path fill="#000000" fill-opacity="0.0" d="m579.4104 230.47047l70.2077 0l0 18.922562l-70.2077 0z" fill-rule="nonzero"></path><path fill="#000000" d="m613.18616 246.79895l0 -6.28125l-6.234436 0l0 -2.625l6.234436 0l0 -6.234375l2.65625 0l0 6.234375l6.234375 0l0 2.625l-6.234375 0l0 6.28125l-2.65625 0z" fill-rule="nonzero"></path><path fill="#d9ead3" d="m610.5016 255.93176l0 0c0 -9.913635 8.959961 -17.950226 20.012634 -17.950226l0 0c11.052734 0 20.012695 8.036591 20.012695 17.950226l0 0c0 9.913635 -8.959961 17.950195 -20.012695 17.950195l0 0c-11.052673 0 -20.012634 -8.03656 -20.012634 -17.950195z" fill-rule="nonzero"></path><path stroke="#000000" stroke-width="2.0" stroke-linejoin="round" stroke-linecap="butt" d="m610.5016 255.93176l0 0c0 -9.913635 8.959961 -17.950226 20.012634 -17.950226l0 0c11.052734 0 20.012695 8.036591 20.012695 17.950226l0 0c0 9.913635 -8.959961 17.950195 -20.012695 17.950195l0 0c-11.052673 0 -20.012634 -8.03656 -20.012634 -17.950195z" fill-rule="nonzero"></path><path fill="#000000" fill-opacity="0.0" d="m595.4104 246.47047l70.2077 0l0 18.922562l-70.2077 0z" fill-rule="nonzero"></path><path fill="#000000" d="m629.18616 262.79895l0 -6.28125l-6.234436 0l0 -2.625l6.234436 0l0 -6.234375l2.65625 0l0 6.234375l6.234375 0l0 2.625l-6.234375 0l0 6.28125l-2.65625 0z" fill-rule="nonzero"></path><path fill="#d9ead3" d="m626.5016 271.93176l0 0c0 -9.913635 8.959961 -17.950226 20.012634 -17.950226l0 0c11.052734 0 20.012695 8.036591 20.012695 17.950226l0 0c0 9.913635 -8.959961 17.950195 -20.012695 17.950195l0 0c-11.052673 0 -20.012634 -8.03656 -20.012634 -17.950195z" fill-rule="nonzero"></path><path stroke="#000000" stroke-width="2.0" stroke-linejoin="round" stroke-linecap="butt" d="m626.5016 271.93176l0 0c0 -9.913635 8.959961 -17.950226 20.012634 -17.950226l0 0c11.052734 0 20.012695 8.036591 20.012695 17.950226l0 0c0 9.913635 -8.959961 17.950195 -20.012695 17.950195l0 0c-11.052673 0 -20.012634 -8.03656 -20.012634 -17.950195z" fill-rule="nonzero"></path><path fill="#000000" fill-opacity="0.0" d="m611.4104 262.4705l70.2077 0l0 18.922546l-70.2077 0z" fill-rule="nonzero"></path><path fill="#000000" d="m645.18616 278.79895l0 -6.28125l-6.234436 0l0 -2.625l6.234436 0l0 -6.234375l2.65625 0l0 6.234375l6.234375 0l0 2.625l-6.234375 0l0 6.28125l-2.65625 0z" fill-rule="nonzero"></path><path fill="#d9ead3" d="m642.5016 287.93176l0 0c0 -9.913635 8.959961 -17.950226 20.012634 -17.950226l0 0c11.052734 0 20.012695 8.036591 20.012695 17.950226l0 0c0 9.913635 -8.959961 17.950195 -20.012695 17.950195l0 0c-11.052673 0 -20.012634 -8.03656 -20.012634 -17.950195z" fill-rule="nonzero"></path><path stroke="#000000" stroke-width="2.0" stroke-linejoin="round" stroke-linecap="butt" d="m642.5016 287.93176l0 0c0 -9.913635 8.959961 -17.950226 20.012634 -17.950226l0 0c11.052734 0 20.012695 8.036591 20.012695 17.950226l0 0c0 9.913635 -8.959961 17.950195 -20.012695 17.950195l0 0c-11.052673 0 -20.012634 -8.03656 -20.012634 -17.950195z" fill-rule="nonzero"></path><path fill="#000000" fill-opacity="0.0" d="m627.4104 278.4705l70.2077 0l0 18.922546l-70.2077 0z" fill-rule="nonzero"></path><path fill="#000000" d="m661.18616 294.79895l0 -6.28125l-6.234436 0l0 -2.625l6.234436 0l0 -6.234375l2.65625 0l0 6.234375l6.234375 0l0 2.625l-6.234375 0l0 6.28125l-2.65625 0z" fill-rule="nonzero"></path><path fill="#d9ead3" d="m643.2734 207.93176l0 0c0 -9.913635 8.960022 -17.95021 20.012695 -17.95021l0 0c11.052673 0 20.012695 8.036575 20.012695 17.95021l0 0c0 9.913635 -8.960022 17.95021 -20.012695 17.95021l0 0c-11.052673 0 -20.012695 -8.036575 -20.012695 -17.95021z" fill-rule="nonzero"></path><path stroke="#000000" stroke-width="2.0" stroke-linejoin="round" stroke-linecap="butt" d="m643.2734 207.93176l0 0c0 -9.913635 8.960022 -17.95021 20.012695 -17.95021l0 0c11.052673 0 20.012695 8.036575 20.012695 17.95021l0 0c0 9.913635 -8.960022 17.95021 -20.012695 17.95021l0 0c-11.052673 0 -20.012695 -8.036575 -20.012695 -17.95021z" fill-rule="nonzero"></path><path fill="#000000" fill-opacity="0.0" d="m628.1822 195.7382l70.20776 0l0 18.922546l-70.20776 0z" fill-rule="nonzero"></path><path fill="#000000" d="m658.9736 208.89479l0 -2.828125l8.640625 0l0 2.828125l-8.640625 0z" fill-rule="nonzero"></path><path fill="#d9ead3" d="m659.2734 223.93176l0 0c0 -9.913635 8.960022 -17.95021 20.012695 -17.95021l0 0c11.052673 0 20.012695 8.036575 20.012695 17.95021l0 0c0 9.913635 -8.960022 17.95021 -20.012695 17.95021l0 0c-11.052673 0 -20.012695 -8.036575 -20.012695 -17.95021z" fill-rule="nonzero"></path><path stroke="#000000" stroke-width="2.0" stroke-linejoin="round" stroke-linecap="butt" d="m659.2734 223.93176l0 0c0 -9.913635 8.960022 -17.95021 20.012695 -17.95021l0 0c11.052673 0 20.012695 8.036575 20.012695 17.95021l0 0c0 9.913635 -8.960022 17.95021 -20.012695 17.95021l0 0c-11.052673 0 -20.012695 -8.036575 -20.012695 -17.95021z" fill-rule="nonzero"></path><path fill="#000000" fill-opacity="0.0" d="m644.1822 211.7382l70.20776 0l0 18.922546l-70.20776 0z" fill-rule="nonzero"></path><path fill="#000000" d="m674.9736 224.89479l0 -2.828125l8.640625 0l0 2.828125l-8.640625 0z" fill-rule="nonzero"></path><path fill="#d9ead3" d="m675.2734 239.93176l0 0c0 -9.913635 8.960022 -17.95021 20.012695 -17.95021l0 0c11.052673 0 20.012695 8.036575 20.012695 17.95021l0 0c0 9.913635 -8.960022 17.950226 -20.012695 17.950226l0 0c-11.052673 0 -20.012695 -8.036591 -20.012695 -17.950226z" fill-rule="nonzero"></path><path stroke="#000000" stroke-width="2.0" stroke-linejoin="round" stroke-linecap="butt" d="m675.2734 239.93176l0 0c0 -9.913635 8.960022 -17.95021 20.012695 -17.95021l0 0c11.052673 0 20.012695 8.036575 20.012695 17.95021l0 0c0 9.913635 -8.960022 17.950226 -20.012695 17.950226l0 0c-11.052673 0 -20.012695 -8.036591 -20.012695 -17.950226z" fill-rule="nonzero"></path><path fill="#000000" fill-opacity="0.0" d="m660.1822 227.7382l70.20776 0l0 18.922546l-70.20776 0z" fill-rule="nonzero"></path><path fill="#000000" d="m690.9736 240.89479l0 -2.828125l8.640625 0l0 2.828125l-8.640625 0z" fill-rule="nonzero"></path><path fill="#d9ead3" d="m691.2734 255.93176l0 0c0 -9.913635 8.960022 -17.95021 20.012695 -17.95021l0 0c11.052673 0 20.012695 8.036575 20.012695 17.95021l0 0c0 9.913635 -8.960022 17.950226 -20.012695 17.950226l0 0c-11.052673 0 -20.012695 -8.036591 -20.012695 -17.950226z" fill-rule="nonzero"></path><path stroke="#000000" stroke-width="2.0" stroke-linejoin="round" stroke-linecap="butt" d="m691.2734 255.93176l0 0c0 -9.913635 8.960022 -17.95021 20.012695 -17.95021l0 0c11.052673 0 20.012695 8.036575 20.012695 17.95021l0 0c0 9.913635 -8.960022 17.950226 -20.012695 17.950226l0 0c-11.052673 0 -20.012695 -8.036591 -20.012695 -17.950226z" fill-rule="nonzero"></path><path fill="#000000" fill-opacity="0.0" d="m676.1822 243.7382l70.20776 0l0 18.922562l-70.20776 0z" fill-rule="nonzero"></path><path fill="#000000" d="m706.9736 256.89478l0 -2.8281097l8.640625 0l0 2.8281097l-8.640625 0z" fill-rule="nonzero"></path><path fill="#d9ead3" d="m707.2734 271.93176l0 0c0 -9.913635 8.960022 -17.95021 20.012695 -17.95021l0 0c11.052673 0 20.012695 8.036575 20.012695 17.95021l0 0c0 9.913635 -8.960022 17.950226 -20.012695 17.950226l0 0c-11.052673 0 -20.012695 -8.036591 -20.012695 -17.950226z" fill-rule="nonzero"></path><path stroke="#000000" stroke-width="2.0" stroke-linejoin="round" stroke-linecap="butt" d="m707.2734 271.93176l0 0c0 -9.913635 8.960022 -17.95021 20.012695 -17.95021l0 0c11.052673 0 20.012695 8.036575 20.012695 17.95021l0 0c0 9.913635 -8.960022 17.950226 -20.012695 17.950226l0 0c-11.052673 0 -20.012695 -8.036591 -20.012695 -17.950226z" fill-rule="nonzero"></path><path fill="#000000" fill-opacity="0.0" d="m692.1822 259.7382l70.20776 0l0 18.922577l-70.20776 0z" fill-rule="nonzero"></path><path fill="#000000" d="m722.9736 272.89478l0 -2.828125l8.640625 0l0 2.828125l-8.640625 0z" fill-rule="nonzero"></path><path fill="#d9ead3" d="m723.2734 287.93176l0 0c0 -9.913635 8.960022 -17.950226 20.012695 -17.950226l0 0c11.052673 0 20.012695 8.036591 20.012695 17.950226l0 0c0 9.913635 -8.960022 17.950226 -20.012695 17.950226l0 0c-11.052673 0 -20.012695 -8.036591 -20.012695 -17.950226z" fill-rule="nonzero"></path><path stroke="#000000" stroke-width="2.0" stroke-linejoin="round" stroke-linecap="butt" d="m723.2734 287.93176l0 0c0 -9.913635 8.960022 -17.950226 20.012695 -17.950226l0 0c11.052673 0 20.012695 8.036591 20.012695 17.950226l0 0c0 9.913635 -8.960022 17.950226 -20.012695 17.950226l0 0c-11.052673 0 -20.012695 -8.036591 -20.012695 -17.950226z" fill-rule="nonzero"></path><path fill="#000000" fill-opacity="0.0" d="m708.1822 275.7382l70.20776 0l0 18.922577l-70.20776 0z" fill-rule="nonzero"></path><path fill="#000000" d="m738.9736 288.89478l0 -2.828125l8.640625 0l0 2.828125l-8.640625 0z" fill-rule="nonzero"></path><path fill="#000000" fill-opacity="0.0" d="m676.1822 166.04199l144.0 0l0 48.0l-144.0 0z" fill-rule="nonzero"></path><path fill="#000000" d="m726.04156 197.97949l0 -17.1875l5.90625 0q2.015625 0 3.0625 0.25q1.484375 0.34375 2.515625 1.234375q1.359375 1.140625 2.03125 2.9375q0.6875 1.78125 0.6875 4.078125q0 1.953125 -0.46875 3.46875q-0.453125 1.515625 -1.171875 2.515625q-0.703125 0.984375 -1.5625 1.546875q-0.84375 0.5625 -2.046875 0.859375q-1.203125 0.296875 -2.765625 0.296875l-6.1875 0zm2.265625 -2.03125l3.671875 0q1.703125 0 2.65625 -0.3125q0.96875 -0.3125 1.546875 -0.890625q0.8125 -0.8125 1.265625 -2.171875q0.453125 -1.375 0.453125 -3.3125q0 -2.703125 -0.890625 -4.140625q-0.890625 -1.453125 -2.15625 -1.9375q-0.90625 -0.359375 -2.9375 -0.359375l-3.609375 0l0 13.125zm15.175781 2.03125l0 -17.1875l11.59375 0l0 2.03125l-9.3125 0l0 5.328125l8.0625 0l0 2.015625l-8.0625 0l0 7.8125l-2.28125 0zm14.597656 0l0 -17.1875l12.421875 0l0 2.03125l-10.15625 0l0 5.265625l9.5 0l0 2.015625l-9.5 0l0 5.84375l10.546875 0l0 2.03125l-12.8125 0z" fill-rule="nonzero"></path><path fill="#000000" fill-opacity="0.0" d="m469.1496 425.39502l0 -144.0l48.0 0l0 144.0z" fill-rule="nonzero"></path><path fill="#000000" d="m499.31366 371.6301l-13.59375 0l0 -4.6875q0 -1.578125 0.1875 -2.421875q0.265625 -1.15625 0.96875 -1.984375q0.921875 -1.078125 2.34375 -1.609375q1.40625 -0.53125 3.21875 -0.53125q1.546875 0 2.75 0.359375q1.1875 0.359375 1.984375 0.921875q0.78125 0.5625 1.234375 1.234375q0.4375 0.671875 0.671875 1.625q0.234375 0.953125 0.234375 2.1875l0 4.90625zm-1.609375 -1.796875l0 -2.90625q0 -1.34375 -0.25 -2.109375q-0.25 -0.765625 -0.703125 -1.21875q-0.640625 -0.640625 -1.71875 -1.0q-1.078125 -0.359375 -2.625 -0.359375q-2.125 0 -3.265625 0.703125q-1.15625 0.703125 -1.546875 1.703125q-0.28125 0.71875 -0.28125 2.328125l0 2.859375l10.390625 0zm0.390625 -17.894806q0.796875 0.9375 1.125 1.796875q0.3125 0.859375 0.3125 1.84375q0 1.609375 -0.78125 2.484375q-0.796875 0.875 -2.03125 0.875q-0.734375 0 -1.328125 -0.328125q-0.59375 -0.328125 -0.953125 -0.859375q-0.359375 -0.53125 -0.546875 -1.203125q-0.140625 -0.5 -0.25 -1.484375q-0.25 -2.03125 -0.578125 -2.984375q-0.34375 0 -0.4375 0q-1.015625 0 -1.4375 0.46875q-0.5625 0.640625 -0.5625 1.90625q0 1.171875 0.40625 1.734375q0.40625 0.5625 1.46875 0.828125l-0.234375 1.640625q-1.046875 -0.234375 -1.6875 -0.734375q-0.640625 -0.515625 -0.984375 -1.46875q-0.359375 -0.96875 -0.359375 -2.25q0 -1.265625 0.296875 -2.046875q0.296875 -0.78125 0.75 -1.15625q0.453125 -0.375 1.140625 -0.515625q0.421875 -0.09375 1.53125 -0.09375l2.234375 0q2.328125 0 2.953125 -0.09375q0.609375 -0.109375 1.171875 -0.4375l0 1.75q-0.515625 0.265625 -1.21875 0.328125zm-3.71875 0.140625q0.359375 0.90625 0.625 2.734375q0.140625 1.03125 0.328125 1.453125q0.1875 0.421875 0.546875 0.65625q0.359375 0.234375 0.796875 0.234375q0.671875 0 1.125 -0.5q0.4375 -0.515625 0.4375 -1.484375q0 -0.96875 -0.421875 -1.71875q-0.4375 -0.75 -1.15625 -1.109375q-0.578125 -0.265625 -1.671875 -0.265625l-0.609375 0zm3.4375 -7.7351074l1.484375 -0.234375q0.140625 0.703125 0.140625 1.265625q0 0.90625 -0.28125 1.40625q-0.296875 0.5 -0.75 0.703125q-0.46875 0.203125 -1.984375 0.203125l-5.65625 0l0 1.234375l-1.3125 0l0 -1.234375l-2.4375 0l-1.0 -1.65625l3.4375 0l0 -1.6875l1.3125 0l0 1.6875l5.75 0q0.71875 0 0.921875 -0.078125q0.203125 -0.09375 0.328125 -0.296875q0.125 -0.203125 0.125 -0.578125q0 -0.265625 -0.078125 -0.734375zm0.28125 -7.9645386q0.796875 0.9375 1.125 1.796875q0.3125 0.859375 0.3125 1.84375q0 1.609375 -0.78125 2.484375q-0.796875 0.875 -2.03125 0.875q-0.734375 0 -1.328125 -0.328125q-0.59375 -0.328125 -0.953125 -0.859375q-0.359375 -0.53125 -0.546875 -1.203125q-0.140625 -0.5 -0.25 -1.484375q-0.25 -2.03125 -0.578125 -2.984375q-0.34375 0 -0.4375 0q-1.015625 0 -1.4375 0.46875q-0.5625 0.640625 -0.5625 1.90625q0 1.171875 0.40625 1.734375q0.40625 0.5625 1.46875 0.828125l-0.234375 1.640625q-1.046875 -0.234375 -1.6875 -0.734375q-0.640625 -0.515625 -0.984375 -1.46875q-0.359375 -0.96875 -0.359375 -2.25q0 -1.265625 0.296875 -2.046875q0.296875 -0.78125 0.75 -1.15625q0.453125 -0.375 1.140625 -0.515625q0.421875 -0.09375 1.53125 -0.09375l2.234375 0q2.328125 0 2.953125 -0.09375q0.609375 -0.109375 1.171875 -0.4375l0 1.75q-0.515625 0.265625 -1.21875 0.328125zm-3.71875 0.140625q0.359375 0.90625 0.625 2.734375q0.140625 1.03125 0.328125 1.453125q0.1875 0.421875 0.546875 0.65625q0.359375 0.234375 0.796875 0.234375q0.671875 0 1.125 -0.5q0.4375 -0.515625 0.4375 -1.484375q0 -0.96875 -0.421875 -1.71875q-0.4375 -0.75 -1.15625 -1.109375q-0.578125 -0.265625 -1.671875 -0.265625l-0.609375 0z" fill-rule="nonzero"></path><path fill="#000000" fill-opacity="0.0" d="m845.05774 420.61417l0 -144.0l48.0 0l0 144.0z" fill-rule="nonzero"></path><path fill="#000000" d="m875.2218 366.84927l-13.59375 0l0 -4.6875q0 -1.578125 0.1875 -2.421875q0.265625 -1.15625 0.96875 -1.984375q0.921875 -1.078125 2.34375 -1.609375q1.40625 -0.53125 3.21875 -0.53125q1.546875 0 2.75 0.359375q1.1875 0.359375 1.984375 0.921875q0.78125 0.5625 1.234375 1.234375q0.4375 0.671875 0.671875 1.625q0.234375 0.953125 0.234375 2.1875l0 4.90625zm-1.609375 -1.796875l0 -2.90625q0 -1.34375 -0.25 -2.109375q-0.25 -0.765625 -0.703125 -1.21875q-0.640625 -0.640625 -1.71875 -1.0q-1.078125 -0.359375 -2.625 -0.359375q-2.125 0 -3.265625 0.703125q-1.15625 0.703125 -1.546875 1.703125q-0.28125 0.71875 -0.28125 2.328125l0 2.859375l10.390625 0zm0.390625 -17.894836q0.796875 0.9375 1.125 1.796875q0.3125 0.859375 0.3125 1.84375q0 1.609375 -0.78125 2.484375q-0.796875 0.875 -2.03125 0.875q-0.734375 0 -1.328125 -0.328125q-0.59375 -0.328125 -0.953125 -0.859375q-0.359375 -0.53125 -0.546875 -1.203125q-0.140625 -0.5 -0.25 -1.484375q-0.25 -2.03125 -0.578125 -2.984375q-0.34375 0 -0.4375 0q-1.015625 0 -1.4375 0.46875q-0.5625 0.640625 -0.5625 1.90625q0 1.171875 0.40625 1.734375q0.40625 0.5625 1.46875 0.828125l-0.234375 1.640625q-1.046875 -0.234375 -1.6875 -0.734375q-0.640625 -0.515625 -0.984375 -1.46875q-0.359375 -0.96875 -0.359375 -2.25q0 -1.265625 0.296875 -2.046875q0.296875 -0.78125 0.75 -1.15625q0.453125 -0.375 1.140625 -0.515625q0.421875 -0.09375 1.53125 -0.09375l2.234375 0q2.328125 0 2.953125 -0.09375q0.609375 -0.109375 1.171875 -0.4375l0 1.75q-0.515625 0.265625 -1.21875 0.328125zm-3.71875 0.140625q0.359375 0.90625 0.625 2.734375q0.140625 1.03125 0.328125 1.453125q0.1875 0.421875 0.546875 0.65625q0.359375 0.234375 0.796875 0.234375q0.671875 0 1.125 -0.5q0.4375 -0.515625 0.4375 -1.484375q0 -0.96875 -0.421875 -1.71875q-0.4375 -0.75 -1.15625 -1.109375q-0.578125 -0.265625 -1.671875 -0.265625l-0.609375 0zm3.4375 -7.735077l1.484375 -0.234375q0.140625 0.703125 0.140625 1.265625q0 0.90625 -0.28125 1.40625q-0.296875 0.5 -0.75 0.703125q-0.46875 0.203125 -1.984375 0.203125l-5.65625 0l0 1.234375l-1.3125 0l0 -1.234375l-2.4375 0l-1.0 -1.65625l3.4375 0l0 -1.6875l1.3125 0l0 1.6875l5.75 0q0.71875 0 0.921875 -0.078125q0.203125 -0.09375 0.328125 -0.296875q0.125 -0.203125 0.125 -0.578125q0 -0.265625 -0.078125 -0.734375zm0.28125 -7.964569q0.796875 0.9375 1.125 1.796875q0.3125 0.859375 0.3125 1.84375q0 1.609375 -0.78125 2.484375q-0.796875 0.875 -2.03125 0.875q-0.734375 0 -1.328125 -0.328125q-0.59375 -0.328125 -0.953125 -0.859375q-0.359375 -0.53125 -0.546875 -1.203125q-0.140625 -0.5 -0.25 -1.484375q-0.25 -2.03125 -0.578125 -2.984375q-0.34375 0 -0.4375 0q-1.015625 0 -1.4375 0.46875q-0.5625 0.640625 -0.5625 1.90625q0 1.171875 0.40625 1.734375q0.40625 0.5625 1.46875 0.828125l-0.234375 1.640625q-1.046875 -0.234375 -1.6875 -0.734375q-0.640625 -0.515625 -0.984375 -1.46875q-0.359375 -0.96875 -0.359375 -2.25q0 -1.265625 0.296875 -2.046875q0.296875 -0.78125 0.75 -1.15625q0.453125 -0.375 1.140625 -0.515625q0.421875 -0.09375 1.53125 -0.09375l2.234375 0q2.328125 0 2.953125 -0.09375q0.609375 -0.109375 1.171875 -0.4375l0 1.75q-0.515625 0.265625 -1.21875 0.328125zm-3.71875 0.140625q0.359375 0.90625 0.625 2.734375q0.140625 1.03125 0.328125 1.453125q0.1875 0.421875 0.546875 0.65625q0.359375 0.234375 0.796875 0.234375q0.671875 0 1.125 -0.5q0.4375 -0.515625 0.4375 -1.484375q0 -0.96875 -0.421875 -1.71875q-0.4375 -0.75 -1.15625 -1.109375q-0.578125 -0.265625 -1.671875 -0.265625l-0.609375 0z" fill-rule="nonzero"></path></g></svg>

