<?xml version="1.0" standalone="yes"?>

<svg version="1.1" viewBox="0.0 0.0 573.0 576.0" fill="none" stroke="none" stroke-linecap="square" stroke-miterlimit="10" xmlns="http://www.w3.org/2000/svg" xmlns:xlink="http://www.w3.org/1999/xlink"><clipPath id="p.0"><path d="m0 0l573.0 0l0 576.0l-573.0 0l0 -576.0z" clip-rule="nonzero"></path></clipPath><g clip-path="url(#p.0)"><path fill="#000000" fill-opacity="0.0" d="m0 0l573.66406 0l0 576.5066l-573.66406 0z" fill-rule="nonzero"></path><path fill="#000000" fill-opacity="0.0" d="m224.12599 287.77954l-51.9308 34.73233" fill-rule="nonzero"></path><path stroke="#666666" stroke-width="1.0" stroke-linejoin="round" stroke-linecap="butt" d="m224.12599 287.77954l-46.94345 31.396698" fill-rule="evenodd"></path><path fill="#666666" stroke="#666666" stroke-width="1.0" stroke-linecap="butt" d="m176.26427 317.80328l-2.8539124 3.895874l4.6904297 -1.1499634z" fill-rule="evenodd"></path><path fill="#000000" fill-opacity="0.0" d="m71.874016 287.77954l43.930794 34.73233" fill-rule="nonzero"></path><path stroke="#666666" stroke-width="1.0" stroke-linejoin="round" stroke-linecap="butt" d="m71.874016 287.77954l39.224113 31.01117" fill-rule="evenodd"></path><path fill="#666666" stroke="#666666" stroke-width="1.0" stroke-linecap="butt" d="m110.07373 320.0864l4.584297 1.5187988l-2.5354996 -4.110199z" fill-rule="evenodd"></path><path fill="#000000" fill-opacity="0.0" d="m152.12599 87.779526l72.0 24.220474" fill-rule="nonzero"></path><path stroke="#666666" stroke-width="1.0" stroke-linejoin="round" stroke-linecap="butt" d="m152.12599 87.779526l66.313156 22.30745" fill-rule="evenodd"></path><path fill="#666666" stroke="#666666" stroke-width="1.0" stroke-linecap="butt" d="m217.91249 111.6525l4.827896 -0.11860657l-3.7746277 -3.0124512z" fill-rule="evenodd"></path><path fill="#000000" fill-opacity="0.0" d="m152.12599 87.779526l-52.056786 138.73235" fill-rule="nonzero"></path><path stroke="#666666" stroke-width="1.0" stroke-linejoin="round" stroke-linecap="butt" d="m152.12599 87.779526l-49.948906 133.11479" fill-rule="evenodd"></path><path fill="#666666" stroke="#666666" stroke-width="1.0" stroke-linecap="butt" d="m100.63064 220.31406l-0.047843933 4.8291016l3.1407394 -3.6685486z" fill-rule="evenodd"></path><path fill="#000000" fill-opacity="0.0" d="m152.21178 87.819534c-23.82814 8.9076 -124.639465 29.4636 -142.9688 53.445602c-18.329334 23.981995 27.494 75.371994 32.992798 90.446396" fill-rule="nonzero"></path><path stroke="#666666" stroke-width="1.0" stroke-linejoin="round" stroke-linecap="butt" d="m152.21178 87.819534c-23.82814 8.9076 -124.639465 29.4636 -142.9688 53.445602c-9.164666 11.990997 -2.2911668 30.833984 7.560849 48.563538c4.92601 8.864792 10.596647 17.451202 15.379459 24.763565c2.3914032 3.656189 4.560852 6.993866 6.304287 9.888565c0.21792984 0.36183167 0.42920303 0.71673584 0.63341904 1.0644989c0.102108 0.1738739 0.20245361 0.34596252 0.30098724 0.51623535l0.15557861 0.27098083" fill-rule="evenodd"></path><path fill="#666666" stroke="#666666" stroke-width="1.0" stroke-linecap="butt" d="m38.09677 227.06429l3.4913292 3.3366394l-0.52976227 -4.800186z" fill-rule="evenodd"></path><path fill="#d9ead3" d="m104.0 443.88977l0 0c0 -19.82138 17.852203 -35.88977 39.87401 -35.88977l0 0c22.02182 0 39.874023 16.06839 39.874023 35.88977l0 0c0 19.82135 -17.852203 35.88977 -39.874023 35.88977l0 0c-22.021805 0 -39.87401 -16.06842 -39.87401 -35.88977z" fill-rule="nonzero"></path><path fill="#000000" d="m128.90222 447.11633l1.65625 -0.265625q0.140625 1.0 0.765625 1.53125q0.640625 0.515625 1.78125 0.515625q1.15625 0 1.703125 -0.46875q0.5625 -0.46875 0.5625 -1.09375q0 -0.5625 -0.484375 -0.890625q-0.34375 -0.21875 -1.703125 -0.5625q-1.84375 -0.46875 -2.5625 -0.796875q-0.703125 -0.34375 -1.078125 -0.9375q-0.359375 -0.609375 -0.359375 -1.328125q0 -0.65625 0.296875 -1.21875q0.3125 -0.5625 0.828125 -0.9375q0.390625 -0.28125 1.0625 -0.484375q0.671875 -0.203125 1.4375 -0.203125q1.171875 0 2.046875 0.34375q0.875 0.328125 1.28125 0.90625q0.421875 0.5625 0.578125 1.515625l-1.625 0.21875q-0.109375 -0.75 -0.65625 -1.171875q-0.53125 -0.4375 -1.5 -0.4375q-1.15625 0 -1.640625 0.390625q-0.484375 0.375 -0.484375 0.875q0 0.328125 0.203125 0.59375q0.203125 0.265625 0.640625 0.4375q0.25 0.09375 1.46875 0.4375q1.765625 0.46875 2.46875 0.765625q0.703125 0.296875 1.09375 0.875q0.40625 0.578125 0.40625 1.4375q0 0.828125 -0.484375 1.578125q-0.484375 0.734375 -1.40625 1.140625q-0.921875 0.390625 -2.078125 0.390625q-1.921875 0 -2.9375 -0.796875q-1.0 -0.796875 -1.28125 -2.359375zm16.28125 6.71875l0 -4.828125q-0.390625 0.546875 -1.09375 0.90625q-0.6875 0.359375 -1.484375 0.359375q-1.75 0 -3.015625 -1.390625q-1.265625 -1.40625 -1.265625 -3.84375q0 -1.484375 0.515625 -2.65625q0.515625 -1.1875 1.484375 -1.796875q0.984375 -0.609375 2.15625 -0.609375q1.828125 0 2.875 1.546875l0 -1.328125l1.5 0l0 13.640625l-1.671875 0zm-5.140625 -8.734375q0 1.90625 0.796875 2.859375q0.796875 0.9375 1.90625 0.9375q1.0625 0 1.828125 -0.890625q0.78125 -0.90625 0.78125 -2.765625q0 -1.953125 -0.8125 -2.953125q-0.8125 -1.0 -1.90625 -1.0q-1.09375 0 -1.84375 0.9375q-0.75 0.921875 -0.75 2.875zm9.219467 4.953125l0 -9.859375l1.5 0l0 1.5q0.578125 -1.046875 1.0625 -1.375q0.484375 -0.34375 1.078125 -0.34375q0.84375 0 1.71875 0.546875l-0.578125 1.546875q-0.609375 -0.359375 -1.234375 -0.359375q-0.546875 0 -0.984375 0.328125q-0.421875 0.328125 -0.609375 0.90625q-0.28125 0.890625 -0.28125 1.953125l0 5.15625l-1.671875 0zm9.884552 -1.5l0.234375 1.484375q-0.703125 0.140625 -1.265625 0.140625q-0.90625 0 -1.40625 -0.28125q-0.5 -0.296875 -0.703125 -0.75q-0.203125 -0.46875 -0.203125 -1.984375l0 -5.65625l-1.234375 0l0 -1.3125l1.234375 0l0 -2.4375l1.65625 -1.0l0 3.4375l1.6875 0l0 1.3125l-1.6875 0l0 5.75q0 0.71875 0.078125 0.921875q0.09375 0.203125 0.296875 0.328125q0.203125 0.125 0.578125 0.125q0.265625 0 0.734375 -0.078125z" fill-rule="nonzero"></path><path fill="#d9d2e9" d="m104.0 539.6693l0 0c0 -19.821411 17.852203 -35.88977 39.87401 -35.88977l0 0c22.02182 0 39.874023 16.06836 39.874023 35.88977l0 0c0 19.82135 -17.852203 35.88977 -39.874023 35.88977l0 0c-22.021805 0 -39.87401 -16.06842 -39.87401 -35.88977z" fill-rule="nonzero"></path><path fill="#000000" d="m133.44968 545.8334l0 -13.59375l6.03125 0q1.8125 0 2.75 0.359375q0.953125 0.359375 1.515625 1.296875q0.5625 0.921875 0.5625 2.046875q0 1.453125 -0.9375 2.453125q-0.921875 0.984375 -2.890625 1.25q0.71875 0.34375 1.09375 0.671875q0.78125 0.734375 1.484375 1.8125l2.375 3.703125l-2.265625 0l-1.796875 -2.828125q-0.796875 -1.21875 -1.3125 -1.875q-0.5 -0.65625 -0.90625 -0.90625q-0.40625 -0.265625 -0.8125 -0.359375q-0.3125 -0.078125 -1.015625 -0.078125l-2.078125 0l0 6.046875l-1.796875 0zm1.796875 -7.59375l3.859375 0q1.234375 0 1.921875 -0.25q0.703125 -0.265625 1.0625 -0.828125q0.375 -0.5625 0.375 -1.21875q0 -0.96875 -0.703125 -1.578125q-0.703125 -0.625 -2.21875 -0.625l-4.296875 0l0 4.5zm17.254196 7.59375l-1.671875 0l0 -10.640625q-0.59375 0.578125 -1.578125 1.15625q-0.984375 0.5625 -1.765625 0.859375l0 -1.625q1.40625 -0.65625 2.453125 -1.59375q1.046875 -0.9375 1.484375 -1.8125l1.078125 0l0 13.65625z" fill-rule="nonzero"></path><path fill="#fff2cc" d="m184.25197 147.88977l0 0c0 -19.82138 17.852203 -35.88977 39.874023 -35.88977l0 0c22.021805 0 39.87401 16.06839 39.87401 35.88977l0 0c0 19.821365 -17.852203 35.889755 -39.87401 35.889755l0 0c-22.02182 0 -39.874023 -16.06839 -39.874023 -35.889755z" fill-rule="nonzero"></path><path fill="#000000" d="m216.44116 149.97571l0 -1.6875l5.125 0l0 1.6875l-5.125 0zm12.681427 4.078125l-1.671875 0l0 -10.640625q-0.59375 0.578125 -1.578125 1.15625q-0.984375 0.5625 -1.765625 0.859375l0 -1.625q1.40625 -0.65625 2.453125 -1.59375q1.046875 -0.9375 1.484375 -1.8125l1.078125 0l0 13.65625z" fill-rule="nonzero"></path><path fill="#d9d2e9" d="m112.25197 51.889763l0 0c0 -19.82137 17.852203 -35.889763 39.874023 -35.889763l0 0c22.021805 0 39.87401 16.068394 39.87401 35.889763l0 0c0 19.821373 -17.852203 35.889763 -39.87401 35.889763l0 0c-22.02182 0 -39.874023 -16.06839 -39.874023 -35.889763z" fill-rule="nonzero"></path><path fill="#000000" d="m140.68509 58.053825l5.234375 -13.59375l1.9375 0l5.5625 13.59375l-2.046875 0l-1.59375 -4.125l-5.6875 0l-1.484375 4.125l-1.921875 0zm3.921875 -5.578125l4.609375 0l-1.40625 -3.78125q-0.65625 -1.703125 -0.96875 -2.8125q-0.265625 1.3125 -0.734375 2.59375l-1.5 4.0zm15.631073 5.578125l-1.671875 0l0 -10.640625q-0.59375 0.578125 -1.578125 1.15625q-0.984375 0.5625 -1.765625 0.859375l0 -1.625q1.40625 -0.65625 2.453125 -1.59375q1.046875 -0.9375 1.484375 -1.8125l1.078125 0l0 13.65625z" fill-rule="nonzero"></path><path fill="#000000" fill-opacity="0.0" d="m224.12599 183.77953l-0.25198364 32.220474" fill-rule="nonzero"></path><path stroke="#000000" stroke-width="1.0" stroke-linejoin="round" stroke-linecap="butt" d="m224.12599 183.77953l-0.20506287 26.220657" fill-rule="evenodd"></path><path fill="#000000" stroke="#000000" stroke-width="1.0" stroke-linecap="butt" d="m222.26926 209.98727l1.6161957 4.550873l1.6871643 -4.5250397z" fill-rule="evenodd"></path><path fill="#000000" fill-opacity="0.0" d="m144.12599 375.77954l-0.25198364 32.22046" fill-rule="nonzero"></path><path stroke="#666666" stroke-width="1.0" stroke-linejoin="round" stroke-linecap="butt" d="m144.12599 375.77954l-0.20506287 26.220612" fill-rule="evenodd"></path><path fill="#666666" stroke="#666666" stroke-width="1.0" stroke-linecap="butt" d="m142.26926 401.98727l1.6161957 4.550873l1.6871643 -4.525055z" fill-rule="evenodd"></path><path fill="#000000" fill-opacity="0.0" d="m143.87401 479.77954l0 24.0" fill-rule="nonzero"></path><path stroke="#666666" stroke-width="1.0" stroke-linejoin="round" stroke-linecap="butt" d="m143.87401 479.77954l0 18.0" fill-rule="evenodd"></path><path fill="#666666" stroke="#666666" stroke-width="1.0" stroke-linecap="butt" d="m142.22229 497.77954l1.6517181 4.538086l1.6517334 -4.538086z" fill-rule="evenodd"></path><path fill="#d9ead3" d="m184.25197 251.88977l0 0c0 -19.82138 17.852203 -35.88977 39.874023 -35.88977l0 0c22.021805 0 39.87401 16.06839 39.87401 35.88977l0 0c0 19.82135 -17.852203 35.88977 -39.87401 35.88977l0 0c-22.02182 0 -39.874023 -16.06842 -39.874023 -35.88977z" fill-rule="nonzero"></path><path fill="#000000" d="m219.60254 258.05383l3.59375 -5.125l-3.328125 -4.734375l2.09375 0l1.515625 2.3125q0.421875 0.65625 0.671875 1.109375q0.421875 -0.609375 0.765625 -1.09375l1.65625 -2.328125l1.984375 0l-3.390625 4.640625l3.65625 5.21875l-2.046875 0l-2.03125 -3.0625l-0.53125 -0.828125l-2.59375 3.890625l-2.015625 0z" fill-rule="nonzero"></path><path fill="#d9ead3" d="m32.0 251.88977l0 0c0 -19.82138 17.852203 -35.88977 39.874016 -35.88977l0 0c22.021812 0 39.874016 16.06839 39.874016 35.88977l0 0c0 19.82135 -17.852203 35.88977 -39.874016 35.88977l0 0c-22.021812 0 -39.874016 -16.06842 -39.874016 -35.88977z" fill-rule="nonzero"></path><path fill="#000000" d="m67.35058 258.05383l3.59375 -5.125l-3.328125 -4.734375l2.09375 0l1.515625 2.3125q0.421875 0.65625 0.671875 1.109375q0.421875 -0.609375 0.765625 -1.09375l1.65625 -2.328125l1.984375 0l-3.390625 4.640625l3.65625 5.21875l-2.046875 0l-2.03125 -3.0625l-0.53125 -0.828125l-2.59375 3.890625l-2.015625 0z" fill-rule="nonzero"></path><path fill="#d9ead3" d="m104.125984 347.88977l0 0c0 -19.82138 17.852203 -35.88977 39.874016 -35.88977l0 0c22.021805 0 39.87401 16.06839 39.87401 35.88977l0 0c0 19.82135 -17.852203 35.88977 -39.87401 35.88977l0 0c-22.021812 0 -39.874016 -16.06842 -39.874016 -35.88977z" fill-rule="nonzero"></path><path fill="#000000" d="m143.31815 351.8507l0 -3.71875l-3.703125 0l0 -1.5625l3.703125 0l0 -3.703125l1.578125 0l0 3.703125l3.6875 0l0 1.5625l-3.6875 0l0 3.71875l-1.578125 0z" fill-rule="nonzero"></path><path fill="#000000" fill-opacity="0.0" d="m376.12598 287.77954l-51.930786 34.73233" fill-rule="nonzero"></path><path stroke="#666666" stroke-width="1.0" stroke-linejoin="round" stroke-linecap="butt" d="m376.12598 287.77954l-46.94345 31.396698" fill-rule="evenodd"></path><path fill="#666666" stroke="#666666" stroke-width="1.0" stroke-linecap="butt" d="m328.26428 317.80328l-2.8539124 3.895874l4.6904297 -1.1499634z" fill-rule="evenodd"></path><path fill="#000000" fill-opacity="0.0" d="m223.87401 287.77954l43.9308 34.73233" fill-rule="nonzero"></path><path stroke="#666666" stroke-width="1.0" stroke-linejoin="round" stroke-linecap="butt" d="m223.87401 287.77954l39.224106 31.01117" fill-rule="evenodd"></path><path fill="#666666" stroke="#666666" stroke-width="1.0" stroke-linecap="butt" d="m262.07373 320.0864l4.5842896 1.5187988l-2.535492 -4.110199z" fill-rule="evenodd"></path><path fill="#000000" fill-opacity="0.0" d="m304.12598 87.779526l72.0 24.220474" fill-rule="nonzero"></path><path stroke="#666666" stroke-width="1.0" stroke-linejoin="round" stroke-linecap="butt" d="m304.12598 87.779526l66.31317 22.30745" fill-rule="evenodd"></path><path fill="#666666" stroke="#666666" stroke-width="1.0" stroke-linecap="butt" d="m369.9125 111.6525l4.827881 -0.11860657l-3.7746277 -3.0124512z" fill-rule="evenodd"></path><path fill="#d9ead3" d="m256.0 443.88977l0 0c0 -19.82138 17.852203 -35.88977 39.874023 -35.88977l0 0c22.02179 0 39.873993 16.06839 39.873993 35.88977l0 0c0 19.82135 -17.852203 35.88977 -39.873993 35.88977l0 0c-22.02182 0 -39.874023 -16.06842 -39.874023 -35.88977z" fill-rule="nonzero"></path><path fill="#000000" d="m280.90222 447.11633l1.65625 -0.265625q0.140625 1.0 0.765625 1.53125q0.640625 0.515625 1.78125 0.515625q1.15625 0 1.703125 -0.46875q0.5625 -0.46875 0.5625 -1.09375q0 -0.5625 -0.484375 -0.890625q-0.34375 -0.21875 -1.703125 -0.5625q-1.84375 -0.46875 -2.5625 -0.796875q-0.703125 -0.34375 -1.078125 -0.9375q-0.359375 -0.609375 -0.359375 -1.328125q0 -0.65625 0.296875 -1.21875q0.3125 -0.5625 0.828125 -0.9375q0.390625 -0.28125 1.0625 -0.484375q0.671875 -0.203125 1.4375 -0.203125q1.171875 0 2.046875 0.34375q0.875 0.328125 1.28125 0.90625q0.421875 0.5625 0.578125 1.515625l-1.625 0.21875q-0.109375 -0.75 -0.65625 -1.171875q-0.53125 -0.4375 -1.5 -0.4375q-1.15625 0 -1.640625 0.390625q-0.484375 0.375 -0.484375 0.875q0 0.328125 0.203125 0.59375q0.203125 0.265625 0.640625 0.4375q0.25 0.09375 1.46875 0.4375q1.765625 0.46875 2.46875 0.765625q0.703125 0.296875 1.09375 0.875q0.40625 0.578125 0.40625 1.4375q0 0.828125 -0.484375 1.578125q-0.484375 0.734375 -1.40625 1.140625q-0.921875 0.390625 -2.078125 0.390625q-1.921875 0 -2.9375 -0.796875q-1.0 -0.796875 -1.28125 -2.359375zm16.28125 6.71875l0 -4.828125q-0.390625 0.546875 -1.09375 0.90625q-0.6875 0.359375 -1.484375 0.359375q-1.75 0 -3.015625 -1.390625q-1.265625 -1.40625 -1.265625 -3.84375q0 -1.484375 0.515625 -2.65625q0.515625 -1.1875 1.484375 -1.796875q0.984375 -0.609375 2.15625 -0.609375q1.828125 0 2.875 1.546875l0 -1.328125l1.5 0l0 13.640625l-1.671875 0zm-5.140625 -8.734375q0 1.90625 0.796875 2.859375q0.796875 0.9375 1.90625 0.9375q1.0625 0 1.828125 -0.890625q0.78125 -0.90625 0.78125 -2.765625q0 -1.953125 -0.8125 -2.953125q-0.8125 -1.0 -1.90625 -1.0q-1.09375 0 -1.84375 0.9375q-0.75 0.921875 -0.75 2.875zm9.219482 4.953125l0 -9.859375l1.5 0l0 1.5q0.578125 -1.046875 1.0625 -1.375q0.484375 -0.34375 1.078125 -0.34375q0.84375 0 1.71875 0.546875l-0.578125 1.546875q-0.609375 -0.359375 -1.234375 -0.359375q-0.546875 0 -0.984375 0.328125q-0.421875 0.328125 -0.609375 0.90625q-0.28125 0.890625 -0.28125 1.953125l0 5.15625l-1.671875 0zm9.884552 -1.5l0.234375 1.484375q-0.703125 0.140625 -1.265625 0.140625q-0.90625 0 -1.40625 -0.28125q-0.5 -0.296875 -0.703125 -0.75q-0.203125 -0.46875 -0.203125 -1.984375l0 -5.65625l-1.234375 0l0 -1.3125l1.234375 0l0 -2.4375l1.65625 -1.0l0 3.4375l1.6875 0l0 1.3125l-1.6875 0l0 5.75q0 0.71875 0.078125 0.921875q0.09375 0.203125 0.296875 0.328125q0.203125 0.125 0.578125 0.125q0.265625 0 0.734375 -0.078125z" fill-rule="nonzero"></path><path fill="#d9d2e9" d="m256.0 539.6693l0 0c0 -19.821411 17.852203 -35.88977 39.874023 -35.88977l0 0c22.02179 0 39.873993 16.06836 39.873993 35.88977l0 0c0 19.82135 -17.852203 35.88977 -39.873993 35.88977l0 0c-22.02182 0 -39.874023 -16.06842 -39.874023 -35.88977z" fill-rule="nonzero"></path><path fill="#000000" d="m285.44968 545.8334l0 -13.59375l6.03125 0q1.8125 0 2.75 0.359375q0.953125 0.359375 1.515625 1.296875q0.5625 0.921875 0.5625 2.046875q0 1.453125 -0.9375 2.453125q-0.921875 0.984375 -2.890625 1.25q0.71875 0.34375 1.09375 0.671875q0.78125 0.734375 1.484375 1.8125l2.375 3.703125l-2.265625 0l-1.796875 -2.828125q-0.796875 -1.21875 -1.3125 -1.875q-0.5 -0.65625 -0.90625 -0.90625q-0.40625 -0.265625 -0.8125 -0.359375q-0.3125 -0.078125 -1.015625 -0.078125l-2.078125 0l0 6.046875l-1.796875 0zm1.796875 -7.59375l3.859375 0q1.234375 0 1.921875 -0.25q0.703125 -0.265625 1.0625 -0.828125q0.375 -0.5625 0.375 -1.21875q0 -0.96875 -0.703125 -1.578125q-0.703125 -0.625 -2.21875 -0.625l-4.296875 0l0 4.5zm19.738586 5.984375l0 1.609375l-8.984375 0q-0.015625 -0.609375 0.1875 -1.15625q0.34375 -0.921875 1.09375 -1.8125q0.765625 -0.890625 2.1875 -2.0625q2.21875 -1.8125 3.0 -2.875q0.78125 -1.0625 0.78125 -2.015625q0 -0.984375 -0.71875 -1.671875q-0.703125 -0.6875 -1.84375 -0.6875q-1.203125 0 -1.9375 0.734375q-0.71875 0.71875 -0.71875 2.0l-1.71875 -0.171875q0.171875 -1.921875 1.328125 -2.921875q1.15625 -1.015625 3.09375 -1.015625q1.953125 0 3.09375 1.09375q1.140625 1.078125 1.140625 2.6875q0 0.8125 -0.34375 1.609375q-0.328125 0.78125 -1.109375 1.65625q-0.765625 0.859375 -2.5625 2.390625q-1.5 1.265625 -1.9375 1.71875q-0.421875 0.4375 -0.703125 0.890625l6.671875 0z" fill-rule="nonzero"></path><path fill="#fff2cc" d="m336.25198 147.88977l0 0c0 -19.82138 17.852203 -35.88977 39.873993 -35.88977l0 0c22.02182 0 39.874023 16.06839 39.874023 35.88977l0 0c0 19.821365 -17.852203 35.889755 -39.874023 35.889755l0 0c-22.02179 0 -39.873993 -16.06839 -39.873993 -35.889755z" fill-rule="nonzero"></path><path fill="#000000" d="m368.44116 149.97571l0 -1.6875l5.125 0l0 1.6875l-5.125 0zm12.681427 4.078125l-1.671875 0l0 -10.640625q-0.59375 0.578125 -1.578125 1.15625q-0.984375 0.5625 -1.765625 0.859375l0 -1.625q1.40625 -0.65625 2.453125 -1.59375q1.046875 -0.9375 1.484375 -1.8125l1.078125 0l0 13.65625z" fill-rule="nonzero"></path><path fill="#d9d2e9" d="m264.25198 51.889763l0 0c0 -19.82137 17.852203 -35.889763 39.873993 -35.889763l0 0c22.02182 0 39.874023 16.068394 39.874023 35.889763l0 0c0 19.821373 -17.852203 35.889763 -39.874023 35.889763l0 0c-22.02179 0 -39.873993 -16.06839 -39.873993 -35.889763z" fill-rule="nonzero"></path><path fill="#000000" d="m292.6851 58.053825l5.234375 -13.59375l1.9375 0l5.5625 13.59375l-2.046875 0l-1.59375 -4.125l-5.6875 0l-1.484375 4.125l-1.921875 0zm3.921875 -5.578125l4.609375 0l-1.40625 -3.78125q-0.65625 -1.703125 -0.96875 -2.8125q-0.265625 1.3125 -0.734375 2.59375l-1.5 4.0zm18.115448 3.96875l0 1.609375l-8.984375 0q-0.015625 -0.609375 0.1875 -1.15625q0.34375 -0.921875 1.09375 -1.8125q0.765625 -0.890625 2.1875 -2.0625q2.21875 -1.8125 3.0 -2.875q0.78125 -1.0625 0.78125 -2.015625q0 -0.984375 -0.71875 -1.671875q-0.703125 -0.6875 -1.84375 -0.6875q-1.203125 0 -1.9375 0.734375q-0.71875 0.71875 -0.71875 2.0l-1.71875 -0.171875q0.171875 -1.921875 1.328125 -2.921875q1.15625 -1.015625 3.09375 -1.015625q1.953125 0 3.09375 1.09375q1.140625 1.078125 1.140625 2.6875q0 0.8125 -0.34375 1.609375q-0.328125 0.78125 -1.109375 1.65625q-0.765625 0.859375 -2.5625 2.390625q-1.5 1.265625 -1.9375 1.71875q-0.421875 0.4375 -0.703125 0.890625l6.671875 0z" fill-rule="nonzero"></path><path fill="#000000" fill-opacity="0.0" d="m376.12598 183.77953l-0.25195312 32.220474" fill-rule="nonzero"></path><path stroke="#000000" stroke-width="1.0" stroke-linejoin="round" stroke-linecap="butt" d="m376.12598 183.77953l-0.2050476 26.220657" fill-rule="evenodd"></path><path fill="#000000" stroke="#000000" stroke-width="1.0" stroke-linecap="butt" d="m374.26926 209.98727l1.6161804 4.550873l1.6871948 -4.5250397z" fill-rule="evenodd"></path><path fill="#000000" fill-opacity="0.0" d="m296.12598 375.77954l-0.25195312 32.22046" fill-rule="nonzero"></path><path stroke="#666666" stroke-width="1.0" stroke-linejoin="round" stroke-linecap="butt" d="m296.12598 375.77954l-0.2050476 26.220612" fill-rule="evenodd"></path><path fill="#666666" stroke="#666666" stroke-width="1.0" stroke-linecap="butt" d="m294.26926 401.98727l1.6161804 4.550873l1.6871948 -4.525055z" fill-rule="evenodd"></path><path fill="#000000" fill-opacity="0.0" d="m295.87402 479.77954l0 24.0" fill-rule="nonzero"></path><path stroke="#666666" stroke-width="1.0" stroke-linejoin="round" stroke-linecap="butt" d="m295.87402 479.77954l0 18.0" fill-rule="evenodd"></path><path fill="#666666" stroke="#666666" stroke-width="1.0" stroke-linecap="butt" d="m294.2223 497.77954l1.6517334 4.538086l1.6517334 -4.538086z" fill-rule="evenodd"></path><path fill="#d9ead3" d="m336.25198 251.88977l0 0c0 -19.82138 17.852203 -35.88977 39.873993 -35.88977l0 0c22.02182 0 39.874023 16.06839 39.874023 35.88977l0 0c0 19.82135 -17.852203 35.88977 -39.874023 35.88977l0 0c-22.02179 0 -39.873993 -16.06842 -39.873993 -35.88977z" fill-rule="nonzero"></path><path fill="#000000" d="m371.60254 258.05383l3.59375 -5.125l-3.328125 -4.734375l2.09375 0l1.515625 2.3125q0.421875 0.65625 0.671875 1.109375q0.421875 -0.609375 0.765625 -1.09375l1.65625 -2.328125l1.984375 0l-3.390625 4.640625l3.65625 5.21875l-2.046875 0l-2.03125 -3.0625l-0.53125 -0.828125l-2.59375 3.890625l-2.015625 0z" fill-rule="nonzero"></path><path fill="#d9ead3" d="m184.0 251.88977l0 0c0 -19.82138 17.852203 -35.88977 39.87401 -35.88977l0 0c22.02182 0 39.87401 16.06839 39.87401 35.88977l0 0c0 19.82135 -17.852188 35.88977 -39.87401 35.88977l0 0c-22.021805 0 -39.87401 -16.06842 -39.87401 -35.88977z" fill-rule="nonzero"></path><path fill="#000000" d="m219.35057 258.05383l3.59375 -5.125l-3.328125 -4.734375l2.09375 0l1.515625 2.3125q0.421875 0.65625 0.671875 1.109375q0.421875 -0.609375 0.765625 -1.09375l1.65625 -2.328125l1.984375 0l-3.390625 4.640625l3.65625 5.21875l-2.046875 0l-2.03125 -3.0625l-0.53125 -0.828125l-2.59375 3.890625l-2.015625 0z" fill-rule="nonzero"></path><path fill="#d9ead3" d="m256.12598 347.88977l0 0c0 -19.82138 17.852203 -35.88977 39.874023 -35.88977l0 0c22.02182 0 39.874023 16.06839 39.874023 35.88977l0 0c0 19.82135 -17.852203 35.88977 -39.874023 35.88977l0 0c-22.02182 0 -39.874023 -16.06842 -39.874023 -35.88977z" fill-rule="nonzero"></path><path fill="#000000" d="m295.31815 351.8507l0 -3.71875l-3.703125 0l0 -1.5625l3.703125 0l0 -3.703125l1.578125 0l0 3.703125l3.6875 0l0 1.5625l-3.6875 0l0 3.71875l-1.578125 0z" fill-rule="nonzero"></path><path fill="#000000" fill-opacity="0.0" d="m528.126 287.77954l-51.930786 34.73233" fill-rule="nonzero"></path><path stroke="#666666" stroke-width="1.0" stroke-linejoin="round" stroke-linecap="butt" d="m528.126 287.77954l-46.94348 31.396698" fill-rule="evenodd"></path><path fill="#666666" stroke="#666666" stroke-width="1.0" stroke-linecap="butt" d="m480.26425 317.80328l-2.8539124 3.895874l4.6904297 -1.1499634z" fill-rule="evenodd"></path><path fill="#000000" fill-opacity="0.0" d="m375.87402 287.77954l43.930786 34.73233" fill-rule="nonzero"></path><path stroke="#666666" stroke-width="1.0" stroke-linejoin="round" stroke-linecap="butt" d="m375.87402 287.77954l39.22412 31.01117" fill-rule="evenodd"></path><path fill="#666666" stroke="#666666" stroke-width="1.0" stroke-linecap="butt" d="m414.07376 320.0864l4.5842896 1.5187988l-2.535492 -4.110199z" fill-rule="evenodd"></path><path fill="#000000" fill-opacity="0.0" d="m456.12598 87.779526l72.0 24.220474" fill-rule="nonzero"></path><path stroke="#666666" stroke-width="1.0" stroke-linejoin="round" stroke-linecap="butt" d="m456.12598 87.779526l66.31317 22.30745" fill-rule="evenodd"></path><path fill="#666666" stroke="#666666" stroke-width="1.0" stroke-linecap="butt" d="m521.9125 111.6525l4.827881 -0.11860657l-3.7745972 -3.0124512z" fill-rule="evenodd"></path><path fill="#000000" fill-opacity="0.0" d="m456.12598 87.779526l-52.056763 138.73235" fill-rule="nonzero"></path><path stroke="#666666" stroke-width="1.0" stroke-linejoin="round" stroke-linecap="butt" d="m456.12598 87.779526l-49.948883 133.11479" fill-rule="evenodd"></path><path fill="#666666" stroke="#666666" stroke-width="1.0" stroke-linecap="butt" d="m404.6306 220.31406l-0.047851562 4.8291016l3.140747 -3.6685486z" fill-rule="evenodd"></path><path fill="#d9ead3" d="m408.0 443.88977l0 0c0 -19.82138 17.852203 -35.88977 39.874023 -35.88977l0 0c22.02179 0 39.873993 16.06839 39.873993 35.88977l0 0c0 19.82135 -17.852203 35.88977 -39.873993 35.88977l0 0c-22.02182 0 -39.874023 -16.06842 -39.874023 -35.88977z" fill-rule="nonzero"></path><path fill="#000000" d="m432.90222 447.11633l1.65625 -0.265625q0.140625 1.0 0.765625 1.53125q0.640625 0.515625 1.78125 0.515625q1.15625 0 1.703125 -0.46875q0.5625 -0.46875 0.5625 -1.09375q0 -0.5625 -0.484375 -0.890625q-0.34375 -0.21875 -1.703125 -0.5625q-1.84375 -0.46875 -2.5625 -0.796875q-0.703125 -0.34375 -1.078125 -0.9375q-0.359375 -0.609375 -0.359375 -1.328125q0 -0.65625 0.296875 -1.21875q0.3125 -0.5625 0.828125 -0.9375q0.390625 -0.28125 1.0625 -0.484375q0.671875 -0.203125 1.4375 -0.203125q1.171875 0 2.046875 0.34375q0.875 0.328125 1.28125 0.90625q0.421875 0.5625 0.578125 1.515625l-1.625 0.21875q-0.109375 -0.75 -0.65625 -1.171875q-0.53125 -0.4375 -1.5 -0.4375q-1.15625 0 -1.640625 0.390625q-0.484375 0.375 -0.484375 0.875q0 0.328125 0.203125 0.59375q0.203125 0.265625 0.640625 0.4375q0.25 0.09375 1.46875 0.4375q1.765625 0.46875 2.46875 0.765625q0.703125 0.296875 1.09375 0.875q0.40625 0.578125 0.40625 1.4375q0 0.828125 -0.484375 1.578125q-0.484375 0.734375 -1.40625 1.140625q-0.921875 0.390625 -2.078125 0.390625q-1.921875 0 -2.9375 -0.796875q-1.0 -0.796875 -1.28125 -2.359375zm16.28125 6.71875l0 -4.828125q-0.390625 0.546875 -1.09375 0.90625q-0.6875 0.359375 -1.484375 0.359375q-1.75 0 -3.015625 -1.390625q-1.265625 -1.40625 -1.265625 -3.84375q0 -1.484375 0.515625 -2.65625q0.515625 -1.1875 1.484375 -1.796875q0.984375 -0.609375 2.15625 -0.609375q1.828125 0 2.875 1.546875l0 -1.328125l1.5 0l0 13.640625l-1.671875 0zm-5.140625 -8.734375q0 1.90625 0.796875 2.859375q0.796875 0.9375 1.90625 0.9375q1.0625 0 1.828125 -0.890625q0.78125 -0.90625 0.78125 -2.765625q0 -1.953125 -0.8125 -2.953125q-0.8125 -1.0 -1.90625 -1.0q-1.09375 0 -1.84375 0.9375q-0.75 0.921875 -0.75 2.875zm9.219482 4.953125l0 -9.859375l1.5 0l0 1.5q0.578125 -1.046875 1.0625 -1.375q0.484375 -0.34375 1.078125 -0.34375q0.84375 0 1.71875 0.546875l-0.578125 1.546875q-0.609375 -0.359375 -1.234375 -0.359375q-0.546875 0 -0.984375 0.328125q-0.421875 0.328125 -0.609375 0.90625q-0.28125 0.890625 -0.28125 1.953125l0 5.15625l-1.671875 0zm9.884552 -1.5l0.234375 1.484375q-0.703125 0.140625 -1.265625 0.140625q-0.90625 0 -1.40625 -0.28125q-0.5 -0.296875 -0.703125 -0.75q-0.203125 -0.46875 -0.203125 -1.984375l0 -5.65625l-1.234375 0l0 -1.3125l1.234375 0l0 -2.4375l1.65625 -1.0l0 3.4375l1.6875 0l0 1.3125l-1.6875 0l0 5.75q0 0.71875 0.078125 0.921875q0.09375 0.203125 0.296875 0.328125q0.203125 0.125 0.578125 0.125q0.265625 0 0.734375 -0.078125z" fill-rule="nonzero"></path><path fill="#d9d2e9" d="m408.0 539.6693l0 0c0 -19.821411 17.852203 -35.88977 39.874023 -35.88977l0 0c22.02179 0 39.873993 16.06836 39.873993 35.88977l0 0c0 19.82135 -17.852203 35.88977 -39.873993 35.88977l0 0c-22.02182 0 -39.874023 -16.06842 -39.874023 -35.88977z" fill-rule="nonzero"></path><path fill="#000000" d="m437.44968 545.8334l0 -13.59375l6.03125 0q1.8125 0 2.75 0.359375q0.953125 0.359375 1.515625 1.296875q0.5625 0.921875 0.5625 2.046875q0 1.453125 -0.9375 2.453125q-0.921875 0.984375 -2.890625 1.25q0.71875 0.34375 1.09375 0.671875q0.78125 0.734375 1.484375 1.8125l2.375 3.703125l-2.265625 0l-1.796875 -2.828125q-0.796875 -1.21875 -1.3125 -1.875q-0.5 -0.65625 -0.90625 -0.90625q-0.40625 -0.265625 -0.8125 -0.359375q-0.3125 -0.078125 -1.015625 -0.078125l-2.078125 0l0 6.046875l-1.796875 0zm1.796875 -7.59375l3.859375 0q1.234375 0 1.921875 -0.25q0.703125 -0.265625 1.0625 -0.828125q0.375 -0.5625 0.375 -1.21875q0 -0.96875 -0.703125 -1.578125q-0.703125 -0.625 -2.21875 -0.625l-4.296875 0l0 4.5zm10.972961 4.0l1.671875 -0.21875q0.28125 1.421875 0.96875 2.046875q0.703125 0.625 1.6875 0.625q1.1875 0 2.0 -0.8125q0.8125 -0.828125 0.8125 -2.03125q0 -1.140625 -0.765625 -1.890625q-0.75 -0.75 -1.90625 -0.75q-0.46875 0 -1.171875 0.1875l0.1875 -1.46875q0.15625 0.015625 0.265625 0.015625q1.0625 0 1.90625 -0.546875q0.859375 -0.5625 0.859375 -1.71875q0 -0.921875 -0.625 -1.515625q-0.609375 -0.609375 -1.59375 -0.609375q-0.96875 0 -1.625 0.609375q-0.640625 0.609375 -0.828125 1.84375l-1.671875 -0.296875q0.296875 -1.6875 1.375 -2.609375q1.09375 -0.921875 2.71875 -0.921875q1.109375 0 2.046875 0.484375q0.9375 0.46875 1.421875 1.296875q0.5 0.828125 0.5 1.75q0 0.890625 -0.46875 1.609375q-0.46875 0.71875 -1.40625 1.15625q1.21875 0.265625 1.875 1.15625q0.671875 0.875 0.671875 2.1875q0 1.78125 -1.296875 3.015625q-1.296875 1.234375 -3.28125 1.234375q-1.796875 0 -2.984375 -1.0625q-1.171875 -1.0625 -1.34375 -2.765625z" fill-rule="nonzero"></path><path fill="#fff2cc" d="m488.25198 147.88977l0 0c0 -19.82138 17.852203 -35.88977 39.873993 -35.88977l0 0c22.02179 0 39.874023 16.06839 39.874023 35.88977l0 0c0 19.821365 -17.852234 35.889755 -39.874023 35.889755l0 0c-22.02179 0 -39.873993 -16.06839 -39.873993 -35.889755z" fill-rule="nonzero"></path><path fill="#000000" d="m520.44116 149.97571l0 -1.6875l5.125 0l0 1.6875l-5.125 0zm12.6813965 4.078125l-1.671875 0l0 -10.640625q-0.59375 0.578125 -1.578125 1.15625q-0.984375 0.5625 -1.765625 0.859375l0 -1.625q1.40625 -0.65625 2.453125 -1.59375q1.046875 -0.9375 1.484375 -1.8125l1.078125 0l0 13.65625z" fill-rule="nonzero"></path><path fill="#d9d2e9" d="m416.25198 51.889763l0 0c0 -19.82137 17.852203 -35.889763 39.873993 -35.889763l0 0c22.02182 0 39.874023 16.068394 39.874023 35.889763l0 0c0 19.821373 -17.852203 35.889763 -39.874023 35.889763l0 0c-22.02179 0 -39.873993 -16.06839 -39.873993 -35.889763z" fill-rule="nonzero"></path><path fill="#000000" d="m444.6851 58.053825l5.234375 -13.59375l1.9375 0l5.5625 13.59375l-2.046875 0l-1.59375 -4.125l-5.6875 0l-1.484375 4.125l-1.921875 0zm3.921875 -5.578125l4.609375 0l-1.40625 -3.78125q-0.65625 -1.703125 -0.96875 -2.8125q-0.265625 1.3125 -0.734375 2.59375l-1.5 4.0zm9.349823 1.984375l1.671875 -0.21875q0.28125 1.421875 0.96875 2.046875q0.703125 0.625 1.6875 0.625q1.1875 0 2.0 -0.8125q0.8125 -0.828125 0.8125 -2.03125q0 -1.140625 -0.765625 -1.890625q-0.75 -0.75 -1.90625 -0.75q-0.46875 0 -1.171875 0.1875l0.1875 -1.46875q0.15625 0.015625 0.265625 0.015625q1.0625 0 1.90625 -0.546875q0.859375 -0.5625 0.859375 -1.71875q0 -0.921875 -0.625 -1.515625q-0.609375 -0.609375 -1.59375 -0.609375q-0.96875 0 -1.625 0.609375q-0.640625 0.609375 -0.828125 1.84375l-1.671875 -0.296875q0.296875 -1.6875 1.375 -2.609375q1.09375 -0.921875 2.71875 -0.921875q1.109375 0 2.046875 0.484375q0.9375 0.46875 1.421875 1.296875q0.5 0.828125 0.5 1.75q0 0.890625 -0.46875 1.609375q-0.46875 0.71875 -1.40625 1.15625q1.21875 0.265625 1.875 1.15625q0.671875 0.875 0.671875 2.1875q0 1.78125 -1.296875 3.015625q-1.296875 1.234375 -3.28125 1.234375q-1.796875 0 -2.984375 -1.0625q-1.171875 -1.0625 -1.34375 -2.765625z" fill-rule="nonzero"></path><path fill="#000000" fill-opacity="0.0" d="m528.126 183.77953l-0.25195312 32.220474" fill-rule="nonzero"></path><path stroke="#000000" stroke-width="1.0" stroke-linejoin="round" stroke-linecap="butt" d="m528.126 183.77953l-0.20501709 26.220657" fill-rule="evenodd"></path><path fill="#000000" stroke="#000000" stroke-width="1.0" stroke-linecap="butt" d="m526.2692 209.98727l1.6162109 4.550873l1.6871948 -4.5250397z" fill-rule="evenodd"></path><path fill="#000000" fill-opacity="0.0" d="m448.12598 375.77954l-0.25195312 32.22046" fill-rule="nonzero"></path><path stroke="#666666" stroke-width="1.0" stroke-linejoin="round" stroke-linecap="butt" d="m448.12598 375.77954l-0.2050476 26.220612" fill-rule="evenodd"></path><path fill="#666666" stroke="#666666" stroke-width="1.0" stroke-linecap="butt" d="m446.26926 401.98727l1.6161804 4.550873l1.6871948 -4.525055z" fill-rule="evenodd"></path><path fill="#000000" fill-opacity="0.0" d="m447.87402 479.77954l0 24.0" fill-rule="nonzero"></path><path stroke="#666666" stroke-width="1.0" stroke-linejoin="round" stroke-linecap="butt" d="m447.87402 479.77954l0 18.0" fill-rule="evenodd"></path><path fill="#666666" stroke="#666666" stroke-width="1.0" stroke-linecap="butt" d="m446.2223 497.77954l1.6517334 4.538086l1.6517334 -4.538086z" fill-rule="evenodd"></path><path fill="#d9ead3" d="m488.25198 251.88977l0 0c0 -19.82138 17.852203 -35.88977 39.873993 -35.88977l0 0c22.02179 0 39.874023 16.06839 39.874023 35.88977l0 0c0 19.82135 -17.852234 35.88977 -39.874023 35.88977l0 0c-22.02179 0 -39.873993 -16.06842 -39.873993 -35.88977z" fill-rule="nonzero"></path><path fill="#000000" d="m523.60254 258.05383l3.59375 -5.125l-3.328125 -4.734375l2.09375 0l1.515625 2.3125q0.421875 0.65625 0.671875 1.109375q0.421875 -0.609375 0.765625 -1.09375l1.65625 -2.328125l1.984375 0l-3.390625 4.640625l3.65625 5.21875l-2.046875 0l-2.03125 -3.0625l-0.53125 -0.828125l-2.59375 3.890625l-2.015625 0z" fill-rule="nonzero"></path><path fill="#d9ead3" d="m336.0 251.88977l0 0c0 -19.82138 17.852203 -35.88977 39.874023 -35.88977l0 0c22.02179 0 39.873993 16.06839 39.873993 35.88977l0 0c0 19.82135 -17.852203 35.88977 -39.873993 35.88977l0 0c-22.02182 0 -39.874023 -16.06842 -39.874023 -35.88977z" fill-rule="nonzero"></path><path fill="#000000" d="m371.3506 258.05383l3.59375 -5.125l-3.328125 -4.734375l2.09375 0l1.515625 2.3125q0.421875 0.65625 0.671875 1.109375q0.421875 -0.609375 0.765625 -1.09375l1.65625 -2.328125l1.984375 0l-3.390625 4.640625l3.65625 5.21875l-2.046875 0l-2.03125 -3.0625l-0.53125 -0.828125l-2.59375 3.890625l-2.015625 0z" fill-rule="nonzero"></path><path fill="#d9ead3" d="m408.12598 347.88977l0 0c0 -19.82138 17.852203 -35.88977 39.874023 -35.88977l0 0c22.02182 0 39.874023 16.06839 39.874023 35.88977l0 0c0 19.82135 -17.852203 35.88977 -39.874023 35.88977l0 0c-22.02182 0 -39.874023 -16.06842 -39.874023 -35.88977z" fill-rule="nonzero"></path><path fill="#000000" d="m447.31815 351.8507l0 -3.71875l-3.703125 0l0 -1.5625l3.703125 0l0 -3.703125l1.578125 0l0 3.703125l3.6875 0l0 1.5625l-3.6875 0l0 3.71875l-1.578125 0z" fill-rule="nonzero"></path><path fill="#000000" fill-opacity="0.0" d="m304.12598 87.779526l-52.056778 138.73235" fill-rule="nonzero"></path><path stroke="#666666" stroke-width="1.0" stroke-linejoin="round" stroke-linecap="butt" d="m304.12598 87.779526l-49.9489 133.11479" fill-rule="evenodd"></path><path fill="#666666" stroke="#666666" stroke-width="1.0" stroke-linecap="butt" d="m252.63065 220.31406l-0.047851562 4.8291016l3.140747 -3.6685486z" fill-rule="evenodd"></path></g></svg>

