<?xml version="1.0" standalone="yes"?>

<svg version="1.1" viewBox="0.0 0.0 545.0 466.0" fill="none" stroke="none" stroke-linecap="square" stroke-miterlimit="10" xmlns="http://www.w3.org/2000/svg" xmlns:xlink="http://www.w3.org/1999/xlink"><clipPath id="p.0"><path d="m0 0l545.0 0l0 466.0l-545.0 0l0 -466.0z" clip-rule="nonzero"></path></clipPath><g clip-path="url(#p.0)"><path fill="#000000" fill-opacity="0.0" d="m0 0l545.8845 0l0 466.0735l-545.8845 0z" fill-rule="nonzero"></path><path fill="#000000" fill-opacity="0.0" d="m170.51987 82.26739l49.637085 30.258415" fill-rule="nonzero"></path><path stroke="#000000" stroke-width="1.0" stroke-linejoin="round" stroke-linecap="butt" d="m170.51987 82.26739l44.51393 27.135384" fill-rule="evenodd"></path><path fill="#000000" stroke="#000000" stroke-width="1.0" stroke-linecap="butt" d="m214.17406 110.81312l4.7346344 0.95175934l-3.015152 -3.7724533z" fill-rule="evenodd"></path><path fill="#000000" fill-opacity="0.0" d="m181.24478 69.85851c-7.460266 8.474266 -39.022934 28.030266 -44.761597 50.845596c-5.7386627 22.81533 8.608002 71.70533 10.329605 86.046394" fill-rule="nonzero"></path><path stroke="#000000" stroke-width="1.0" stroke-linejoin="round" stroke-linecap="butt" d="m181.2448 69.858505c-7.460266 8.474274 -39.022934 28.030273 -44.761612 50.845604c-2.8693237 11.407661 -0.71733093 29.334007 2.3672028 46.201057c1.5422668 8.433517 3.3176575 16.602234 4.815094 23.558868c0.74871826 3.4783173 1.427948 6.6536255 1.9737854 9.407501l0.1880951 0.9604492" fill-rule="evenodd"></path><path fill="#000000" stroke="#000000" stroke-width="1.0" stroke-linecap="butt" d="m144.19806 201.10327l2.3746338 4.205185l0.8839569 -4.7477417z" fill-rule="evenodd"></path><path fill="#000000" fill-opacity="0.0" d="m15.6083355 86.54474l279.24408 -0.7873993" fill-rule="nonzero"></path><path stroke="#434343" stroke-width="1.0" stroke-linejoin="round" stroke-linecap="butt" stroke-dasharray="4.0,3.0" d="m15.6083355 86.54474l279.24408 -0.7873993" fill-rule="nonzero"></path><path fill="#000000" fill-opacity="0.0" d="m15.6083355 179.27957l278.61417 0" fill-rule="nonzero"></path><path stroke="#434343" stroke-width="1.0" stroke-linejoin="round" stroke-linecap="butt" stroke-dasharray="4.0,3.0" d="m15.6083355 179.27957l278.61417 0" fill-rule="nonzero"></path><path fill="#000000" fill-opacity="0.0" d="m25.866323 365.51047l264.56693 0" fill-rule="nonzero"></path><path stroke="#434343" stroke-width="1.0" stroke-linejoin="round" stroke-linecap="butt" stroke-dasharray="4.0,3.0" d="m25.866323 365.51047l264.56693 0" fill-rule="nonzero"></path><path fill="#d9ead3" d="m135.0553 318.87402l0 0c0 -17.673096 15.8780365 -32.0 35.46457 -32.0l0 0c19.586533 0 35.46457 14.326904 35.46457 32.0l0 0c0 17.673126 -15.8780365 32.0 -35.46457 32.0l0 0c-19.586533 0 -35.46457 -14.326874 -35.46457 -32.0z" fill-rule="nonzero"></path><path fill="#d9ead3" d="m165.40033 308.14746l10.239075 0l0 21.453125l-10.239075 0l0 -21.453125z" fill-rule="nonzero"></path><path fill="#333333" d="m175.1347 307.69434l0.6875 0l-2.890625 18.0625l-4.59375 -9.46875l-1.84375 0.84375l-0.3125 -0.59375l2.796875 -1.40625l3.75 7.640625l2.40625 -15.078125z" fill-rule="nonzero"></path><path fill="#cccccc" d="m135.05414 412.1425l0 0c0 -17.673126 15.878021 -32.0 35.464554 -32.0l0 0c19.586548 0 35.46457 14.326874 35.46457 32.0l0 0c0 17.673096 -15.878021 32.0 -35.46457 32.0l0 0c-19.586533 0 -35.464554 -14.326904 -35.464554 -32.0z" fill-rule="nonzero"></path><path fill="#000000" d="m165.28223 418.30655l0 -13.59375l6.03125 0q1.8125 0 2.75 0.359375q0.953125 0.359375 1.515625 1.296875q0.5625 0.921875 0.5625 2.046875q0 1.453125 -0.9375 2.453125q-0.921875 0.984375 -2.890625 1.25q0.71875 0.34375 1.09375 0.671875q0.78125 0.734375 1.484375 1.8125l2.375 3.703125l-2.265625 0l-1.796875 -2.828125q-0.796875 -1.21875 -1.3125 -1.875q-0.5 -0.65625 -0.90625 -0.90625q-0.40625 -0.265625 -0.8125 -0.359375q-0.3125 -0.078125 -1.015625 -0.078125l-2.078125 0l0 6.046875l-1.796875 0zm1.796875 -7.59375l3.859375 0q1.234375 0 1.921875 -0.25q0.703125 -0.265625 1.0625 -0.828125q0.375 -0.5625 0.375 -1.21875q0 -0.96875 -0.703125 -1.578125q-0.703125 -0.625 -2.21875 -0.625l-4.296875 0l0 4.5z" fill-rule="nonzero"></path><path fill="#fff2cc" d="m184.69238 144.5258l0 0c0 -17.673111 15.878021 -32.0 35.46457 -32.0l0 0c19.586533 0 35.46457 14.326889 35.46457 32.0l0 0c0 17.673111 -15.8780365 32.0 -35.46457 32.0l0 0c-19.586548 0 -35.46457 -14.326889 -35.46457 -32.0z" fill-rule="nonzero"></path><path fill="#000000" d="m212.47212 146.61174l0 -1.6875l5.125 0l0 1.6875l-5.125 0zm12.681427 4.078125l-1.671875 0l0 -10.640625q-0.59375 0.578125 -1.578125 1.15625q-0.984375 0.5625 -1.765625 0.859375l0 -1.625q1.40625 -0.65625 2.453125 -1.59375q1.046875 -0.9375 1.484375 -1.8125l1.078125 0l0 13.65625z" fill-rule="nonzero"></path><path fill="#cccccc" d="m135.0553 50.267387l0 0c0 -17.673115 15.8780365 -32.0 35.46457 -32.0l0 0c19.586533 0 35.46457 14.326887 35.46457 32.0l0 0c0 17.673111 -15.8780365 32.0 -35.46457 32.0l0 0c-19.586533 0 -35.46457 -14.326889 -35.46457 -32.0z" fill-rule="nonzero"></path><path fill="#000000" d="m164.26683 56.43145l5.234375 -13.59375l1.9375 0l5.5625 13.59375l-2.046875 0l-1.59375 -4.125l-5.6875 0l-1.484375 4.125l-1.921875 0zm3.921875 -5.578125l4.609375 0l-1.40625 -3.78125q-0.65625 -1.703125 -0.96875 -2.8125q-0.265625 1.3125 -0.734375 2.59375l-1.5 4.0z" fill-rule="nonzero"></path><path fill="#000000" fill-opacity="0.0" d="m220.15695 176.5258l-24.559845 31.023117" fill-rule="nonzero"></path><path stroke="#000000" stroke-width="1.0" stroke-linejoin="round" stroke-linecap="butt" d="m220.15695 176.5258l-20.835648 26.318832" fill-rule="evenodd"></path><path fill="#000000" stroke="#000000" stroke-width="1.0" stroke-linecap="butt" d="m198.02626 201.81941l-1.521759 4.583313l4.1118317 -2.5328522z" fill-rule="evenodd"></path><path fill="#000000" fill-opacity="0.0" d="m170.51987 262.17633l0 24.697693" fill-rule="nonzero"></path><path stroke="#000000" stroke-width="1.0" stroke-linejoin="round" stroke-linecap="butt" d="m170.51987 262.17633l0 18.697693" fill-rule="evenodd"></path><path fill="#000000" stroke="#000000" stroke-width="1.0" stroke-linecap="butt" d="m168.86813 280.87402l1.6517334 4.5381165l1.6517334 -4.5381165z" fill-rule="evenodd"></path><path fill="#000000" fill-opacity="0.0" d="m170.51987 350.87402l-0.0011749268 29.268463" fill-rule="nonzero"></path><path stroke="#000000" stroke-width="1.0" stroke-linejoin="round" stroke-linecap="butt" d="m170.51987 350.87402l-9.3078613E-4 23.268433" fill-rule="evenodd"></path><path fill="#000000" stroke="#000000" stroke-width="1.0" stroke-linecap="butt" d="m168.8672 374.1424l1.6515503 4.5381775l1.6519165 -4.538025z" fill-rule="evenodd"></path><path fill="#d9ead3" d="m135.0553 230.17635l0 0c0 -17.673126 15.8780365 -32.0 35.46457 -32.0l0 0c19.586533 0 35.46457 14.326874 35.46457 32.0l0 0c0 17.673111 -15.8780365 31.999985 -35.46457 31.999985l0 0c-19.586533 0 -35.46457 -14.326874 -35.46457 -31.999985z" fill-rule="nonzero"></path><path fill="#000000" d="m165.99643 236.3404l3.59375 -5.125l-3.328125 -4.734375l2.09375 0l1.515625 2.3125q0.421875 0.65625 0.671875 1.109375q0.421875 -0.609375 0.765625 -1.09375l1.65625 -2.328125l1.984375 0l-3.390625 4.640625l3.65625 5.21875l-2.046875 0l-2.03125 -3.0625l-0.53125 -0.828125l-2.59375 3.890625l-2.015625 0z" fill-rule="nonzero"></path><path fill="#000000" fill-opacity="0.0" d="m15.6083355 37.477146l64.031494 0l0 42.80315l-64.031494 0z" fill-rule="nonzero"></path><path fill="#000000" d="m26.37396 63.36777l0 -13.59375l1.8125 0l0 13.59375l-1.8125 0zm4.667679 0l0 -9.859375l1.5000019 0l0 1.40625q1.09375 -1.625 3.140625 -1.625q0.890625 0 1.640625 0.328125q0.75 0.3125 1.109375 0.84375q0.375 0.515625 0.53125 1.21875q0.09375 0.46875 0.09375 1.625l0 6.0625l-1.671875 0l0 -6.0q0 -1.015625 -0.203125 -1.515625q-0.1875 -0.515625 -0.6875 -0.8125q-0.5 -0.296875 -1.171875 -0.296875q-1.0625 0 -1.84375 0.671875q-0.765625 0.671875 -0.765625 2.578125l0 5.375l-1.6718769 0zm10.375719 3.7812538l0 -13.640629l1.53125 0l0 1.28125q0.53125 -0.75 1.203125 -1.125q0.6875 -0.375 1.640625 -0.375q1.265625 0 2.234375 0.65625q0.96875 0.640625 1.453125 1.828125q0.5 1.1875 0.5 2.59375q0 1.515625 -0.546875 2.734375q-0.546875 1.203125 -1.578125 1.84375q-1.03125 0.640625 -2.171875 0.640625q-0.84375 0 -1.515625 -0.34375q-0.65625 -0.359375 -1.078125 -0.890625l0 4.796879l-1.671875 0zm1.515625 -8.656254q0 1.90625 0.765625 2.8125q0.78125 0.90625 1.875 0.90625q1.109375 0 1.890625 -0.9375q0.796875 -0.9375 0.796875 -2.921875q0 -1.875 -0.78125 -2.8125q-0.765625 -0.9375 -1.84375 -0.9375q-1.0625 0 -1.890625 1.0q-0.8125 1.0 -0.8125 2.890625zm15.313217 4.875l0 -1.453125q-1.140625 1.671875 -3.125 1.671875q-0.859375 0 -1.625 -0.328125q-0.75 -0.34375 -1.125 -0.84375q-0.359375 -0.5 -0.515625 -1.234375q-0.09375 -0.5 -0.09375 -1.5625l0 -6.109375l1.671875 0l0 5.46875q0 1.3125 0.09375 1.765625q0.15625 0.65625 0.671875 1.03125q0.515625 0.375 1.265625 0.375q0.75 0 1.40625 -0.375q0.65625 -0.390625 0.921875 -1.046875q0.28125 -0.671875 0.28125 -1.9375l0 -5.28125l1.671875 0l0 9.859375l-1.5 0zm7.578842 -1.5l0.234375 1.484375q-0.703125 0.140625 -1.265625 0.140625q-0.90625 0 -1.40625 -0.28125q-0.5 -0.296875 -0.703125 -0.75q-0.203125 -0.46875 -0.203125 -1.984375l0 -5.65625l-1.234375 0l0 -1.3125l1.234375 0l0 -2.4375l1.65625 -1.0l0 3.4375l1.6875 0l0 1.3125l-1.6875 0l0 5.75q0 0.71875 0.078125 0.921875q0.09375 0.203125 0.296875 0.328125q0.203125 0.125 0.578125 0.125q0.265625 0 0.734375 -0.078125z" fill-rule="nonzero"></path><path fill="#000000" fill-opacity="0.0" d="m12.657472 136.45493l85.385826 0l0 42.803146l-85.385826 0z" fill-rule="nonzero"></path><path fill="#000000" d="m22.579348 155.72055q0 -3.390625 1.8125 -5.296875q1.828125 -1.921875 4.703125 -1.921875q1.875 0 3.390623 0.90625q1.515625 0.890625 2.296875 2.5q0.796875 1.609375 0.796875 3.65625q0 2.0625 -0.84375 3.703125q-0.828125 1.625 -2.359375 2.46875q-1.5312481 0.84375 -3.296873 0.84375q-1.921875 0 -3.4375 -0.921875q-1.5 -0.9375 -2.28125 -2.53125q-0.78125 -1.609375 -0.78125 -3.40625zm1.859375 0.03125q0 2.453125 1.3125 3.875q1.328125 1.40625 3.3125 1.40625q2.03125 0 3.343748 -1.421875q1.3125 -1.4375 1.3125 -4.0625q0 -1.65625 -0.5625 -2.890625q-0.546875 -1.234375 -1.6406231 -1.921875q-1.078125 -0.6875 -2.421875 -0.6875q-1.90625 0 -3.28125 1.3125q-1.375 1.3125 -1.375 4.390625zm13.386427 6.59375l0 -8.546875l-1.484375 0l0 -1.3125l1.484375 0l0 -1.046875q0 -0.984375 0.171875 -1.46875q0.234375 -0.65625 0.84375 -1.046875q0.609375 -0.40625 1.703125 -0.40625q0.703125 0 1.5625 0.15625l-0.25 1.46875q-0.515625 -0.09375 -0.984375 -0.09375q-0.765625 0 -1.078125 0.328125q-0.3125 0.3125 -0.3125 1.203125l0 0.90625l1.921875 0l0 1.3125l-1.921875 0l0 8.546875l-1.65625 0zm5.183304 0l0 -8.546875l-1.484375 0l0 -1.3125l1.484375 0l0 -1.046875q0 -0.984375 0.171875 -1.46875q0.234375 -0.65625 0.84375 -1.046875q0.609375 -0.40625 1.703125 -0.40625q0.703125 0 1.5625 0.15625l-0.25 1.46875q-0.515625 -0.09375 -0.984375 -0.09375q-0.765625 0 -1.078125 0.328125q-0.3125 0.3125 -0.3125 1.203125l0 0.90625l1.921875 0l0 1.3125l-1.921875 0l0 8.546875l-1.65625 0zm4.105179 -2.9375l1.65625 -0.265625q0.140625 1.0 0.765625 1.53125q0.640625 0.515625 1.78125 0.515625q1.15625 0 1.703125 -0.46875q0.5625 -0.46875 0.5625 -1.09375q0 -0.5625 -0.484375 -0.890625q-0.34375 -0.21875 -1.703125 -0.5625q-1.84375 -0.46875 -2.5625 -0.796875q-0.703125 -0.34375 -1.078125 -0.9375q-0.359375 -0.609375 -0.359375 -1.328125q0 -0.65625 0.296875 -1.21875q0.3125 -0.5625 0.828125 -0.9375q0.390625 -0.28125 1.0625 -0.484375q0.671875 -0.203125 1.4375 -0.203125q1.171875 0 2.046875 0.34375q0.875 0.328125 1.28125 0.90625q0.421875 0.5625 0.578125 1.515625l-1.625 0.21875q-0.109375 -0.75 -0.65625 -1.171875q-0.53125 -0.4375 -1.5 -0.4375q-1.15625 0 -1.640625 0.390625q-0.484375 0.375 -0.484375 0.875q0 0.328125 0.203125 0.59375q0.203125 0.265625 0.640625 0.4375q0.25 0.09375 1.46875 0.4375q1.765625 0.46875 2.46875 0.765625q0.703125 0.296875 1.09375 0.875q0.40625 0.578125 0.40625 1.4375q0 0.828125 -0.484375 1.578125q-0.484375 0.734375 -1.40625 1.140625q-0.921875 0.390625 -2.078125 0.390625q-1.921875 0 -2.9375 -0.796875q-1.0 -0.796875 -1.28125 -2.359375zm16.75 -0.234375l1.71875 0.21875q-0.40625 1.5 -1.515625 2.34375q-1.09375 0.828125 -2.8125 0.828125q-2.15625 0 -3.421875 -1.328125q-1.265625 -1.328125 -1.265625 -3.734375q0 -2.484375 1.265625 -3.859375q1.28125 -1.375 3.328125 -1.375q1.984375 0 3.234375 1.34375q1.25 1.34375 1.25 3.796875q0 0.140625 -0.015625 0.4375l-7.34375 0q0.09375 1.625 0.921875 2.484375q0.828125 0.859375 2.0625 0.859375q0.90625 0 1.546875 -0.46875q0.65625 -0.484375 1.046875 -1.546875zm-5.484375 -2.703125l5.5 0q-0.109375 -1.234375 -0.625 -1.859375q-0.796875 -0.96875 -2.078125 -0.96875q-1.140625 0 -1.9375 0.78125q-0.78125 0.765625 -0.859375 2.046875zm12.766342 4.375l0.234375 1.484375q-0.703125 0.140625 -1.265625 0.140625q-0.90625 0 -1.40625 -0.28125q-0.5 -0.296875 -0.703125 -0.75q-0.203125 -0.46875 -0.203125 -1.984375l0 -5.65625l-1.234375 0l0 -1.3125l1.234375 0l0 -2.4375l1.65625 -1.0l0 3.4375l1.6875 0l0 1.3125l-1.6875 0l0 5.75q0 0.71875 0.078125 0.921875q0.09375 0.203125 0.296875 0.328125q0.203125 0.125 0.578125 0.125q0.265625 0 0.734375 -0.078125zm0.85517883 -1.4375l1.65625 -0.265625q0.140625 1.0 0.765625 1.53125q0.640625 0.515625 1.78125 0.515625q1.15625 0 1.703125 -0.46875q0.5625 -0.46875 0.5625 -1.09375q0 -0.5625 -0.484375 -0.890625q-0.34375 -0.21875 -1.703125 -0.5625q-1.84375 -0.46875 -2.5625 -0.796875q-0.703125 -0.34375 -1.078125 -0.9375q-0.359375 -0.609375 -0.359375 -1.328125q0 -0.65625 0.296875 -1.21875q0.3125 -0.5625 0.828125 -0.9375q0.390625 -0.28125 1.0625 -0.484375q0.671875 -0.203125 1.4375 -0.203125q1.171875 0 2.046875 0.34375q0.875 0.328125 1.28125 0.90625q0.421875 0.5625 0.578125 1.515625l-1.625 0.21875q-0.109375 -0.75 -0.65625 -1.171875q-0.53125 -0.4375 -1.5 -0.4375q-1.15625 0 -1.640625 0.390625q-0.484375 0.375 -0.484375 0.875q0 0.328125 0.203125 0.59375q0.203125 0.265625 0.640625 0.4375q0.25 0.09375 1.46875 0.4375q1.765625 0.46875 2.46875 0.765625q0.703125 0.296875 1.09375 0.875q0.40625 0.578125 0.40625 1.4375q0 0.828125 -0.484375 1.578125q-0.484375 0.734375 -1.40625 1.140625q-0.921875 0.390625 -2.078125 0.390625q-1.921875 0 -2.9375 -0.796875q-1.0 -0.796875 -1.28125 -2.359375z" fill-rule="nonzero"></path><path fill="#000000" fill-opacity="0.0" d="m12.656166 245.62073l136.44095 0l0 42.80316l-136.44095 0z" fill-rule="nonzero"></path><path fill="#000000" d="m32.82804 266.74573l1.796875 0.453125q-0.5625 2.21875 -2.03125 3.390625q-1.46875 1.15625 -3.59375 1.15625q-2.203125 0 -3.578125 -0.890625q-1.375 -0.90625 -2.09375 -2.59375q-0.71875 -1.703125 -0.71875 -3.65625q0 -2.125 0.796875 -3.703125q0.8125 -1.578125 2.3125 -2.390625q1.5 -0.828125 3.296875 -0.828125q2.046875 0 3.4375 1.046875q1.390625 1.03125 1.9375 2.90625l-1.765625 0.421875q-0.46875 -1.484375 -1.375 -2.15625q-0.90625 -0.6875 -2.265625 -0.6875q-1.5625 0 -2.625 0.75q-1.046875 0.75 -1.484375 2.03125q-0.421875 1.265625 -0.421875 2.609375q0 1.734375 0.5 3.03125q0.515625 1.28125 1.578125 1.921875q1.078125 0.640625 2.3125 0.640625q1.515625 0 2.5625 -0.859375q1.046875 -0.875 1.421875 -2.59375zm2.9260712 -0.15625q0 -2.734375 1.53125 -4.0625q1.265625 -1.09375 3.09375 -1.09375q2.03125 0 3.3125 1.34375q1.296875 1.328125 1.296875 3.671875q0 1.90625 -0.578125 3.0q-0.5625 1.078125 -1.65625 1.6875q-1.078125 0.59375 -2.375 0.59375q-2.0625 0 -3.34375 -1.328125q-1.28125 -1.328125 -1.28125 -3.8125zm1.71875 0q0 1.890625 0.828125 2.828125q0.828125 0.9375 2.078125 0.9375q1.25 0 2.0625 -0.9375q0.828125 -0.953125 0.828125 -2.890625q0 -1.828125 -0.828125 -2.765625q-0.828125 -0.9375 -2.0625 -0.9375q-1.25 0 -2.078125 0.9375q-0.828125 0.9375 -0.828125 2.828125zm9.281967 4.921875l0 -9.859375l1.5 0l0 1.390625q0.453125 -0.71875 1.21875 -1.15625q0.78125 -0.453125 1.765625 -0.453125q1.09375 0 1.796875 0.453125q0.703125 0.453125 0.984375 1.28125q1.171875 -1.734375 3.046875 -1.734375q1.46875 0 2.25 0.8125q0.796875 0.8125 0.796875 2.5l0 6.765625l-1.671875 0l0 -6.203125q0 -1.0 -0.15625 -1.4375q-0.15625 -0.453125 -0.59375 -0.71875q-0.421875 -0.265625 -1.0 -0.265625q-1.03125 0 -1.71875 0.6875q-0.6875 0.6875 -0.6875 2.21875l0 5.71875l-1.671875 0l0 -6.40625q0 -1.109375 -0.40625 -1.65625q-0.40625 -0.5625 -1.34375 -0.5625q-0.703125 0 -1.3125 0.375q-0.59375 0.359375 -0.859375 1.078125q-0.265625 0.71875 -0.265625 2.0625l0 5.109375l-1.671875 0zm15.540802 3.78125l0 -13.640625l1.53125 0l0 1.28125q0.53125 -0.75 1.203125 -1.125q0.6875 -0.375 1.640625 -0.375q1.265625 0 2.234375 0.65625q0.96875 0.640625 1.453125 1.828125q0.5 1.1875 0.5 2.59375q0 1.515625 -0.546875 2.734375q-0.546875 1.203125 -1.578125 1.84375q-1.03125 0.640625 -2.171875 0.640625q-0.84375 0 -1.515625 -0.34375q-0.65625 -0.359375 -1.078125 -0.890625l0 4.796875l-1.671875 0zm1.515625 -8.65625q0 1.90625 0.765625 2.8125q0.78125 0.90625 1.875 0.90625q1.109375 0 1.890625 -0.9375q0.796875 -0.9375 0.796875 -2.921875q0 -1.875 -0.78125 -2.8125q-0.765625 -0.9375 -1.84375 -0.9375q-1.0625 0 -1.890625 1.0q-0.8125 1.0 -0.8125 2.890625zm15.313217 4.875l0 -1.453125q-1.140625 1.671875 -3.125 1.671875q-0.859375 0 -1.625 -0.328125q-0.75 -0.34375 -1.125 -0.84375q-0.359375 -0.5 -0.515625 -1.234375q-0.09375 -0.5 -0.09375 -1.5625l0 -6.109375l1.671875 0l0 5.46875q0 1.3125 0.09375 1.765625q0.15625 0.65625 0.671875 1.03125q0.515625 0.375 1.265625 0.375q0.75 0 1.40625 -0.375q0.65625 -0.390625 0.921875 -1.046875q0.28125 -0.671875 0.28125 -1.9375l0 -5.28125l1.671875 0l0 9.859375l-1.5 0zm7.578842 -1.5l0.234375 1.484375q-0.703125 0.140625 -1.265625 0.140625q-0.90625 0 -1.40625 -0.28125q-0.5 -0.296875 -0.703125 -0.75q-0.203125 -0.46875 -0.203125 -1.984375l0 -5.65625l-1.234375 0l0 -1.3125l1.234375 0l0 -2.4375l1.65625 -1.0l0 3.4375l1.6875 0l0 1.3125l-1.6875 0l0 5.75q0 0.71875 0.078125 0.921875q0.09375 0.203125 0.296875 0.328125q0.203125 0.125 0.578125 0.125q0.265625 0 0.734375 -0.078125zm7.964554 0.28125q-0.9375 0.796875 -1.796875 1.125q-0.859375 0.3125 -1.84375 0.3125q-1.609375 0 -2.484375 -0.78125q-0.875 -0.796875 -0.875 -2.03125q0 -0.734375 0.328125 -1.328125q0.328125 -0.59375 0.859375 -0.953125q0.53125 -0.359375 1.203125 -0.546875q0.5 -0.140625 1.484375 -0.25q2.03125 -0.25 2.984375 -0.578125q0 -0.34375 0 -0.4375q0 -1.015625 -0.46875 -1.4375q-0.640625 -0.5625 -1.90625 -0.5625q-1.171875 0 -1.734375 0.40625q-0.5625 0.40625 -0.828125 1.46875l-1.640625 -0.234375q0.234375 -1.046875 0.734375 -1.6875q0.515625 -0.640625 1.46875 -0.984375q0.96875 -0.359375 2.25 -0.359375q1.265625 0 2.046875 0.296875q0.78125 0.296875 1.15625 0.75q0.375 0.453125 0.515625 1.140625q0.09375 0.421875 0.09375 1.53125l0 2.234375q0 2.328125 0.09375 2.953125q0.109375 0.609375 0.4375 1.171875l-1.75 0q-0.265625 -0.515625 -0.328125 -1.21875zm-0.140625 -3.71875q-0.90625 0.359375 -2.734375 0.625q-1.03125 0.140625 -1.453125 0.328125q-0.421875 0.1875 -0.65625 0.546875q-0.234375 0.359375 -0.234375 0.796875q0 0.671875 0.5 1.125q0.515625 0.4375 1.484375 0.4375q0.96875 0 1.71875 -0.421875q0.75 -0.4375 1.109375 -1.15625q0.265625 -0.578125 0.265625 -1.671875l0 -0.609375zm7.735092 3.4375l0.234375 1.484375q-0.703125 0.140625 -1.265625 0.140625q-0.90625 0 -1.40625 -0.28125q-0.5 -0.296875 -0.703125 -0.75q-0.203125 -0.46875 -0.203125 -1.984375l0 -5.65625l-1.234375 0l0 -1.3125l1.234375 0l0 -2.4375l1.65625 -1.0l0 3.4375l1.6875 0l0 1.3125l-1.6875 0l0 5.75q0 0.71875 0.078125 0.921875q0.09375 0.203125 0.296875 0.328125q0.203125 0.125 0.578125 0.125q0.265625 0 0.734375 -0.078125zm1.5426788 -10.1875l0 -1.90625l1.671875 0l0 1.90625l-1.671875 0zm0 11.6875l0 -9.859375l1.671875 0l0 9.859375l-1.671875 0zm3.5041962 -4.921875q0 -2.734375 1.53125 -4.0625q1.265625 -1.09375 3.09375 -1.09375q2.03125 0 3.3125 1.34375q1.296875 1.328125 1.296875 3.671875q0 1.90625 -0.578125 3.0q-0.5625 1.078125 -1.65625 1.6875q-1.078125 0.59375 -2.375 0.59375q-2.0625 0 -3.34375 -1.328125q-1.28125 -1.328125 -1.28125 -3.8125zm1.71875 0q0 1.890625 0.828125 2.828125q0.828125 0.9375 2.078125 0.9375q1.25 0 2.0625 -0.9375q0.828125 -0.953125 0.828125 -2.890625q0 -1.828125 -0.828125 -2.765625q-0.828125 -0.9375 -2.0625 -0.9375q-1.25 0 -2.078125 0.9375q-0.828125 0.9375 -0.828125 2.828125zm9.281967 4.921875l0 -9.859375l1.5 0l0 1.40625q1.09375 -1.625 3.140625 -1.625q0.890625 0 1.640625 0.328125q0.75 0.3125 1.109375 0.84375q0.375 0.515625 0.53125 1.21875q0.09375 0.46875 0.09375 1.625l0 6.0625l-1.671875 0l0 -6.0q0 -1.015625 -0.203125 -1.515625q-0.1875 -0.515625 -0.6875 -0.8125q-0.5 -0.296875 -1.171875 -0.296875q-1.0625 0 -1.84375 0.671875q-0.765625 0.671875 -0.765625 2.578125l0 5.375l-1.671875 0z" fill-rule="nonzero"></path><path fill="#000000" fill-opacity="0.0" d="m22.22589 373.07086l95.779526 0l0 42.80316l-95.779526 0z" fill-rule="nonzero"></path><path fill="#000000" d="m32.147766 392.3365q0 -3.390625 1.8125 -5.296875q1.828125 -1.921875 4.703125 -1.921875q1.875 0 3.390625 0.90625q1.515625 0.890625 2.296875 2.5q0.796875 1.609375 0.796875 3.65625q0 2.0625 -0.84375 3.703125q-0.828125 1.625 -2.359375 2.46875q-1.53125 0.84375 -3.296875 0.84375q-1.921875 0 -3.4375 -0.921875q-1.5 -0.9375 -2.28125 -2.53125q-0.78125 -1.609375 -0.78125 -3.40625zm1.859375 0.03125q0 2.453125 1.3125 3.875q1.328125 1.40625 3.3125 1.40625q2.03125 0 3.34375 -1.421875q1.3125 -1.4375 1.3125 -4.0625q0 -1.65625 -0.5625 -2.890625q-0.546875 -1.234375 -1.640625 -1.921875q-1.078125 -0.6875 -2.421875 -0.6875q-1.90625 0 -3.28125 1.3125q-1.375 1.3125 -1.375 4.390625zm19.433304 6.59375l0 -1.453125q-1.140625 1.671875 -3.125 1.671875q-0.859375 0 -1.625 -0.328125q-0.75 -0.34375 -1.125 -0.84375q-0.359375 -0.5 -0.515625 -1.234375q-0.09375 -0.5 -0.09375 -1.5625l0 -6.109375l1.671875 0l0 5.46875q0 1.3125 0.09375 1.765625q0.15625 0.65625 0.671875 1.03125q0.515625 0.375 1.265625 0.375q0.75 0 1.40625 -0.375q0.65625 -0.390625 0.921875 -1.046875q0.28125 -0.671875 0.28125 -1.9375l0 -5.28125l1.671875 0l0 9.859375l-1.5 0zm7.578842 -1.5l0.234375 1.484375q-0.703125 0.140625 -1.265625 0.140625q-0.90625 0 -1.40625 -0.28125q-0.5 -0.296875 -0.703125 -0.75q-0.203125 -0.46875 -0.203125 -1.984375l0 -5.65625l-1.234375 0l0 -1.3125l1.234375 0l0 -2.4375l1.65625 -1.0l0 3.4375l1.6875 0l0 1.3125l-1.6875 0l0 5.75q0 0.71875 0.078125 0.921875q0.09375 0.203125 0.296875 0.328125q0.203125 0.125 0.578125 0.125q0.265625 0 0.734375 -0.078125zm1.5270538 5.28125l0 -13.640625l1.53125 0l0 1.28125q0.53125 -0.75 1.203125 -1.125q0.6875 -0.375 1.640625 -0.375q1.265625 0 2.234375 0.65625q0.96875 0.640625 1.453125 1.828125q0.5 1.1875 0.5 2.59375q0 1.515625 -0.546875 2.734375q-0.546875 1.203125 -1.578125 1.84375q-1.03125 0.640625 -2.171875 0.640625q-0.84375 0 -1.515625 -0.34375q-0.65625 -0.359375 -1.078125 -0.890625l0 4.796875l-1.671875 0zm1.515625 -8.65625q0 1.90625 0.765625 2.8125q0.78125 0.90625 1.875 0.90625q1.109375 0 1.890625 -0.9375q0.796875 -0.9375 0.796875 -2.921875q0 -1.875 -0.78125 -2.8125q-0.765625 -0.9375 -1.84375 -0.9375q-1.0625 0 -1.890625 1.0q-0.8125 1.0 -0.8125 2.890625zm15.313217 4.875l0 -1.453125q-1.140625 1.671875 -3.125 1.671875q-0.859375 0 -1.625 -0.328125q-0.75 -0.34375 -1.125 -0.84375q-0.359375 -0.5 -0.515625 -1.234375q-0.09375 -0.5 -0.09375 -1.5625l0 -6.109375l1.671875 0l0 5.46875q0 1.3125 0.09375 1.765625q0.15625 0.65625 0.671875 1.03125q0.515625 0.375 1.265625 0.375q0.75 0 1.40625 -0.375q0.65625 -0.390625 0.921875 -1.046875q0.28125 -0.671875 0.28125 -1.9375l0 -5.28125l1.671875 0l0 9.859375l-1.5 0zm7.578842 -1.5l0.234375 1.484375q-0.703125 0.140625 -1.265625 0.140625q-0.90625 0 -1.40625 -0.28125q-0.5 -0.296875 -0.703125 -0.75q-0.203125 -0.46875 -0.203125 -1.984375l0 -5.65625l-1.234375 0l0 -1.3125l1.234375 0l0 -2.4375l1.65625 -1.0l0 3.4375l1.6875 0l0 1.3125l-1.6875 0l0 5.75q0 0.71875 0.078125 0.921875q0.09375 0.203125 0.296875 0.328125q0.203125 0.125 0.578125 0.125q0.265625 0 0.734375 -0.078125zm0.85517883 -1.4375l1.65625 -0.265625q0.140625 1.0 0.765625 1.53125q0.640625 0.515625 1.78125 0.515625q1.15625 0 1.703125 -0.46875q0.5625 -0.46875 0.5625 -1.09375q0 -0.5625 -0.484375 -0.890625q-0.34375 -0.21875 -1.703125 -0.5625q-1.84375 -0.46875 -2.5625 -0.796875q-0.703125 -0.34375 -1.078125 -0.9375q-0.359375 -0.609375 -0.359375 -1.328125q0 -0.65625 0.296875 -1.21875q0.3125 -0.5625 0.828125 -0.9375q0.390625 -0.28125 1.0625 -0.484375q0.671875 -0.203125 1.4375 -0.203125q1.171875 0 2.046875 0.34375q0.875 0.328125 1.28125 0.90625q0.421875 0.5625 0.578125 1.515625l-1.625 0.21875q-0.109375 -0.75 -0.65625 -1.171875q-0.53125 -0.4375 -1.5 -0.4375q-1.15625 0 -1.640625 0.390625q-0.484375 0.375 -0.484375 0.875q0 0.328125 0.203125 0.59375q0.203125 0.265625 0.640625 0.4375q0.25 0.09375 1.46875 0.4375q1.765625 0.46875 2.46875 0.765625q0.703125 0.296875 1.09375 0.875q0.40625 0.578125 0.40625 1.4375q0 0.828125 -0.484375 1.578125q-0.484375 0.734375 -1.40625 1.140625q-0.921875 0.390625 -2.078125 0.390625q-1.921875 0 -2.9375 -0.796875q-1.0 -0.796875 -1.28125 -2.359375z" fill-rule="nonzero"></path><path fill="#fff2cc" d="m527.7454 205.00131l-136.44095 0.03149414l0 218.61417l136.44095 -0.03149414z" fill-rule="nonzero"></path><path fill="#fff2cc" d="m521.83466 48.942364l-126.456696 0.62992096l0.4409485 98.29921l126.456665 -0.62991333z" fill-rule="nonzero"></path><path fill="#d9d2e9" d="m506.80466 221.47806l-95.77954 0l0 153.35434l95.77954 0z" fill-rule="nonzero"></path><path fill="#cfe2f3" d="m507.4147 376.09317l-95.77954 0l0 35.93701l95.77954 0z" fill-rule="nonzero"></path><path fill="#000000" d="m433.52856 400.22574l0 -13.59375l4.6875 0q1.578125 0 2.421875 0.1875q1.15625 0.265625 1.984375 0.96875q1.078125 0.921875 1.609375 2.34375q0.53125 1.40625 0.53125 3.21875q0 1.546875 -0.359375 2.75q-0.359375 1.1875 -0.921875 1.984375q-0.5625 0.78125 -1.234375 1.234375q-0.671875 0.4375 -1.625 0.671875q-0.953125 0.234375 -2.1875 0.234375l-4.90625 0zm1.796875 -1.609375l2.90625 0q1.34375 0 2.109375 -0.25q0.765625 -0.25 1.21875 -0.703125q0.640625 -0.640625 1.0 -1.71875q0.359375 -1.078125 0.359375 -2.625q0 -2.125 -0.703125 -3.265625q-0.703125 -1.15625 -1.703125 -1.546875q-0.71875 -0.28125 -2.328125 -0.28125l-2.859375 0l0 10.390625zm11.707306 1.609375l0 -13.59375l6.03125 0q1.8125 0 2.75 0.359375q0.953125 0.359375 1.515625 1.296875q0.5625 0.921875 0.5625 2.046875q0 1.453125 -0.9375 2.453125q-0.921875 0.984375 -2.890625 1.25q0.71875 0.34375 1.09375 0.671875q0.78125 0.734375 1.484375 1.8125l2.375 3.703125l-2.265625 0l-1.796875 -2.828125q-0.796875 -1.21875 -1.3125 -1.875q-0.5 -0.65625 -0.90625 -0.90625q-0.40625 -0.265625 -0.8125 -0.359375q-0.3125 -0.078125 -1.015625 -0.078125l-2.078125 0l0 6.046875l-1.796875 0zm1.796875 -7.59375l3.859375 0q1.234375 0 1.921875 -0.25q0.703125 -0.265625 1.0625 -0.828125q0.375 -0.5625 0.375 -1.21875q0 -0.96875 -0.703125 -1.578125q-0.703125 -0.625 -2.21875 -0.625l-4.296875 0l0 4.5zm10.144836 7.59375l5.234375 -13.59375l1.9375 0l5.5625 13.59375l-2.046875 0l-1.59375 -4.125l-5.6875 0l-1.484375 4.125l-1.921875 0zm3.921875 -5.578125l4.609375 0l-1.40625 -3.78125q-0.65625 -1.703125 -0.96875 -2.8125q-0.265625 1.3125 -0.734375 2.59375l-1.5 4.0zm9.959198 5.578125l0 -13.59375l2.71875 0l3.21875 9.625q0.4375 1.34375 0.640625 2.015625q0.234375 -0.75 0.734375 -2.1875l3.25 -9.453125l2.421875 0l0 13.59375l-1.734375 0l0 -11.390625l-3.953125 11.390625l-1.625 0l-3.9375 -11.578125l0 11.578125l-1.734375 0z" fill-rule="nonzero"></path><path fill="#d9ead3" d="m506.82465 96.5043l-95.055115 0.06299591l0 38.173225l95.055115 -0.06298828z" fill-rule="nonzero"></path><path fill="#000000" d="m450.77423 117.0265l1.796875 0.4519348q-0.5625 2.2191238 -2.03125 3.3919754q-1.46875 1.1572189 -3.59375 1.1586304q-2.203125 0.0014572144 -3.578125 -0.88825226q-1.375 -0.9053421 -2.09375 -2.592369q-0.71875 -1.7026443 -0.71875 -3.6557693q0 -2.125 0.796875 -3.703659q0.8125 -1.578659 2.3125 -2.3921509q1.5 -0.82912445 3.296875 -0.83031464q2.046875 -0.0013580322 3.4375 1.0446014q1.390625 1.0303268 1.9375 2.9049606l-1.765625 0.42304993q-0.46875 -1.4840698 -1.375 -2.155342q-0.90625 -0.6868973 -2.265625 -0.685997q-1.5625 0.0010375977 -2.625 0.7517395q-1.046875 0.7506943 -1.484375 2.0322342q-0.421875 1.2659073 -0.421875 2.6096573q0 1.734375 0.5 3.0309143q0.515625 1.2809143 1.578125 1.9208298q1.078125 0.63991547 2.3125 0.6390915q1.515625 -9.994507E-4 2.5625 -0.8610687q1.046875 -0.8756943 1.421875 -2.594696zm3.7698364 4.76313l0 -13.59375l5.125 -0.00340271q1.359375 -9.0026855E-4 2.078125 0.12362671q1.0 0.17121124 1.671875 0.63951874q0.671875 0.46829987 1.078125 1.3117828q0.421875 0.8434677 0.421875 1.8434753q0 1.734375 -1.109375 2.9382324q-1.09375 1.2038498 -3.984375 1.2057648l-3.484375 0.0023117065l0 5.53125l-1.796875 0.0011901855zm1.796875 -7.141815l3.515625 -0.0023345947q1.75 -0.001159668 2.46875 -0.6422577q0.734375 -0.6567383 0.734375 -1.8286133q0 -0.859375 -0.4375 -1.4684601q-0.421875 -0.6090927 -1.125 -0.7961273q-0.453125 -0.12470245 -1.671875 -0.12389374l-3.484375 0.0023117065l0 4.859375zm19.568573 -6.466095l1.796875 -0.0011901855l0 7.84375q0 2.0625 -0.46875 3.2659378q-0.453125 1.2034225 -1.6719055 1.9698563q-1.203125 0.7508011 -3.171875 0.7521057q-1.90625 0.0012588501 -3.125 -0.65418243q-1.2187195 -0.6554413 -1.7343445 -1.905098q-0.515625 -1.2496643 -0.515625 -3.4215393l0 -7.84375l1.7968445 -0.0011901855l0 7.84375q0 1.765625 0.328125 2.6091614q0.328125 0.84352875 1.125 1.2961273q0.8125 0.4525833 1.96875 0.45182037q1.984375 -0.0013122559 2.828125 -0.89250183q0.8437805 -0.90680695 0.8437805 -3.469307l0 -7.84375z" fill-rule="nonzero"></path><path fill="#000000" fill-opacity="0.0" d="m523.4945 12.289887l-128.09451 0.56692886l0.15750122 42.80315l128.09448 -0.56692886z" fill-rule="nonzero"></path><path fill="#000000" d="m437.38605 41.11986l-0.05532837 -15.031155l3.0468445 -0.013484955l0.02178955 5.921837l5.937439 -0.026277542l-0.021759033 -5.921837l3.0468445 -0.013484955l0.05529785 15.031153l-3.0468445 0.013484955l-0.02420044 -6.578083l-5.937439 0.02627945l0.02420044 6.578083l-3.0468445 0.013484955zm14.694244 -5.65884q-0.005279541 -1.4374924 0.6929016 -2.7843437q0.69818115 -1.3468552 1.9924622 -2.0557156q1.2941895 -0.7244835 2.9035645 -0.73160744q2.4687195 -0.010925293 4.052765 1.5914536q1.5840149 1.6023788 1.5930481 4.0554886q0.009094238 2.4687347 -1.5786743 4.1007767q-1.587738 1.6320457 -4.009613 1.642765q-1.4999695 0.0066375732 -2.8618164 -0.65921783q-1.3618774 -0.6814766 -2.0697632 -1.9752312q-0.7079468 -1.3093796 -0.71487427 -3.1843681zm2.9536743 0.14317703q0.00592041 1.6093636 0.77471924 2.4653473q0.7687683 0.8559799 1.8937683 0.85100174q1.1405945 -0.005050659 1.8874512 -0.8677368q0.7624512 -0.86275864 0.7564087 -2.5033722q-0.005859375 -1.5937424 -0.7746277 -2.4497223q-0.7531738 -0.8560486 -1.8937988 -0.85100174q-1.1249695 0.00497818 -1.8874207 0.8677368q-0.7624817 0.86275864 -0.75650024 2.4877472zm9.739685 2.2850418l2.888977 -0.45029068q0.1749878 0.84298325 0.7391052 1.2779922q0.5797119 0.43493652 1.5953369 0.4304428q1.1093445 -0.0049095154 1.6702881 -0.4292717q0.3739624 -0.2829094 0.37219238 -0.7672806q-0.0012207031 -0.3281212 -0.20513916 -0.5459709q-0.20385742 -0.20222473 -0.9544983 -0.37078094q-3.487152 -0.75019836 -4.427002 -1.3866692q-1.3000793 -0.86925507 -1.3058777 -2.4473686q-0.0051879883 -1.4062424 1.1006165 -2.3798943q1.1214294 -0.97372437 3.465149 -0.9840965q2.2499695 -0.009958267 3.3308105 0.71964073q1.0963745 0.7139034 1.507904 2.1495953l-2.7168884 0.51203156q-0.17422485 -0.63986206 -0.67541504 -0.9657707q-0.48565674 -0.34160423 -1.3762512 -0.33766174q-1.140625 0.005048752 -1.6394653 0.31975937q-0.3272705 0.23582458 -0.32592773 0.5951996q0.0010681152 0.2968712 0.2987671 0.5143051q0.39163208 0.27952194 2.6904602 0.80060196q2.2987366 0.505455 3.2234192 1.2669945q0.9090576 0.7616081 0.91412354 2.1366005q0.0055236816 1.4999924 -1.256134 2.5837097q-1.2460022 1.0836525 -3.6835022 1.0944405q-2.2343445 0.009887695 -3.534546 -0.8906174q-1.3002014 -0.90050507 -1.6965027 -2.4456406zm17.832886 -7.8602524l0.008453369 2.2968597l-1.9687195 0.008712769l0.016143799 4.3905983q0.0048828125 1.3281174 0.052581787 1.5466576q0.06329346 0.21847153 0.2669983 0.37382126q0.2036438 0.13972473 0.48486328 0.13848114q0.40625 -0.0017967224 1.1552124 -0.2863655l0.25820923 2.2332535q-0.99835205 0.44192123 -2.279602 0.4475937q-0.765625 0.0033874512 -1.3916016 -0.25946808q-0.62594604 -0.26285934 -0.9243164 -0.66778946q-0.2984314 -0.42055893 -0.4104004 -1.1231956q-0.095581055 -0.4995842 -0.10122681 -2.0308228l-0.017456055 -4.7499695l-1.328125 0.0058784485l-0.008453369 -2.2968597l1.328125 -0.0058784485l-0.00793457 -2.1562366l2.884369 -1.7002811l0.014160156 3.8437252l1.9687195 -0.008714676z" fill-rule="nonzero"></path><path fill="#000000" fill-opacity="0.0" d="m454.77356 222.29404l23.055115 13.952759" fill-rule="nonzero"></path><path stroke="#000000" stroke-width="1.0" stroke-linejoin="round" stroke-linecap="butt" d="m454.7736 222.29405l17.921936 10.846207" fill-rule="evenodd"></path><path fill="#000000" stroke="#000000" stroke-width="1.0" stroke-linecap="butt" d="m471.84033 234.55336l4.737671 0.93652344l-3.0272827 -3.7627258z" fill-rule="evenodd"></path><path fill="#000000" fill-opacity="0.0" d="m454.7751 222.29521c-2.660675 3.5568085 -13.917358 11.764801 -15.96402 21.340805c-2.0466614 9.576004 3.0700073 30.096008 3.684021 36.115204" fill-rule="nonzero"></path><path stroke="#000000" stroke-width="1.0" stroke-linejoin="round" stroke-linecap="butt" d="m454.77505 222.29521c-2.6606445 3.5568085 -13.917328 11.764801 -15.963989 21.340805c-1.023346 4.7879944 -0.25582886 12.311996 0.8442383 19.391388c0.55007935 3.5397034 1.1832275 6.9682617 1.7173157 9.888092l0.16564941 0.9125061" fill-rule="evenodd"></path><path fill="#000000" stroke="#000000" stroke-width="1.0" stroke-linecap="butt" d="m439.90765 274.0914l2.354309 4.216614l0.90689087 -4.743408z" fill-rule="evenodd"></path><path fill="#d9ead3" d="m438.3015 338.39206l0 0c0 -8.158142 7.3749695 -14.771637 16.472443 -14.771637l0 0c9.097473 0 16.472443 6.613495 16.472443 14.771637l0 0c0 8.158173 -7.3749695 14.7716675 -16.472443 14.7716675l0 0c-9.097473 0 -16.472443 -6.613495 -16.472443 -14.7716675z" fill-rule="nonzero"></path><path fill="#d9ead3" d="m452.1262 333.7905l4.390625 0l0 9.203125l-4.390625 0l0 -9.203125z" fill-rule="nonzero"></path><path fill="#333333" d="m456.23557 333.74362l0.28125 0l-1.21875 7.609375l-1.9375 -4.0l-0.765625 0.359375l-0.140625 -0.25l1.171875 -0.59375l1.59375 3.21875l1.015625 -6.34375z" fill-rule="nonzero"></path><path fill="#fff2cc" d="m461.35623 251.01845l0 0c0 -8.158157 7.3749695 -14.771652 16.472443 -14.771652l0 0c9.097473 0 16.472443 6.613495 16.472443 14.771652l0 0c0 8.158157 -7.3749695 14.771652 -16.472443 14.771652l0 0c-9.097473 0 -16.472443 -6.613495 -16.472443 -14.771652z" fill-rule="nonzero"></path><path fill="#000000" d="m478.58844 253.66689l-0.703125 0l0 -4.484375q-0.25 0.25 -0.671875 0.5q-0.40625 0.234375 -0.734375 0.34375l0 -0.671875q0.59375 -0.28125 1.03125 -0.671875q0.4375 -0.390625 0.625 -0.765625l0.453125 0l0 5.75z" fill-rule="nonzero"></path><path fill="#000000" fill-opacity="0.0" d="m477.82867 265.7901l-11.406952 14.319946" fill-rule="nonzero"></path><path stroke="#000000" stroke-width="1.0" stroke-linejoin="round" stroke-linecap="butt" d="m477.8287 265.7901l-7.6686096 9.626923" fill-rule="evenodd"></path><path fill="#000000" stroke="#000000" stroke-width="1.0" stroke-linecap="butt" d="m468.86816 274.38788l-1.5355835 4.578705l4.119446 -2.5204163z" fill-rule="evenodd"></path><path fill="#000000" fill-opacity="0.0" d="m454.77396 305.32684l0 18.29358" fill-rule="nonzero"></path><path stroke="#000000" stroke-width="1.0" stroke-linejoin="round" stroke-linecap="butt" d="m454.77396 305.32684l0 12.293549" fill-rule="evenodd"></path><path fill="#000000" stroke="#000000" stroke-width="1.0" stroke-linecap="butt" d="m453.12222 317.6204l1.6517334 4.5381165l1.6517334 -4.5381165z" fill-rule="evenodd"></path><path fill="#000000" fill-opacity="0.0" d="m454.77396 353.16373l0 21.858276" fill-rule="nonzero"></path><path stroke="#000000" stroke-width="1.0" stroke-linejoin="round" stroke-linecap="butt" d="m454.77396 353.16373l0 15.858246" fill-rule="evenodd"></path><path fill="#000000" stroke="#000000" stroke-width="1.0" stroke-linecap="butt" d="m453.12222 369.02197l1.6517334 4.5381165l1.6517334 -4.5381165z" fill-rule="evenodd"></path><path fill="#d9ead3" d="m438.3015 290.55518l0 0c0 -8.158142 7.3749695 -14.771637 16.472443 -14.771637l0 0c9.097473 0 16.472443 6.613495 16.472443 14.771637l0 0c0 8.158173 -7.3749695 14.7716675 -16.472443 14.7716675l0 0c-9.097473 0 -16.472443 -6.613495 -16.472443 -14.7716675z" fill-rule="nonzero"></path><path fill="#000000" d="m452.83646 293.2036l1.515625 -2.15625l-1.40625 -2.0l0.875 0l0.640625 0.984375q0.1875 0.265625 0.296875 0.453125q0.171875 -0.25 0.3125 -0.453125l0.703125 -0.984375l0.828125 0l-1.421875 1.953125l1.53125 2.203125l-0.859375 0l-0.84375 -1.296875l-0.234375 -0.34375l-1.09375 1.640625l-0.84375 0z" fill-rule="nonzero"></path><path fill="#000000" fill-opacity="0.0" d="m459.04724 147.55653l0.47769165 57.460526" fill-rule="nonzero"></path><path stroke="#666666" stroke-width="2.0" stroke-linejoin="round" stroke-linecap="butt" d="m459.14697 159.55612l0.27822876 33.46135" fill-rule="evenodd"></path><path fill="#666666" stroke="#666666" stroke-width="2.0" stroke-linecap="butt" d="m462.45035 159.52866l-3.3787842 -9.048416l-3.2279053 9.1033325z" fill-rule="evenodd"></path><path fill="#666666" stroke="#666666" stroke-width="2.0" stroke-linecap="butt" d="m456.12183 193.04494l3.3788147 9.048416l3.2278748 -9.1033325z" fill-rule="evenodd"></path><path fill="#000000" fill-opacity="0.0" d="m454.7743 161.49475l76.59839 0l0 48.0l-76.59839 0z" fill-rule="nonzero"></path><path fill="#000000" d="m465.1493 187.38538l0 -13.59375l4.421875 0q2.5 0 3.265625 0.203125q1.15625 0.296875 1.9375 1.328125q0.796875 1.015625 0.796875 2.640625q0 1.25 -0.453125 2.109375q-0.453125 0.859375 -1.15625 1.34375q-0.703125 0.484375 -1.421875 0.640625q-0.984375 0.203125 -2.84375 0.203125l-1.796875 0l0 5.125l-2.75 0zm2.75 -11.296875l0 3.859375l1.5 0q1.625 0 2.171875 -0.21875q0.546875 -0.21875 0.859375 -0.671875q0.3125 -0.453125 0.3125 -1.046875q0 -0.75 -0.4375 -1.234375q-0.4375 -0.484375 -1.09375 -0.59375q-0.5 -0.09375 -1.984375 -0.09375l-1.328125 0zm18.396698 6.296875l2.671875 0.84375q-0.609375 2.21875 -2.046875 3.3125q-1.421875 1.078125 -3.609375 1.078125q-2.703125 0 -4.453125 -1.84375q-1.734375 -1.859375 -1.734375 -5.078125q0 -3.390625 1.75 -5.265625q1.75 -1.875 4.609375 -1.875q2.5 0 4.046875 1.46875q0.9375 0.875 1.390625 2.5l-2.71875 0.65625q-0.234375 -1.0625 -1.0 -1.671875q-0.765625 -0.609375 -1.859375 -0.609375q-1.515625 0 -2.453125 1.09375q-0.9375 1.078125 -0.9375 3.5q0 2.578125 0.921875 3.6875q0.921875 1.09375 2.40625 1.09375q1.109375 0 1.890625 -0.6875q0.78125 -0.703125 1.125 -2.203125zm4.691681 5.0l0 -13.59375l2.75 0l0 13.59375l-2.75 0zm4.964569 -3.625l0 -2.609375l5.109375 0l0 2.609375l-5.109375 0zm6.509552 3.625l0 -13.59375l10.09375 0l0 2.296875l-7.34375 0l0 3.015625l6.828125 0l0 2.28125l-6.828125 0l0 3.703125l7.609375 0l0 2.296875l-10.359375 0z" fill-rule="nonzero"></path><path fill="#000000" fill-opacity="0.0" d="m331.3727 31.711287l80.22046 192.7874" fill-rule="nonzero"></path><path stroke="#666666" stroke-width="1.0" stroke-linejoin="round" stroke-linecap="butt" stroke-dasharray="1.0,3.0" d="m331.3727 31.711287l80.22046 192.7874" fill-rule="nonzero"></path><path fill="#000000" fill-opacity="0.0" d="m324.1942 436.76117l84.69293 -62.740173" fill-rule="nonzero"></path><path stroke="#666666" stroke-width="1.0" stroke-linejoin="round" stroke-linecap="butt" stroke-dasharray="1.0,3.0" d="m324.1942 436.76117l84.69293 -62.740173" fill-rule="nonzero"></path><path fill="#000000" fill-opacity="0.0" d="m428.00262 419.45145l76.59842 0l0 48.0l-76.59842 0z" fill-rule="nonzero"></path><path fill="#000000" d="m438.37762 431.74832l5.015625 0q1.703125 0 2.59375 0.25q1.1875 0.359375 2.046875 1.265625q0.859375 0.890625 1.296875 2.203125q0.453125 1.296875 0.453125 3.203125q0 1.6875 -0.421875 2.890625q-0.515625 1.484375 -1.453125 2.40625q-0.71875 0.703125 -1.9375 1.09375q-0.90625 0.28125 -2.421875 0.28125l-5.171875 0l0 -13.59375zm2.75 2.296875l0 9.0l2.046875 0q1.140625 0 1.65625 -0.125q0.671875 -0.171875 1.109375 -0.5625q0.4375 -0.40625 0.71875 -1.3125q0.28125 -0.921875 0.28125 -2.5q0 -1.578125 -0.28125 -2.421875q-0.28125 -0.84375 -0.78125 -1.3125q-0.5 -0.46875 -1.265625 -0.640625q-0.578125 -0.125 -2.25 -0.125l-1.234375 0zm10.754211 11.296875l0 -13.59375l9.3125 0l0 2.296875l-6.578125 0l0 3.21875l5.6875 0l0 2.296875l-5.6875 0l0 5.78125l-2.734375 0zm11.364716 0l0 -13.59375l10.09375 0l0 2.296875l-7.34375 0l0 3.015625l6.828125 0l0 2.28125l-6.828125 0l0 3.703125l7.609375 0l0 2.296875l-10.359375 0z" fill-rule="nonzero"></path><path fill="#000000" fill-opacity="0.0" d="m507.06824 296.87796l0 76.59842l-48.0 0l0 -76.59842z" fill-rule="nonzero"></path><path fill="#000000" d="m481.1776 307.44046l13.59375 0l0 9.171875l-1.59375 0l0 -7.375l-4.21875 0l0 6.375l-1.609375 0l0 -6.375l-6.171875 0l0 -1.796875zm0 11.302216l13.59375 0l0 5.125q0 1.359375 -0.125 2.078125q-0.171875 1.0 -0.640625 1.671875q-0.46875 0.671875 -1.3125 1.078125q-0.84375 0.421875 -1.84375 0.421875q-1.734375 0 -2.9375 -1.109375q-1.203125 -1.09375 -1.203125 -3.984375l0 -3.484375l-5.53125 0l0 -1.796875zm7.140625 1.796875l0 3.515625q0 1.75 0.640625 2.46875q0.65625 0.734375 1.828125 0.734375q0.859375 0 1.46875 -0.4375q0.609375 -0.421875 0.796875 -1.125q0.125 -0.453125 0.125 -1.671875l0 -3.484375l-4.859375 0zm-1.8125 17.006073l1.609375 0l0 5.765625l-5.046875 0q-1.0625 -1.328125 -1.59375 -2.75q-0.53125 -1.40625 -0.53125 -2.890625q0 -2.0 0.859375 -3.640625q0.859375 -1.625 2.484375 -2.46875q1.625 -0.828125 3.625 -0.828125q1.984375 0 3.703125 0.828125q1.71875 0.828125 2.546875 2.390625q0.84375 1.5625 0.84375 3.59375q0 1.46875 -0.484375 2.65625q-0.46875 1.203125 -1.328125 1.875q-0.84375 0.671875 -2.21875 1.03125l-0.4375 -1.625q1.03125 -0.3125 1.625 -0.765625q0.59375 -0.453125 0.953125 -1.296875q0.359375 -0.84375 0.359375 -1.875q0 -1.234375 -0.375 -2.140625q-0.375 -0.890625 -1.0 -1.453125q-0.609375 -0.546875 -1.34375 -0.84375q-1.25 -0.53125 -2.734375 -0.53125q-1.8125 0 -3.046875 0.625q-1.21875 0.640625 -1.8125 1.828125q-0.59375 1.203125 -0.59375 2.546875q0 1.171875 0.453125 2.28125q0.453125 1.109375 0.953125 1.6875l2.53125 0l0 -4.0zm-5.328125 6.652069l13.59375 5.234375l0 1.9375l-13.59375 5.5625l0 -2.046875l4.125 -1.59375l0 -5.6875l-4.125 -1.484375l0 -1.921875zm5.578125 3.921875l0 4.609375l3.78125 -1.40625q1.703125 -0.65625 2.8125 -0.96875q-1.3125 -0.265625 -2.59375 -0.734375l-4.0 -1.5z" fill-rule="nonzero"></path><path fill="#cfe2f3" d="m506.73227 60.56824l-95.77951 0l0 31.023624l95.77951 0z" fill-rule="nonzero"></path><path fill="#000000" d="m432.84613 82.24412l0 -13.59375l4.6875 0q1.578125 0 2.421875 0.1875q1.15625 0.265625 1.984375 0.96875q1.078125 0.921875 1.609375 2.34375q0.53125 1.40625 0.53125 3.21875q0 1.546875 -0.359375 2.75q-0.359375 1.1875 -0.921875 1.984375q-0.5625 0.78125 -1.234375 1.234375q-0.671875 0.4375 -1.625 0.671875q-0.953125 0.234375 -2.1875 0.234375l-4.90625 0zm1.796875 -1.609375l2.90625 0q1.34375 0 2.109375 -0.25q0.765625 -0.25 1.21875 -0.703125q0.640625 -0.640625 1.0 -1.71875q0.359375 -1.078125 0.359375 -2.625q0 -2.125 -0.703125 -3.265625q-0.703125 -1.15625 -1.703125 -1.546875q-0.71875 -0.28125 -2.328125 -0.28125l-2.859375 0l0 10.390625zm11.707336 1.609375l0 -13.59375l6.03125 0q1.8125 0 2.75 0.359375q0.953125 0.359375 1.515625 1.296875q0.5625 0.921875 0.5625 2.046875q0 1.453125 -0.9375 2.453125q-0.921875 0.984375 -2.890625 1.25q0.71875 0.34375 1.09375 0.671875q0.78125 0.734375 1.484375 1.8125l2.375 3.703125l-2.265625 0l-1.796875 -2.828125q-0.796875 -1.21875 -1.3125 -1.875q-0.5 -0.65625 -0.90625 -0.90625q-0.40625 -0.265625 -0.8125 -0.359375q-0.3125 -0.078125 -1.015625 -0.078125l-2.078125 0l0 6.046875l-1.796875 0zm1.796875 -7.59375l3.859375 0q1.234375 0 1.921875 -0.25q0.703125 -0.265625 1.0625 -0.828125q0.375 -0.5625 0.375 -1.21875q0 -0.96875 -0.703125 -1.578125q-0.703125 -0.625 -2.21875 -0.625l-4.296875 0l0 4.5zm10.144806 7.59375l5.234375 -13.59375l1.9375 0l5.5625 13.59375l-2.046875 0l-1.59375 -4.125l-5.6875 0l-1.484375 4.125l-1.921875 0zm3.921875 -5.578125l4.609375 0l-1.40625 -3.78125q-0.65625 -1.703125 -0.96875 -2.8125q-0.265625 1.3125 -0.734375 2.59375l-1.5 4.0zm9.959198 5.578125l0 -13.59375l2.71875 0l3.21875 9.625q0.4375 1.34375 0.640625 2.015625q0.234375 -0.75 0.734375 -2.1875l3.25 -9.453125l2.421875 0l0 13.59375l-1.734375 0l0 -11.390625l-3.953125 11.390625l-1.625 0l-3.9375 -11.578125l0 11.578125l-1.734375 0z" fill-rule="nonzero"></path></g></svg>

