<?xml version="1.0" standalone="yes"?>

<svg version="1.1" viewBox="0.0 0.0 960.0 720.0" fill="none" stroke="none" stroke-linecap="square" stroke-miterlimit="10" xmlns="http://www.w3.org/2000/svg" xmlns:xlink="http://www.w3.org/1999/xlink"><clipPath id="p.0"><path d="m0 0l960.0 0l0 720.0l-960.0 0l0 -720.0z" clip-rule="nonzero"></path></clipPath><g clip-path="url(#p.0)"><path fill="#000000" fill-opacity="0.0" d="m0 0l960.0 0l0 720.0l-960.0 0z" fill-rule="nonzero"></path><path fill="#fff2cc" d="m221.42749 197.8506l234.99213 0l0 329.7638l-234.99213 0z" fill-rule="nonzero"></path><path stroke="#000000" stroke-width="2.0" stroke-linejoin="round" stroke-linecap="butt" d="m221.42749 197.8506l234.99213 0l0 329.7638l-234.99213 0z" fill-rule="nonzero"></path><path fill="#fff2cc" d="m545.7747 231.58005l138.36224 0l0 280.0l-138.36224 0z" fill-rule="nonzero"></path><path stroke="#000000" stroke-width="2.0" stroke-linejoin="round" stroke-linecap="butt" d="m545.7747 231.58005l138.36224 0l0 280.0l-138.36224 0z" fill-rule="nonzero"></path><path fill="#cfe2f3" d="m545.77954 213.12862l138.33069 0l0 61.38582l-138.33069 0z" fill-rule="nonzero"></path><path stroke="#000000" stroke-width="2.0" stroke-linejoin="round" stroke-linecap="butt" d="m545.77954 213.12862l138.33069 0l0 61.38582l-138.33069 0z" fill-rule="nonzero"></path><path fill="#cfe2f3" d="m270.43536 210.69029l143.81104 0l0 177.03935l-143.81104 0z" fill-rule="nonzero"></path><path stroke="#000000" stroke-width="2.0" stroke-linejoin="round" stroke-linecap="butt" d="m270.43536 210.69029l143.81104 0l0 177.03935l-143.81104 0z" fill-rule="nonzero"></path><path fill="#cfe2f3" d="m273.8527 450.62677l136.97638 0l0 60.031494l-136.97638 0z" fill-rule="nonzero"></path><path stroke="#000000" stroke-width="2.0" stroke-linejoin="round" stroke-linecap="butt" d="m273.8527 450.62677l136.97638 0l0 60.031494l-136.97638 0z" fill-rule="nonzero"></path><path fill="#d9ead3" d="m566.9449 329.83728l96.0 0l0 67.30707l-96.0 0z" fill-rule="nonzero"></path><path stroke="#000000" stroke-width="2.0" stroke-linejoin="round" stroke-linecap="butt" d="m566.9449 329.83728l96.0 0l0 67.30707l-96.0 0z" fill-rule="nonzero"></path><path fill="#d9ead3" d="m306.8317 253.21523l0 0c0 -7.018799 7.727478 -12.708664 17.259827 -12.708664l0 0c9.532349 0 17.259857 5.689865 17.259857 12.708664l0 0c0 7.0187836 -7.7275085 12.708664 -17.259857 12.708664l0 0c-9.532349 0 -17.259827 -5.6898804 -17.259827 -12.708664z" fill-rule="nonzero"></path><path stroke="#000000" stroke-width="2.0" stroke-linejoin="round" stroke-linecap="butt" d="m306.8317 253.21523l0 0c0 -7.018799 7.727478 -12.708664 17.259827 -12.708664l0 0c9.532349 0 17.259857 5.689865 17.259857 12.708664l0 0c0 7.0187836 -7.7275085 12.708664 -17.259857 12.708664l0 0c-9.532349 0 -17.259827 -5.6898804 -17.259827 -12.708664z" fill-rule="nonzero"></path><path fill="#000000" d="m323.40967 257.17615l0 -3.7187347l-3.703125 0l0 -1.5625l3.703125 0l0 -3.703125l1.578125 0l0 3.703125l3.6875 0l0 1.5625l-3.6875 0l0 3.7187347l-1.578125 0z" fill-rule="nonzero"></path><path fill="#d9ead3" d="m322.8317 269.2152l0 0c0 -7.018799 7.727478 -12.708649 17.259827 -12.708649l0 0c9.532349 0 17.259857 5.68985 17.259857 12.708649l0 0c0 7.018799 -7.7275085 12.708679 -17.259857 12.708679l0 0c-9.532349 0 -17.259827 -5.6898804 -17.259827 -12.708679z" fill-rule="nonzero"></path><path stroke="#000000" stroke-width="2.0" stroke-linejoin="round" stroke-linecap="butt" d="m322.8317 269.2152l0 0c0 -7.018799 7.727478 -12.708649 17.259827 -12.708649l0 0c9.532349 0 17.259857 5.68985 17.259857 12.708649l0 0c0 7.018799 -7.7275085 12.708679 -17.259857 12.708679l0 0c-9.532349 0 -17.259827 -5.6898804 -17.259827 -12.708679z" fill-rule="nonzero"></path><path fill="#000000" d="m339.40967 273.17615l0 -3.71875l-3.703125 0l0 -1.5625l3.703125 0l0 -3.703125l1.578125 0l0 3.703125l3.6875 0l0 1.5625l-3.6875 0l0 3.71875l-1.578125 0z" fill-rule="nonzero"></path><path fill="#d9ead3" d="m338.8317 285.2152l0 0c0 -7.018799 7.727478 -12.708649 17.259827 -12.708649l0 0c9.532349 0 17.259857 5.68985 17.259857 12.708649l0 0c0 7.018799 -7.7275085 12.708679 -17.259857 12.708679l0 0c-9.532349 0 -17.259827 -5.6898804 -17.259827 -12.708679z" fill-rule="nonzero"></path><path stroke="#000000" stroke-width="2.0" stroke-linejoin="round" stroke-linecap="butt" d="m338.8317 285.2152l0 0c0 -7.018799 7.727478 -12.708649 17.259827 -12.708649l0 0c9.532349 0 17.259857 5.68985 17.259857 12.708649l0 0c0 7.018799 -7.7275085 12.708679 -17.259857 12.708679l0 0c-9.532349 0 -17.259827 -5.6898804 -17.259827 -12.708679z" fill-rule="nonzero"></path><path fill="#000000" d="m355.40967 289.17615l0 -3.71875l-3.703125 0l0 -1.5625l3.703125 0l0 -3.703125l1.578125 0l0 3.703125l3.6875 0l0 1.5625l-3.6875 0l0 3.71875l-1.578125 0z" fill-rule="nonzero"></path><path fill="#d9ead3" d="m354.8317 301.2152l0 0c0 -7.018799 7.727478 -12.708649 17.259827 -12.708649l0 0c9.532349 0 17.259857 5.68985 17.259857 12.708649l0 0c0 7.018799 -7.7275085 12.708679 -17.259857 12.708679l0 0c-9.532349 0 -17.259827 -5.6898804 -17.259827 -12.708679z" fill-rule="nonzero"></path><path stroke="#000000" stroke-width="2.0" stroke-linejoin="round" stroke-linecap="butt" d="m354.8317 301.2152l0 0c0 -7.018799 7.727478 -12.708649 17.259827 -12.708649l0 0c9.532349 0 17.259857 5.68985 17.259857 12.708649l0 0c0 7.018799 -7.7275085 12.708679 -17.259857 12.708679l0 0c-9.532349 0 -17.259827 -5.6898804 -17.259827 -12.708679z" fill-rule="nonzero"></path><path fill="#000000" d="m371.40967 305.17615l0 -3.71875l-3.703125 0l0 -1.5625l3.703125 0l0 -3.703125l1.578125 0l0 3.703125l3.6875 0l0 1.5625l-3.6875 0l0 3.71875l-1.578125 0z" fill-rule="nonzero"></path><path fill="#d9ead3" d="m370.8317 317.2152l0 0c0 -7.018799 7.727478 -12.708649 17.259827 -12.708649l0 0c9.532349 0 17.259857 5.68985 17.259857 12.708649l0 0c0 7.018799 -7.7275085 12.708679 -17.259857 12.708679l0 0c-9.532349 0 -17.259827 -5.6898804 -17.259827 -12.708679z" fill-rule="nonzero"></path><path stroke="#000000" stroke-width="2.0" stroke-linejoin="round" stroke-linecap="butt" d="m370.8317 317.2152l0 0c0 -7.018799 7.727478 -12.708649 17.259827 -12.708649l0 0c9.532349 0 17.259857 5.68985 17.259857 12.708649l0 0c0 7.018799 -7.7275085 12.708679 -17.259857 12.708679l0 0c-9.532349 0 -17.259827 -5.6898804 -17.259827 -12.708679z" fill-rule="nonzero"></path><path fill="#000000" d="m387.40967 321.17615l0 -3.71875l-3.703125 0l0 -1.5625l3.703125 0l0 -3.703125l1.578125 0l0 3.703125l3.6875 0l0 1.5625l-3.6875 0l0 3.71875l-1.578125 0z" fill-rule="nonzero"></path><path fill="#d9ead3" d="m281.66373 296.50656l0 0c0 -7.018799 7.727478 -12.708649 17.259827 -12.708649l0 0c9.532349 0 17.259857 5.68985 17.259857 12.708649l0 0c0 7.018799 -7.7275085 12.708649 -17.259857 12.708649l0 0c-9.532349 0 -17.259827 -5.68985 -17.259827 -12.708649z" fill-rule="nonzero"></path><path stroke="#000000" stroke-width="2.0" stroke-linejoin="round" stroke-linecap="butt" d="m281.66373 296.50656l0 0c0 -7.018799 7.727478 -12.708649 17.259827 -12.708649l0 0c9.532349 0 17.259857 5.68985 17.259857 12.708649l0 0c0 7.018799 -7.7275085 12.708649 -17.259857 12.708649l0 0c-9.532349 0 -17.259827 -5.68985 -17.259827 -12.708649z" fill-rule="nonzero"></path><path fill="#000000" d="m296.4266 298.5925l0 -1.6875l5.125 0l0 1.6875l-5.125 0z" fill-rule="nonzero"></path><path fill="#d9ead3" d="m297.66373 312.50656l0 0c0 -7.018799 7.727478 -12.708649 17.259827 -12.708649l0 0c9.532349 0 17.259857 5.68985 17.259857 12.708649l0 0c0 7.018799 -7.7275085 12.708649 -17.259857 12.708649l0 0c-9.532349 0 -17.259827 -5.68985 -17.259827 -12.708649z" fill-rule="nonzero"></path><path stroke="#000000" stroke-width="2.0" stroke-linejoin="round" stroke-linecap="butt" d="m297.66373 312.50656l0 0c0 -7.018799 7.727478 -12.708649 17.259827 -12.708649l0 0c9.532349 0 17.259857 5.68985 17.259857 12.708649l0 0c0 7.018799 -7.7275085 12.708649 -17.259857 12.708649l0 0c-9.532349 0 -17.259827 -5.68985 -17.259827 -12.708649z" fill-rule="nonzero"></path><path fill="#000000" d="m312.4266 314.5925l0 -1.6875l5.125 0l0 1.6875l-5.125 0z" fill-rule="nonzero"></path><path fill="#d9ead3" d="m313.66373 328.50656l0 0c0 -7.018799 7.727478 -12.708649 17.259827 -12.708649l0 0c9.532349 0 17.259857 5.68985 17.259857 12.708649l0 0c0 7.018799 -7.7275085 12.708649 -17.259857 12.708649l0 0c-9.532349 0 -17.259827 -5.68985 -17.259827 -12.708649z" fill-rule="nonzero"></path><path stroke="#000000" stroke-width="2.0" stroke-linejoin="round" stroke-linecap="butt" d="m313.66373 328.50656l0 0c0 -7.018799 7.727478 -12.708649 17.259827 -12.708649l0 0c9.532349 0 17.259857 5.68985 17.259857 12.708649l0 0c0 7.018799 -7.7275085 12.708649 -17.259857 12.708649l0 0c-9.532349 0 -17.259827 -5.68985 -17.259827 -12.708649z" fill-rule="nonzero"></path><path fill="#000000" d="m328.4266 330.5925l0 -1.6875l5.125 0l0 1.6875l-5.125 0z" fill-rule="nonzero"></path><path fill="#d9ead3" d="m329.66373 344.50656l0 0c0 -7.018799 7.727478 -12.708649 17.259827 -12.708649l0 0c9.532349 0 17.259857 5.68985 17.259857 12.708649l0 0c0 7.018799 -7.7275085 12.708649 -17.259857 12.708649l0 0c-9.532349 0 -17.259827 -5.68985 -17.259827 -12.708649z" fill-rule="nonzero"></path><path stroke="#000000" stroke-width="2.0" stroke-linejoin="round" stroke-linecap="butt" d="m329.66373 344.50656l0 0c0 -7.018799 7.727478 -12.708649 17.259827 -12.708649l0 0c9.532349 0 17.259857 5.68985 17.259857 12.708649l0 0c0 7.018799 -7.7275085 12.708649 -17.259857 12.708649l0 0c-9.532349 0 -17.259827 -5.68985 -17.259827 -12.708649z" fill-rule="nonzero"></path><path fill="#000000" d="m344.4266 346.5925l0 -1.6875l5.125 0l0 1.6875l-5.125 0z" fill-rule="nonzero"></path><path fill="#d9ead3" d="m345.66373 360.50656l0 0c0 -7.018799 7.727478 -12.708649 17.259827 -12.708649l0 0c9.532349 0 17.259857 5.68985 17.259857 12.708649l0 0c0 7.018799 -7.7275085 12.708649 -17.259857 12.708649l0 0c-9.532349 0 -17.259827 -5.68985 -17.259827 -12.708649z" fill-rule="nonzero"></path><path stroke="#000000" stroke-width="2.0" stroke-linejoin="round" stroke-linecap="butt" d="m345.66373 360.50656l0 0c0 -7.018799 7.727478 -12.708649 17.259827 -12.708649l0 0c9.532349 0 17.259857 5.68985 17.259857 12.708649l0 0c0 7.018799 -7.7275085 12.708649 -17.259857 12.708649l0 0c-9.532349 0 -17.259827 -5.68985 -17.259827 -12.708649z" fill-rule="nonzero"></path><path fill="#000000" d="m360.4266 362.5925l0 -1.6875l5.125 0l0 1.6875l-5.125 0z" fill-rule="nonzero"></path><path fill="#000000" fill-opacity="0.0" d="m268.09152 200.30971l144.0 0l0 48.0l-144.0 0z" fill-rule="nonzero"></path><path fill="#000000" d="m285.44772 230.47377l-2.609375 -13.59375l1.75 0l1.578125 8.09375q0.4375 2.21875 0.5625 3.5625q0.859375 -1.734375 1.40625 -2.75l4.84375 -8.90625l1.875 0l-7.453125 13.59375l-1.953125 0zm10.490448 -11.703125l0.40625 -1.890625l1.65625 0l-0.390625 1.890625l-1.671875 0zm-2.453125 11.703125l2.0625 -9.859375l1.6875 0l-2.0625 9.859375l-1.6875 0zm4.2073364 0l2.0625 -9.859375l1.484375 0l-0.421875 2.015625q0.765625 -1.140625 1.484375 -1.6875q0.734375 -0.546875 1.5 -0.546875q0.5 0 1.234375 0.359375l-0.6875 1.5625q-0.4375 -0.3125 -0.953125 -0.3125q-0.875 0 -1.8125 0.984375q-0.921875 0.984375 -1.453125 3.53125l-0.828125 3.953125l-1.609375 0zm10.150177 -1.359375l-0.28125 1.375q-0.609375 0.15625 -1.171875 0.15625q-1.0 0 -1.59375 -0.5q-0.453125 -0.375 -0.453125 -1.015625q0 -0.3125 0.25 -1.484375l1.1875 -5.71875l-1.328125 0l0.28125 -1.3125l1.328125 0l0.5 -2.421875l1.921875 -1.15625l-0.75 3.578125l1.65625 0l-0.28125 1.3125l-1.640625 0l-1.140625 5.4375q-0.21875 1.046875 -0.21875 1.25q0 0.296875 0.171875 0.453125q0.171875 0.15625 0.5625 0.15625q0.5625 0 1.0 -0.109375zm8.495789 -1.984375l1.625 0.15625q-0.359375 1.21875 -1.625 2.3125q-1.265625 1.09375 -3.015625 1.09375q-1.09375 0 -2.015625 -0.5q-0.90625 -0.5 -1.390625 -1.46875q-0.46875 -0.96875 -0.46875 -2.203125q0 -1.609375 0.75 -3.125q0.75 -1.515625 1.9375 -2.25q1.1875 -0.75 2.5625 -0.75q1.765625 0 2.8125 1.09375q1.0625 1.09375 1.0625 2.984375q0 0.734375 -0.140625 1.484375l-7.25 0q-0.03125 0.296875 -0.03125 0.53125q0 1.375 0.625 2.109375q0.640625 0.71875 1.5625 0.71875q0.859375 0 1.6875 -0.5625q0.84375 -0.5625 1.3125 -1.625zm-4.890625 -2.453125l5.53125 0q0.015625 -0.25 0.015625 -0.359375q0 -1.265625 -0.640625 -1.9375q-0.625 -0.671875 -1.625 -0.671875q-1.0625 0 -1.953125 0.75q-0.890625 0.734375 -1.328125 2.21875zm7.3601074 5.796875l4.296875 -5.0l-2.46875 -4.859375l1.859375 0l0.828125 1.765625q0.46875 0.984375 0.84375 1.875l2.84375 -3.640625l2.046875 0l-4.140625 4.984375l2.484375 4.875l-1.859375 0l-0.984375 -2.0q-0.3125 -0.640625 -0.703125 -1.59375l-2.9375 3.59375l-2.109375 0zm18.370789 -7.890625q0.703125 -0.578125 1.390625 -0.875q0.703125 -0.296875 1.390625 -0.296875q1.5625 0 2.5625 1.0625q1.015625 1.0625 1.015625 2.84375q0 2.3125 -1.5 3.96875q-1.296875 1.421875 -3.15625 1.421875q-1.6875 0 -2.8125 -1.234375q-1.125 -1.25 -1.125 -3.53125q0 -2.0625 0.71875 -4.25q0.546875 -1.671875 1.375 -2.765625q0.828125 -1.09375 1.75 -1.59375q0.921875 -0.515625 2.078125 -0.515625q1.390625 0 2.265625 0.875q0.890625 0.859375 1.015625 2.46875l-1.5625 0.15625q-0.140625 -1.109375 -0.640625 -1.59375q-0.484375 -0.5 -1.203125 -0.5q-0.75 0 -1.515625 0.59375q-0.75 0.578125 -1.296875 1.734375q-0.546875 1.140625 -0.75 2.03125zm-0.59375 4.0625q0 1.15625 0.71875 1.9375q0.71875 0.78125 1.609375 0.78125q0.640625 0 1.34375 -0.46875q0.703125 -0.484375 1.1875 -1.453125q0.5 -0.984375 0.5 -1.9375q0 -1.25 -0.6875 -1.984375q-0.671875 -0.75 -1.640625 -0.75q-1.109375 0 -2.078125 1.09375q-0.953125 1.078125 -0.953125 2.78125zm13.184021 3.828125l2.84375 -13.59375l8.84375 0l-0.328125 1.546875l-7.015625 0l-0.90625 4.328125l7.15625 0l-0.328125 1.546875l-7.15625 0l-1.28125 6.171875l-1.828125 0zm11.349121 0l2.859375 -13.59375l5.671875 0q1.46875 0 2.203125 0.34375q0.75 0.328125 1.21875 1.15625q0.484375 0.8125 0.484375 1.828125q0 0.84375 -0.34375 1.71875q-0.328125 0.875 -0.859375 1.4375q-0.53125 0.5625 -1.0625 0.859375q-0.53125 0.28125 -1.15625 0.421875q-1.296875 0.3125 -2.640625 0.3125l-3.40625 0l-1.140625 5.515625l-1.828125 0zm3.296875 -7.0625l3.0 0q1.734375 0 2.546875 -0.375q0.828125 -0.375 1.3125 -1.140625q0.5 -0.78125 0.5 -1.640625q0 -0.65625 -0.265625 -1.078125q-0.25 -0.4375 -0.734375 -0.625q-0.46875 -0.203125 -1.8125 -0.203125l-3.484375 0l-1.0625 5.0625zm16.115448 1.703125l0.328125 -1.546875l5.953125 0l-1.15625 5.546875q-1.125 0.703125 -2.5625 1.15625q-1.4375 0.4375 -2.828125 0.4375q-2.96875 0 -4.4375 -1.796875q-1.234375 -1.515625 -1.234375 -3.890625q0 -2.4375 1.078125 -4.4375q1.09375 -2.015625 2.734375 -2.96875q1.640625 -0.96875 3.65625 -0.96875q1.453125 0 2.59375 0.53125q1.15625 0.515625 1.765625 1.390625q0.609375 0.875 0.890625 2.28125l-1.78125 0.203125q-0.296875 -1.40625 -1.203125 -2.15625q-0.90625 -0.75 -2.3125 -0.75q-1.484375 0 -2.765625 0.8125q-1.28125 0.796875 -2.046875 2.421875q-0.765625 1.609375 -0.765625 3.671875q0 2.046875 1.015625 3.109375q1.015625 1.046875 2.796875 1.046875q1.765625 0 3.8125 -1.171875l0.609375 -2.921875l-4.140625 0zm6.3551636 5.359375l7.703125 -13.59375l2.140625 0l2.25 13.59375l-1.765625 0l-0.65625 -3.921875l-5.5 0l-2.1875 3.921875l-1.984375 0zm4.953125 -5.3125l4.5 0l-0.53125 -3.421875q-0.3125 -2.03125 -0.375 -3.375q-0.46875 1.15625 -1.359375 2.765625l-2.234375 4.03125z" fill-rule="nonzero"></path><path fill="#000000" fill-opacity="0.0" d="m260.0889 456.64252l157.66931 0l0 48.0l-157.66931 0z" fill-rule="nonzero"></path><path fill="#000000" d="m312.92715 486.80658l0 -13.59375l4.6875 0q1.578125 0 2.421875 0.1875q1.15625 0.265625 1.984375 0.96875q1.078125 0.921875 1.609375 2.34375q0.53125 1.40625 0.53125 3.21875q0 1.546875 -0.359375 2.75q-0.359375 1.1875 -0.921875 1.984375q-0.5625 0.78125 -1.234375 1.234375q-0.671875 0.4375 -1.625 0.671875q-0.953125 0.234375 -2.1875 0.234375l-4.90625 0zm1.796875 -1.609375l2.90625 0q1.34375 0 2.109375 -0.25q0.765625 -0.25 1.21875 -0.703125q0.640625 -0.640625 1.0 -1.71875q0.359375 -1.078125 0.359375 -2.625q0 -2.125 -0.703125 -3.265625q-0.703125 -1.15625 -1.703125 -1.546875q-0.71875 -0.28125 -2.328125 -0.28125l-2.859375 0l0 10.390625zm11.707336 1.609375l0 -13.59375l6.03125 0q1.8125 0 2.75 0.359375q0.953125 0.359375 1.515625 1.296875q0.5625 0.921875 0.5625 2.046875q0 1.453125 -0.9375 2.453125q-0.921875 0.984375 -2.890625 1.25q0.71875 0.34375 1.09375 0.671875q0.78125 0.734375 1.484375 1.8125l2.375 3.703125l-2.265625 0l-1.796875 -2.828125q-0.796875 -1.21875 -1.3125 -1.875q-0.5 -0.65625 -0.90625 -0.90625q-0.40625 -0.265625 -0.8125 -0.359375q-0.3125 -0.078125 -1.015625 -0.078125l-2.078125 0l0 6.046875l-1.796875 0zm1.796875 -7.59375l3.859375 0q1.234375 0 1.921875 -0.25q0.703125 -0.265625 1.0625 -0.828125q0.375 -0.5625 0.375 -1.21875q0 -0.96875 -0.703125 -1.578125q-0.703125 -0.625 -2.21875 -0.625l-4.296875 0l0 4.5zm10.144806 7.59375l5.234375 -13.59375l1.9375 0l5.5625 13.59375l-2.046875 0l-1.59375 -4.125l-5.6875 0l-1.484375 4.125l-1.921875 0zm3.921875 -5.578125l4.609375 0l-1.40625 -3.78125q-0.65625 -1.703125 -0.96875 -2.8125q-0.265625 1.3125 -0.734375 2.59375l-1.5 4.0zm9.959198 5.578125l0 -13.59375l2.71875 0l3.21875 9.625q0.4375 1.34375 0.640625 2.015625q0.234375 -0.75 0.734375 -2.1875l3.25 -9.453125l2.421875 0l0 13.59375l-1.734375 0l0 -11.390625l-3.953125 11.390625l-1.625 0l-3.9375 -11.578125l0 11.578125l-1.734375 0z" fill-rule="nonzero"></path><path fill="#000000" fill-opacity="0.0" d="m221.42749 490.41995l0 -144.0l48.0 0l0 144.0z" fill-rule="nonzero"></path><path fill="#000000" d="m236.17749 440.68558l0 -6.34375q0 -2.140625 0.328125 -3.265625q0.453125 -1.515625 1.59375 -2.59375q1.125 -1.078125 2.78125 -1.640625q1.640625 -0.5625 4.0625 -0.5625q2.109375 0 3.65625 0.53125q1.875 0.640625 3.03125 1.84375q0.875 0.890625 1.375 2.4375q0.359375 1.140625 0.359375 3.0625l0 6.53125l-17.1875 0zm2.90625 -3.46875l11.390625 0l0 -2.59375q0 -1.453125 -0.171875 -2.09375q-0.203125 -0.84375 -0.703125 -1.390625q-0.515625 -0.5625 -1.671875 -0.90625q-1.15625 -0.359375 -3.140625 -0.359375q-2.0 0 -3.0625 0.359375q-1.0625 0.34375 -1.65625 0.984375q-0.609375 0.625 -0.8125 1.59375q-0.171875 0.71875 -0.171875 2.84375l0 1.5625zm14.28125 -13.894531l-17.1875 0l0 -11.78125l2.90625 0l0 8.3125l4.078125 0l0 -7.171875l2.90625 0l0 7.171875l7.296875 0l0 3.46875zm0 -14.644531l-17.1875 0l0 -12.734375l2.90625 0l0 9.265625l3.8125 0l0 -8.625l2.890625 0l0 8.625l4.6875 0l0 -9.59375l2.890625 0l0 13.0625z" fill-rule="nonzero"></path><path fill="#cfe2f3" d="m566.9558 438.76877l96.0 0l0 57.29135l-96.0 0z" fill-rule="nonzero"></path><path stroke="#000000" stroke-width="2.0" stroke-linejoin="round" stroke-linecap="butt" d="m566.9558 438.76877l96.0 0l0 57.29135l-96.0 0z" fill-rule="nonzero"></path><path fill="#000000" fill-opacity="0.0" d="m545.77954 345.83728l144.0 0l0 48.0l-144.0 0z" fill-rule="nonzero"></path><path fill="#000000" d="m609.25665 371.23572l1.796875 0.453125q-0.5625 2.21875 -2.03125 3.390625q-1.46875 1.15625 -3.59375 1.15625q-2.203125 0 -3.578125 -0.890625q-1.375 -0.90625 -2.09375 -2.59375q-0.71875 -1.703125 -0.71875 -3.65625q0 -2.125 0.796875 -3.703125q0.8125 -1.578125 2.3125 -2.390625q1.5 -0.828125 3.296875 -0.828125q2.046875 0 3.4375 1.046875q1.390625 1.03125 1.9375 2.90625l-1.765625 0.421875q-0.46875 -1.484375 -1.375 -2.15625q-0.90625 -0.6875 -2.265625 -0.6875q-1.5625 0 -2.625 0.75q-1.046875 0.75 -1.484375 2.03125q-0.421875 1.265625 -0.421875 2.609375q0 1.734375 0.5 3.03125q0.515625 1.28125 1.578125 1.921875q1.078125 0.640625 2.3125 0.640625q1.515625 0 2.5625 -0.859375q1.046875 -0.875 1.421875 -2.59375zm3.7698364 4.765625l0 -13.59375l5.125 0q1.359375 0 2.078125 0.125q1.0 0.171875 1.671875 0.640625q0.671875 0.46875 1.078125 1.3125q0.421875 0.84375 0.421875 1.84375q0 1.734375 -1.109375 2.9375q-1.09375 1.203125 -3.984375 1.203125l-3.484375 0l0 5.53125l-1.796875 0zm1.796875 -7.140625l3.515625 0q1.75 0 2.46875 -0.640625q0.734375 -0.65625 0.734375 -1.828125q0 -0.859375 -0.4375 -1.46875q-0.421875 -0.609375 -1.125 -0.796875q-0.453125 -0.125 -1.671875 -0.125l-3.484375 0l0 4.859375zm19.568604 -6.453125l1.796875 0l0 7.84375q0 2.0625 -0.46875 3.265625q-0.453125 1.203125 -1.671875 1.96875q-1.203125 0.75 -3.171875 0.75q-1.90625 0 -3.125 -0.65625q-1.21875 -0.65625 -1.734375 -1.90625q-0.515625 -1.25 -0.515625 -3.421875l0 -7.84375l1.796875 0l0 7.84375q0 1.765625 0.328125 2.609375q0.328125 0.84375 1.125 1.296875q0.8125 0.453125 1.96875 0.453125q1.984375 0 2.828125 -0.890625q0.84375 -0.90625 0.84375 -3.46875l0 -7.84375z" fill-rule="nonzero"></path><path fill="#000000" fill-opacity="0.0" d="m542.9449 443.41446l144.0 0l0 48.0l-144.0 0z" fill-rule="nonzero"></path><path fill="#000000" d="m588.9485 473.57852l0 -13.59375l4.6875 0q1.578125 0 2.421875 0.1875q1.15625 0.265625 1.984375 0.96875q1.078125 0.921875 1.609375 2.34375q0.53125 1.40625 0.53125 3.21875q0 1.546875 -0.359375 2.75q-0.359375 1.1875 -0.921875 1.984375q-0.5625 0.78125 -1.234375 1.234375q-0.671875 0.4375 -1.625 0.671875q-0.953125 0.234375 -2.1875 0.234375l-4.90625 0zm1.796875 -1.609375l2.90625 0q1.34375 0 2.109375 -0.25q0.765625 -0.25 1.21875 -0.703125q0.640625 -0.640625 1.0 -1.71875q0.359375 -1.078125 0.359375 -2.625q0 -2.125 -0.703125 -3.265625q-0.703125 -1.15625 -1.703125 -1.546875q-0.71875 -0.28125 -2.328125 -0.28125l-2.859375 0l0 10.390625zm11.707336 1.609375l0 -13.59375l6.03125 0q1.8125 0 2.75 0.359375q0.953125 0.359375 1.515625 1.296875q0.5625 0.921875 0.5625 2.046875q0 1.453125 -0.9375 2.453125q-0.921875 0.984375 -2.890625 1.25q0.71875 0.34375 1.09375 0.671875q0.78125 0.734375 1.484375 1.8125l2.375 3.703125l-2.265625 0l-1.796875 -2.828125q-0.796875 -1.21875 -1.3125 -1.875q-0.5 -0.65625 -0.90625 -0.90625q-0.40625 -0.265625 -0.8125 -0.359375q-0.3125 -0.078125 -1.015625 -0.078125l-2.078125 0l0 6.046875l-1.796875 0zm1.796875 -7.59375l3.859375 0q1.234375 0 1.921875 -0.25q0.703125 -0.265625 1.0625 -0.828125q0.375 -0.5625 0.375 -1.21875q0 -0.96875 -0.703125 -1.578125q-0.703125 -0.625 -2.21875 -0.625l-4.296875 0l0 4.5zm10.144836 7.59375l5.234375 -13.59375l1.9375 0l5.5625 13.59375l-2.046875 0l-1.59375 -4.125l-5.6875 0l-1.484375 4.125l-1.921875 0zm3.921875 -5.578125l4.609375 0l-1.40625 -3.78125q-0.65625 -1.703125 -0.96875 -2.8125q-0.265625 1.3125 -0.734375 2.59375l-1.5 4.0zm9.9591675 5.578125l0 -13.59375l2.71875 0l3.21875 9.625q0.4375 1.34375 0.640625 2.015625q0.234375 -0.75 0.734375 -2.1875l3.25 -9.453125l2.421875 0l0 13.59375l-1.734375 0l0 -11.390625l-3.953125 11.390625l-1.625 0l-3.9375 -11.578125l0 11.578125l-1.734375 0z" fill-rule="nonzero"></path><path fill="#000000" fill-opacity="0.0" d="m533.3858 233.83727l163.1181 0l0 48.000015l-163.1181 0z" fill-rule="nonzero"></path><path fill="#000000" d="m548.9727 264.00134l0 -13.593765l2.71875 0l3.21875 9.625015q0.4375 1.34375 0.640625 2.015625q0.234375 -0.75 0.734375 -2.1875l3.25 -9.45314l2.421875 0l0 13.593765l-1.734375 0l0 -11.39064l-3.953125 11.39064l-1.625 0l-3.9375 -11.57814l0 11.57814l-1.734375 0zm21.822083 -1.21875q-0.9375 0.796875 -1.796875 1.125q-0.859375 0.3125 -1.84375 0.3125q-1.609375 0 -2.484375 -0.78125q-0.875 -0.796875 -0.875 -2.03125q0 -0.734375 0.328125 -1.328125q0.328125 -0.59375 0.859375 -0.953125q0.53125 -0.359375 1.203125 -0.546875q0.5 -0.140625 1.484375 -0.25q2.03125 -0.25 2.984375 -0.578125q0 -0.34375 0 -0.4375q0 -1.015625 -0.46875 -1.4375153q-0.640625 -0.5625 -1.90625 -0.5625q-1.171875 0 -1.734375 0.40625q-0.5625 0.40626526 -0.828125 1.4687653l-1.640625 -0.234375q0.234375 -1.0468903 0.734375 -1.6875153q0.515625 -0.640625 1.46875 -0.984375q0.96875 -0.359375 2.25 -0.359375q1.265625 0 2.046875 0.296875q0.78125 0.296875 1.15625 0.75q0.375 0.453125 0.515625 1.1406403q0.09375 0.421875 0.09375 1.53125l0 2.234375q0 2.328125 0.09375 2.953125q0.109375 0.609375 0.4375 1.171875l-1.75 0q-0.265625 -0.515625 -0.328125 -1.21875zm-0.140625 -3.71875q-0.90625 0.359375 -2.734375 0.625q-1.03125 0.140625 -1.453125 0.328125q-0.421875 0.1875 -0.65625 0.546875q-0.234375 0.359375 -0.234375 0.796875q0 0.671875 0.5 1.125q0.515625 0.4375 1.484375 0.4375q0.96875 0 1.71875 -0.421875q0.75 -0.4375 1.109375 -1.15625q0.265625 -0.578125 0.265625 -1.671875l0 -0.609375zm2.9694824 4.9375l3.59375 -5.125l-3.328125 -4.7343903l2.09375 0l1.515625 2.3125153q0.421875 0.65625 0.671875 1.109375q0.421875 -0.609375 0.765625 -1.09375l1.65625 -2.3281403l1.984375 0l-3.390625 4.6406403l3.65625 5.21875l-2.046875 0l-2.03125 -3.0625l-0.53125 -0.828125l-2.59375 3.890625l-2.015625 0zm20.359375 -4.765625l1.796875 0.453125q-0.5625 2.21875 -2.03125 3.390625q-1.46875 1.15625 -3.59375 1.15625q-2.203125 0 -3.578125 -0.890625q-1.375 -0.90625 -2.09375 -2.59375q-0.71875 -1.703125 -0.71875 -3.65625q0 -2.1250153 0.796875 -3.7031403q0.8125 -1.578125 2.3125 -2.390625q1.5 -0.828125 3.296875 -0.828125q2.046875 0 3.4375 1.046875q1.390625 1.03125 1.9375 2.90625l-1.765625 0.421875q-0.46875 -1.484375 -1.375 -2.15625q-0.90625 -0.6875 -2.265625 -0.6875q-1.5625 0 -2.625 0.75q-1.046875 0.75 -1.484375 2.03125q-0.421875 1.265625 -0.421875 2.6093903q0 1.734375 0.5 3.03125q0.515625 1.28125 1.578125 1.921875q1.078125 0.640625 2.3125 0.640625q1.515625 0 2.5625 -0.859375q1.046875 -0.875 1.421875 -2.59375zm2.9260254 -0.15625q0 -2.734375 1.53125 -4.0625153q1.265625 -1.09375 3.09375 -1.09375q2.03125 0 3.3125 1.34375q1.296875 1.3281403 1.296875 3.6718903q0 1.90625 -0.578125 3.0q-0.5625 1.078125 -1.65625 1.6875q-1.078125 0.59375 -2.375 0.59375q-2.0625 0 -3.34375 -1.328125q-1.28125 -1.328125 -1.28125 -3.8125zm1.71875 0q0 1.890625 0.828125 2.828125q0.828125 0.9375 2.078125 0.9375q1.25 0 2.0625 -0.9375q0.828125 -0.953125 0.828125 -2.890625q0 -1.828125 -0.828125 -2.765625q-0.828125 -0.93751526 -2.0625 -0.93751526q-1.25 0 -2.078125 0.93751526q-0.828125 0.9375 -0.828125 2.828125zm9.281982 4.921875l0 -9.85939l1.5 0l0 1.390625q0.453125 -0.71875 1.21875 -1.15625q0.78125 -0.453125 1.765625 -0.453125q1.09375 0 1.796875 0.453125q0.703125 0.453125 0.984375 1.28125q1.171875 -1.734375 3.046875 -1.734375q1.46875 0 2.25 0.8125q0.796875 0.8125 0.796875 2.5000153l0 6.765625l-1.671875 0l0 -6.203125q0 -1.0 -0.15625 -1.4375q-0.15625 -0.45314026 -0.59375 -0.71876526q-0.421875 -0.265625 -1.0 -0.265625q-1.03125 0 -1.71875 0.68751526q-0.6875 0.6875 -0.6875 2.21875l0 5.71875l-1.671875 0l0 -6.40625q0 -1.109375 -0.40625 -1.6562653q-0.40625 -0.5625 -1.34375 -0.5625q-0.703125 0 -1.3125 0.375q-0.59375 0.35939026 -0.859375 1.0781403q-0.265625 0.71875 -0.265625 2.0625l0 5.109375l-1.671875 0zm15.5408325 3.78125l0 -13.64064l1.53125 0l0 1.28125q0.53125 -0.75 1.203125 -1.125q0.6875 -0.375 1.640625 -0.375q1.265625 0 2.234375 0.65625q0.96875 0.640625 1.453125 1.8281403q0.5 1.1875 0.5 2.59375q0 1.515625 -0.546875 2.734375q-0.546875 1.203125 -1.578125 1.84375q-1.03125 0.640625 -2.171875 0.640625q-0.84375 0 -1.515625 -0.34375q-0.65625 -0.359375 -1.078125 -0.890625l0 4.796875l-1.671875 0zm1.515625 -8.65625q0 1.90625 0.765625 2.8125q0.78125 0.90625 1.875 0.90625q1.109375 0 1.890625 -0.9375q0.796875 -0.9375 0.796875 -2.921875q0 -1.875 -0.78125 -2.8125q-0.765625 -0.93751526 -1.84375 -0.93751526q-1.0625 0 -1.890625 1.0000153q-0.8125 1.0 -0.8125 2.890625zm8.875671 -6.8125153l0 -1.90625l1.671875 0l0 1.90625l-1.671875 0zm0 11.687515l0 -9.85939l1.671875 0l0 9.85939l-1.671875 0zm4.0979614 0l0 -13.593765l1.671875 0l0 13.593765l-1.671875 0zm10.926086 -3.171875l1.71875 0.21875q-0.40625 1.5 -1.515625 2.34375q-1.09375 0.828125 -2.8125 0.828125q-2.15625 0 -3.421875 -1.328125q-1.265625 -1.328125 -1.265625 -3.734375q0 -2.484375 1.265625 -3.8593903q1.28125 -1.375 3.328125 -1.375q1.984375 0 3.234375 1.34375q1.25 1.3437653 1.25 3.7968903q0 0.140625 -0.015625 0.4375l-7.34375 0q0.09375 1.625 0.921875 2.484375q0.828125 0.859375 2.0625 0.859375q0.90625 0 1.546875 -0.46875q0.65625 -0.484375 1.046875 -1.546875zm-5.484375 -2.703125l5.5 0q-0.109375 -1.234375 -0.625 -1.859375q-0.796875 -0.96876526 -2.078125 -0.96876526q-1.140625 0 -1.9375 0.78126526q-0.78125 0.765625 -0.859375 2.046875zm9.094482 5.875l0 -9.85939l1.5 0l0 1.5q0.578125 -1.046875 1.0625 -1.375q0.484375 -0.34375 1.078125 -0.34375q0.84375 0 1.71875 0.546875l-0.578125 1.5468903q-0.609375 -0.35939026 -1.234375 -0.35939026q-0.546875 0 -0.984375 0.328125q-0.421875 0.32814026 -0.609375 0.90626526q-0.28125 0.890625 -0.28125 1.953125l0 5.15625l-1.671875 0zm6.4782715 0l0 -13.593765l6.03125 0q1.8125 0 2.75 0.359375q0.953125 0.359375 1.515625 1.296875q0.5625 0.921875 0.5625 2.046875q0 1.453125 -0.9375 2.4531403q-0.921875 0.984375 -2.890625 1.25q0.71875 0.34375 1.09375 0.671875q0.78125 0.734375 1.484375 1.8125l2.375 3.703125l-2.265625 0l-1.796875 -2.828125q-0.796875 -1.21875 -1.3125 -1.875q-0.5 -0.65625 -0.90625 -0.90625q-0.40625 -0.265625 -0.8125 -0.359375q-0.3125 -0.078125 -1.015625 -0.078125l-2.078125 0l0 6.046875l-1.796875 0zm1.796875 -7.59375l3.859375 0q1.234375 0 1.921875 -0.25q0.703125 -0.26564026 1.0625 -0.82814026q0.375 -0.5625 0.375 -1.21875q0 -0.96875 -0.703125 -1.578125q-0.703125 -0.625 -2.21875 -0.625l-4.296875 0l0 4.5000153zm15.097961 7.59375l0 -12.000015l-4.46875 0l0 -1.59375l10.765625 0l0 1.59375l-4.5 0l0 12.000015l-1.796875 0z" fill-rule="nonzero"></path><path fill="#000000" fill-opacity="0.0" d="m536.22046 208.41995l163.1181 0l0 48.0l-163.1181 0z" fill-rule="nonzero"></path><path fill="#000000" d="m572.5315 238.58401l0 -13.59375l2.71875 0l3.21875 9.625q0.4375 1.34375 0.640625 2.015625q0.234375 -0.75 0.734375 -2.1875l3.25 -9.453125l2.421875 0l0 13.59375l-1.734375 0l0 -11.390625l-3.953125 11.390625l-1.625 0l-3.9375 -11.578125l0 11.578125l-1.734375 0zm21.822021 -1.21875q-0.9375 0.796875 -1.796875 1.125q-0.859375 0.3125 -1.84375 0.3125q-1.609375 0 -2.484375 -0.78125q-0.875 -0.796875 -0.875 -2.03125q0 -0.734375 0.328125 -1.328125q0.328125 -0.59375 0.859375 -0.953125q0.53125 -0.359375 1.203125 -0.546875q0.5 -0.140625 1.484375 -0.25q2.03125 -0.25 2.984375 -0.578125q0 -0.34375 0 -0.4375q0 -1.015625 -0.46875 -1.4375q-0.640625 -0.5625 -1.90625 -0.5625q-1.171875 0 -1.734375 0.40625q-0.5625 0.40625 -0.828125 1.46875l-1.640625 -0.234375q0.234375 -1.046875 0.734375 -1.6875q0.515625 -0.640625 1.46875 -0.984375q0.96875 -0.359375 2.25 -0.359375q1.265625 0 2.046875 0.296875q0.78125 0.296875 1.15625 0.75q0.375 0.453125 0.515625 1.140625q0.09375 0.421875 0.09375 1.53125l0 2.234375q0 2.328125 0.09375 2.953125q0.109375 0.609375 0.4375 1.171875l-1.75 0q-0.265625 -0.515625 -0.328125 -1.21875zm-0.140625 -3.71875q-0.90625 0.359375 -2.734375 0.625q-1.03125 0.140625 -1.453125 0.328125q-0.421875 0.1875 -0.65625 0.546875q-0.234375 0.359375 -0.234375 0.796875q0 0.671875 0.5 1.125q0.515625 0.4375 1.484375 0.4375q0.96875 0 1.71875 -0.421875q0.75 -0.4375 1.109375 -1.15625q0.265625 -0.578125 0.265625 -1.671875l0 -0.609375zm2.9694824 4.9375l3.59375 -5.125l-3.328125 -4.734375l2.09375 0l1.515625 2.3125q0.421875 0.65625 0.671875 1.109375q0.421875 -0.609375 0.765625 -1.09375l1.65625 -2.328125l1.984375 0l-3.390625 4.640625l3.65625 5.21875l-2.046875 0l-2.03125 -3.0625l-0.53125 -0.828125l-2.59375 3.890625l-2.015625 0zm17.1875 -3.171875l1.71875 0.21875q-0.40625 1.5 -1.515625 2.34375q-1.09375 0.828125 -2.8125 0.828125q-2.15625 0 -3.421875 -1.328125q-1.265625 -1.328125 -1.265625 -3.734375q0 -2.484375 1.265625 -3.859375q1.28125 -1.375 3.328125 -1.375q1.984375 0 3.234375 1.34375q1.25 1.34375 1.25 3.796875q0 0.140625 -0.015625 0.4375l-7.34375 0q0.09375 1.625 0.921875 2.484375q0.828125 0.859375 2.0625 0.859375q0.90625 0 1.546875 -0.46875q0.65625 -0.484375 1.046875 -1.546875zm-5.484375 -2.703125l5.5 0q-0.109375 -1.234375 -0.625 -1.859375q-0.796875 -0.96875 -2.078125 -0.96875q-1.140625 0 -1.9375 0.78125q-0.78125 0.765625 -0.859375 2.046875zm9.078857 5.875l0 -13.59375l1.671875 0l0 13.59375l-1.671875 0zm10.926086 -3.171875l1.71875 0.21875q-0.40625 1.5 -1.515625 2.34375q-1.09375 0.828125 -2.8125 0.828125q-2.15625 0 -3.421875 -1.328125q-1.265625 -1.328125 -1.265625 -3.734375q0 -2.484375 1.265625 -3.859375q1.28125 -1.375 3.328125 -1.375q1.984375 0 3.234375 1.34375q1.25 1.34375 1.25 3.796875q0 0.140625 -0.015625 0.4375l-7.34375 0q0.09375 1.625 0.921875 2.484375q0.828125 0.859375 2.0625 0.859375q0.90625 0 1.546875 -0.46875q0.65625 -0.484375 1.046875 -1.546875zm-5.484375 -2.703125l5.5 0q-0.109375 -1.234375 -0.625 -1.859375q-0.796875 -0.96875 -2.078125 -0.96875q-1.140625 0 -1.9375 0.78125q-0.78125 0.765625 -0.859375 2.046875zm9.094421 5.875l0 -9.859375l1.5 0l0 1.5q0.578125 -1.046875 1.0625 -1.375q0.484375 -0.34375 1.078125 -0.34375q0.84375 0 1.71875 0.546875l-0.578125 1.546875q-0.609375 -0.359375 -1.234375 -0.359375q-0.546875 0 -0.984375 0.328125q-0.421875 0.328125 -0.609375 0.90625q-0.28125 0.890625 -0.28125 1.953125l0 5.15625l-1.671875 0zm5.9002075 -6.625q0 -3.390625 1.8125 -5.296875q1.828125 -1.921875 4.703125 -1.921875q1.875 0 3.390625 0.90625q1.515625 0.890625 2.296875 2.5q0.796875 1.609375 0.796875 3.65625q0 2.0625 -0.84375 3.703125q-0.828125 1.625 -2.359375 2.46875q-1.53125 0.84375 -3.296875 0.84375q-1.921875 0 -3.4375 -0.921875q-1.5 -0.9375 -2.28125 -2.53125q-0.78125 -1.609375 -0.78125 -3.40625zm1.859375 0.03125q0 2.453125 1.3125 3.875q1.328125 1.40625 3.3125 1.40625q2.03125 0 3.34375 -1.421875q1.3125 -1.4375 1.3125 -4.0625q0 -1.65625 -0.5625 -2.890625q-0.546875 -1.234375 -1.640625 -1.921875q-1.078125 -0.6875 -2.421875 -0.6875q-1.90625 0 -3.28125 1.3125q-1.375 1.3125 -1.375 4.390625zm12.589539 2.21875l1.6875 -0.140625q0.125 1.015625 0.5625 1.671875q0.4375 0.65625 1.359375 1.0625q0.9375 0.40625 2.09375 0.40625q1.03125 0 1.8125 -0.3125q0.796875 -0.3125 1.1875 -0.84375q0.390625 -0.53125 0.390625 -1.15625q0 -0.640625 -0.375 -1.109375q-0.375 -0.484375 -1.234375 -0.8125q-0.546875 -0.21875 -2.421875 -0.65625q-1.875 -0.453125 -2.625 -0.859375q-0.96875 -0.515625 -1.453125 -1.265625q-0.46875 -0.75 -0.46875 -1.6875q0 -1.03125 0.578125 -1.921875q0.59375 -0.90625 1.703125 -1.359375q1.125 -0.46875 2.5 -0.46875q1.515625 0 2.671875 0.484375q1.15625 0.484375 1.765625 1.4375q0.625 0.9375 0.671875 2.140625l-1.71875 0.125q-0.140625 -1.28125 -0.953125 -1.9375q-0.796875 -0.671875 -2.359375 -0.671875q-1.625 0 -2.375 0.609375q-0.75 0.59375 -0.75 1.4375q0 0.734375 0.53125 1.203125q0.515625 0.46875 2.703125 0.96875q2.203125 0.5 3.015625 0.875q1.1875 0.546875 1.75 1.390625q0.578125 0.828125 0.578125 1.921875q0 1.09375 -0.625 2.0625q-0.625 0.953125 -1.796875 1.484375q-1.15625 0.53125 -2.609375 0.53125q-1.84375 0 -3.09375 -0.53125q-1.25 -0.546875 -1.96875 -1.625q-0.703125 -1.078125 -0.734375 -2.453125z" fill-rule="nonzero"></path><path fill="#f4cccc" d="m418.64566 243.82152l10.787415 -10.787399l0 5.3937073l101.13388 0l0 -5.3937073l10.7873535 10.787399l-10.7873535 10.787399l0 -5.393692l-101.13388 0l0 5.393692z" fill-rule="nonzero"></path><path stroke="#000000" stroke-width="2.0" stroke-linejoin="round" stroke-linecap="butt" d="m418.64566 243.82152l10.787415 -10.787399l0 5.3937073l101.13388 0l0 -5.3937073l10.7873535 10.787399l-10.7873535 10.787399l0 -5.393692l-101.13388 0l0 5.393692z" fill-rule="nonzero"></path><path fill="#000000" fill-opacity="0.0" d="m412.09152 249.29424l144.00003 0l0 35.244095l-144.00003 0z" fill-rule="nonzero"></path><path fill="#000000" d="m464.8225 273.08035l0 -13.59375l5.125 0q1.359375 0 2.078125 0.125q1.0 0.171875 1.671875 0.640625q0.671875 0.46875 1.078125 1.3125q0.421875 0.84375 0.421875 1.84375q0 1.734375 -1.109375 2.9375q-1.09375 1.203125 -3.984375 1.203125l-3.484375 0l0 5.53125l-1.796875 0zm1.796875 -7.140625l3.515625 0q1.75 0 2.46875 -0.640625q0.734375 -0.65625 0.734375 -1.828125q0 -0.859375 -0.4375 -1.46875q-0.421875 -0.609375 -1.125 -0.796875q-0.453125 -0.125 -1.671875 -0.125l-3.484375 0l0 4.859375zm20.349823 2.375l1.796875 0.453125q-0.5625 2.21875 -2.03125 3.390625q-1.46875 1.15625 -3.59375 1.15625q-2.203125 0 -3.578125 -0.890625q-1.375 -0.90625 -2.09375 -2.59375q-0.71875 -1.703125 -0.71875 -3.65625q0 -2.125 0.796875 -3.703125q0.8125 -1.578125 2.3125 -2.390625q1.5 -0.828125 3.296875 -0.828125q2.046875 0 3.4375 1.046875q1.390625 1.03125 1.9375 2.90625l-1.765625 0.421875q-0.46875 -1.484375 -1.375 -2.15625q-0.90625 -0.6875 -2.265625 -0.6875q-1.5625 0 -2.625 0.75q-1.046875 0.75 -1.484375 2.03125q-0.421875 1.265625 -0.421875 2.609375q0 1.734375 0.5 3.03125q0.515625 1.28125 1.578125 1.921875q1.078125 0.640625 2.3125 0.640625q1.515625 0 2.5625 -0.859375q1.046875 -0.875 1.421875 -2.59375zm4.0667114 4.765625l0 -13.59375l1.8125 0l0 13.59375l-1.8125 0zm11.417664 -3.171875l1.71875 0.21875q-0.40625 1.5 -1.515625 2.34375q-1.09375 0.828125 -2.8125 0.828125q-2.15625 0 -3.421875 -1.328125q-1.265625 -1.328125 -1.265625 -3.734375q0 -2.484375 1.265625 -3.859375q1.28125 -1.375 3.328125 -1.375q1.984375 0 3.234375 1.34375q1.25 1.34375 1.25 3.796875q0 0.140625 -0.015625 0.4375l-7.34375 0q0.09375 1.625 0.921875 2.484375q0.828125 0.859375 2.0625 0.859375q0.90625 0 1.546875 -0.46875q0.65625 -0.484375 1.046875 -1.546875zm-5.484375 -2.703125l5.5 0q-0.109375 -1.234375 -0.625 -1.859375q-0.796875 -0.96875 -2.078125 -0.96875q-1.140625 0 -1.9375 0.78125q-0.78125 0.765625 -0.859375 2.046875z" fill-rule="nonzero"></path><path fill="#f4cccc" d="m336.8763 440.5457l-8.740143 -8.740143l4.370056 0l0 -30.992126l-4.370056 0l8.740143 -8.740173l8.740143 8.740173l-4.370056 0l0 30.992126l4.370056 0z" fill-rule="nonzero"></path><path stroke="#000000" stroke-width="2.0" stroke-linejoin="round" stroke-linecap="butt" d="m336.8763 440.5457l-8.740143 -8.740143l4.370056 0l0 -30.992126l-4.370056 0l8.740143 -8.740173l8.740143 8.740173l-4.370056 0l0 30.992126l4.370056 0z" fill-rule="nonzero"></path><path fill="#f4cccc" d="m614.9449 433.33334l-10.787415 -10.787415l5.393738 0l0 -8.251953l-5.393738 0l10.787415 -10.787415l10.787415 10.787415l-5.393738 0l0 8.251953l5.393738 0z" fill-rule="nonzero"></path><path stroke="#000000" stroke-width="2.0" stroke-linejoin="round" stroke-linecap="butt" d="m614.9449 433.33334l-10.787415 -10.787415l5.393738 0l0 -8.251953l-5.393738 0l10.787415 -10.787415l10.787415 10.787415l-5.393738 0l0 8.251953l5.393738 0z" fill-rule="nonzero"></path><path fill="#f4cccc" d="m614.9449 321.03412l-10.787415 -10.787384l5.393738 0l0 -18.236237l-5.393738 0l10.787415 -10.787384l10.787415 10.787384l-5.393738 0l0 18.236237l5.393738 0z" fill-rule="nonzero"></path><path stroke="#000000" stroke-width="2.0" stroke-linejoin="round" stroke-linecap="butt" d="m614.9449 321.03412l-10.787415 -10.787384l5.393738 0l0 -18.236237l-5.393738 0l10.787415 -10.787384l10.787415 10.787384l-5.393738 0l0 18.236237l5.393738 0z" fill-rule="nonzero"></path></g></svg>

