<?xml version="1.0" standalone="yes"?>

<svg version="1.1" viewBox="0.0 0.0 362.0 301.0" fill="none" stroke="none" stroke-linecap="square" stroke-miterlimit="10" xmlns="http://www.w3.org/2000/svg" xmlns:xlink="http://www.w3.org/1999/xlink"><clipPath id="p.0"><path d="m0 0l362.0 0l0 301.0l-362.0 0l0 -301.0z" clip-rule="nonzero"></path></clipPath><g clip-path="url(#p.0)"><path fill="#000000" fill-opacity="0.0" d="m0 0l362.5748 0l0 301.98688l-362.5748 0z" fill-rule="nonzero"></path><path fill="#fff2cc" d="m46.12861 196.26247l269.95276 0l0 96.000015l-269.95276 0z" fill-rule="nonzero"></path><path fill="#000000" d="m76.32904 250.42653l0 -13.59375l9.84375 0l0 1.59375l-8.046875 0l0 4.171875l7.53125 0l0 1.59375l-7.53125 0l0 4.625l8.359375 0l0 1.609375l-10.15625 0zm11.084198 0l3.59375 -5.125l-3.328125 -4.734375l2.09375 0l1.515625 2.3125q0.421875 0.65625 0.671875 1.109375q0.421875 -0.609375 0.765625 -1.09375l1.65625 -2.328125l1.984375 0l-3.390625 4.640625l3.65625 5.21875l-2.046875 0l-2.03125 -3.0625l-0.53125 -0.828125l-2.59375 3.890625l-2.015625 0zm14.09375 -1.5l0.234375 1.484375q-0.703125 0.140625 -1.265625 0.140625q-0.90625 0 -1.40625 -0.28125q-0.5 -0.296875 -0.703125 -0.75q-0.203125 -0.46875 -0.203125 -1.984375l0 -5.65625l-1.234375 0l0 -1.3125l1.234375 0l0 -2.4375l1.65625 -1.0l0 3.4375l1.6875 0l0 1.3125l-1.6875 0l0 5.75q0 0.71875 0.078125 0.921875q0.09375 0.203125 0.296875 0.328125q0.203125 0.125 0.578125 0.125q0.265625 0 0.734375 -0.078125zm8.277054 -1.671875l1.71875 0.21875q-0.40625 1.5 -1.515625 2.34375q-1.09375 0.828125 -2.8125 0.828125q-2.15625 0 -3.421875 -1.328125q-1.265625 -1.328125 -1.265625 -3.734375q0 -2.484375 1.265625 -3.859375q1.28125 -1.375 3.328125 -1.375q1.984375 0 3.234375 1.34375q1.25 1.34375 1.25 3.796875q0 0.140625 -0.015625 0.4375l-7.34375 0q0.09375 1.625 0.921875 2.484375q0.828125 0.859375 2.0625 0.859375q0.90625 0 1.546875 -0.46875q0.65625 -0.484375 1.046875 -1.546875zm-5.484375 -2.703125l5.5 0q-0.109375 -1.234375 -0.625 -1.859375q-0.796875 -0.96875 -2.078125 -0.96875q-1.140625 0 -1.9375 0.78125q-0.78125 0.765625 -0.859375 2.046875zm9.094467 5.875l0 -9.859375l1.5 0l0 1.5q0.578125 -1.046875 1.0625 -1.375q0.484375 -0.34375 1.078125 -0.34375q0.84375 0 1.71875 0.546875l-0.578125 1.546875q-0.609375 -0.359375 -1.234375 -0.359375q-0.546875 0 -0.984375 0.328125q-0.421875 0.328125 -0.609375 0.90625q-0.28125 0.890625 -0.28125 1.953125l0 5.15625l-1.671875 0zm6.228302 0l0 -9.859375l1.5 0l0 1.40625q1.09375 -1.625 3.140625 -1.625q0.890625 0 1.640625 0.328125q0.75 0.3125 1.109375 0.84375q0.375 0.515625 0.53125 1.21875q0.09375 0.46875 0.09375 1.625l0 6.0625l-1.671875 0l0 -6.0q0 -1.015625 -0.203125 -1.515625q-0.1875 -0.515625 -0.6875 -0.8125q-0.5 -0.296875 -1.171875 -0.296875q-1.0625 0 -1.84375 0.671875q-0.765625 0.671875 -0.765625 2.578125l0 5.375l-1.671875 0zm16.813217 -1.21875q-0.9375 0.796875 -1.796875 1.125q-0.859375 0.3125 -1.84375 0.3125q-1.609375 0 -2.484375 -0.78125q-0.875 -0.796875 -0.875 -2.03125q0 -0.734375 0.328125 -1.328125q0.328125 -0.59375 0.859375 -0.953125q0.53125 -0.359375 1.203125 -0.546875q0.5 -0.140625 1.484375 -0.25q2.03125 -0.25 2.984375 -0.578125q0 -0.34375 0 -0.4375q0 -1.015625 -0.46875 -1.4375q-0.640625 -0.5625 -1.90625 -0.5625q-1.171875 0 -1.734375 0.40625q-0.5625 0.40625 -0.828125 1.46875l-1.640625 -0.234375q0.234375 -1.046875 0.734375 -1.6875q0.515625 -0.640625 1.46875 -0.984375q0.96875 -0.359375 2.25 -0.359375q1.265625 0 2.046875 0.296875q0.78125 0.296875 1.15625 0.75q0.375 0.453125 0.515625 1.140625q0.09375 0.421875 0.09375 1.53125l0 2.234375q0 2.328125 0.09375 2.953125q0.109375 0.609375 0.4375 1.171875l-1.75 0q-0.265625 -0.515625 -0.328125 -1.21875zm-0.140625 -3.71875q-0.90625 0.359375 -2.734375 0.625q-1.03125 0.140625 -1.453125 0.328125q-0.421875 0.1875 -0.65625 0.546875q-0.234375 0.359375 -0.234375 0.796875q0 0.671875 0.5 1.125q0.515625 0.4375 1.484375 0.4375q0.96875 0 1.71875 -0.421875q0.75 -0.4375 1.109375 -1.15625q0.265625 -0.578125 0.265625 -1.671875l0 -0.609375zm4.047592 4.9375l0 -13.59375l1.671875 0l0 13.59375l-1.671875 0zm9.03125 -6.625q0 -3.390625 1.8125 -5.296875q1.828125 -1.921875 4.703125 -1.921875q1.875 0 3.390625 0.90625q1.515625 0.890625 2.296875 2.5q0.796875 1.609375 0.796875 3.65625q0 2.0625 -0.84375 3.703125q-0.828125 1.625 -2.359375 2.46875q-1.53125 0.84375 -3.296875 0.84375q-1.921875 0 -3.4375 -0.921875q-1.5 -0.9375 -2.28125 -2.53125q-0.78125 -1.609375 -0.78125 -3.40625zm1.859375 0.03125q0 2.453125 1.3125 3.875q1.328125 1.40625 3.3125 1.40625q2.03125 0 3.34375 -1.421875q1.3125 -1.4375 1.3125 -4.0625q0 -1.65625 -0.5625 -2.890625q-0.546875 -1.234375 -1.640625 -1.921875q-1.078125 -0.6875 -2.421875 -0.6875q-1.90625 0 -3.28125 1.3125q-1.375 1.3125 -1.375 4.390625zm12.980179 6.59375l0 -9.859375l1.5 0l0 1.40625q1.09375 -1.625 3.140625 -1.625q0.890625 0 1.640625 0.328125q0.75 0.3125 1.109375 0.84375q0.375 0.515625 0.53125 1.21875q0.09375 0.46875 0.09375 1.625l0 6.0625l-1.671875 0l0 -6.0q0 -1.015625 -0.203125 -1.515625q-0.1875 -0.515625 -0.6875 -0.8125q-0.5 -0.296875 -1.171875 -0.296875q-1.0625 0 -1.84375 0.671875q-0.765625 0.671875 -0.765625 2.578125l0 5.375l-1.671875 0zm9.735092 -4.078125l0 -1.6875l5.1250153 0l0 1.6875l-5.1250153 0zm8.400192 4.078125l-1.546875 0l0 -13.59375l1.65625 0l0 4.84375q1.0625 -1.328125 2.703125 -1.328125q0.90625 0 1.71875 0.375q0.8125 0.359375 1.328125 1.03125q0.53125 0.65625 0.828125 1.59375q0.296875 0.9375 0.296875 2.0q0 2.53125 -1.25 3.921875q-1.25 1.375 -3.0 1.375q-1.75 0 -2.734375 -1.453125l0 1.234375zm-0.015625 -5.0q0 1.765625 0.46875 2.5625q0.796875 1.28125 2.140625 1.28125q1.09375 0 1.890625 -0.9375q0.796875 -0.953125 0.796875 -2.84375q0 -1.921875 -0.765625 -2.84375q-0.765625 -0.921875 -1.84375 -0.921875q-1.09375 0 -1.890625 0.953125q-0.796875 0.953125 -0.796875 2.75zm8.219452 0.078125q0 -2.734375 1.53125 -4.0625q1.265625 -1.09375 3.09375 -1.09375q2.03125 0 3.3125 1.34375q1.296875 1.328125 1.296875 3.671875q0 1.90625 -0.578125 3.0q-0.5625 1.078125 -1.65625 1.6875q-1.078125 0.59375 -2.375 0.59375q-2.0625 0 -3.34375 -1.328125q-1.28125 -1.328125 -1.28125 -3.8125zm1.71875 0q0 1.890625 0.828125 2.828125q0.828125 0.9375 2.078125 0.9375q1.25 0 2.0625 -0.9375q0.828125 -0.953125 0.828125 -2.890625q0 -1.828125 -0.828125 -2.765625q-0.828125 -0.9375 -2.0625 -0.9375q-1.25 0 -2.078125 0.9375q-0.828125 0.9375 -0.828125 2.828125zm15.719482 3.703125q-0.9375 0.796875 -1.796875 1.125q-0.859375 0.3125 -1.84375 0.3125q-1.609375 0 -2.484375 -0.78125q-0.875 -0.796875 -0.875 -2.03125q0 -0.734375 0.328125 -1.328125q0.328125 -0.59375 0.859375 -0.953125q0.53125 -0.359375 1.203125 -0.546875q0.5 -0.140625 1.484375 -0.25q2.03125 -0.25 2.984375 -0.578125q0 -0.34375 0 -0.4375q0 -1.015625 -0.46875 -1.4375q-0.640625 -0.5625 -1.90625 -0.5625q-1.171875 0 -1.734375 0.40625q-0.5625 0.40625 -0.828125 1.46875l-1.640625 -0.234375q0.234375 -1.046875 0.734375 -1.6875q0.515625 -0.640625 1.46875 -0.984375q0.96875 -0.359375 2.25 -0.359375q1.265625 0 2.046875 0.296875q0.78125 0.296875 1.15625 0.75q0.375 0.453125 0.515625 1.140625q0.09375 0.421875 0.09375 1.53125l0 2.234375q0 2.328125 0.09375 2.953125q0.109375 0.609375 0.4375 1.171875l-1.75 0q-0.265625 -0.515625 -0.328125 -1.21875zm-0.140625 -3.71875q-0.90625 0.359375 -2.734375 0.625q-1.03125 0.140625 -1.453125 0.328125q-0.421875 0.1875 -0.65625 0.546875q-0.234375 0.359375 -0.234375 0.796875q0 0.671875 0.5 1.125q0.515625 0.4375 1.484375 0.4375q0.96875 0 1.71875 -0.421875q0.75 -0.4375 1.109375 -1.15625q0.265625 -0.578125 0.265625 -1.671875l0 -0.609375zm4.063202 4.9375l0 -9.859375l1.5 0l0 1.5q0.578125 -1.046875 1.0625 -1.375q0.484375 -0.34375 1.078125 -0.34375q0.84375 0 1.71875 0.546875l-0.578125 1.546875q-0.609375 -0.359375 -1.234375 -0.359375q-0.546875 0 -0.984375 0.328125q-0.421875 0.328125 -0.609375 0.90625q-0.28125 0.890625 -0.28125 1.953125l0 5.15625l-1.671875 0zm12.618927 0l0 -1.25q-0.9375 1.46875 -2.75 1.46875q-1.171875 0 -2.171875 -0.640625q-0.984375 -0.65625 -1.53125 -1.8125q-0.53125 -1.171875 -0.53125 -2.6875q0 -1.46875 0.484375 -2.671875q0.5 -1.203125 1.46875 -1.84375q0.984375 -0.640625 2.203125 -0.640625q0.890625 0 1.578125 0.375q0.703125 0.375 1.140625 0.984375l0 -4.875l1.65625 0l0 13.59375l-1.546875 0zm-5.28125 -4.921875q0 1.890625 0.796875 2.828125q0.8125 0.9375 1.890625 0.9375q1.09375 0 1.859375 -0.890625q0.765625 -0.890625 0.765625 -2.734375q0 -2.015625 -0.78125 -2.953125q-0.78125 -0.953125 -1.921875 -0.953125q-1.109375 0 -1.859375 0.90625q-0.75 0.90625 -0.75 2.859375zm14.668396 4.921875l0 -13.59375l4.6875 0q1.578125 0 2.421875 0.1875q1.15625 0.265625 1.984375 0.96875q1.078125 0.921875 1.609375 2.34375q0.53125 1.40625 0.53125 3.21875q0 1.546875 -0.359375 2.75q-0.359375 1.1875 -0.921875 1.984375q-0.5625 0.78125 -1.234375 1.234375q-0.671875 0.4375 -1.625 0.671875q-0.953125 0.234375 -2.1875 0.234375l-4.90625 0zm1.796875 -1.609375l2.90625 0q1.34375 0 2.109375 -0.25q0.765625 -0.25 1.21875 -0.703125q0.640625 -0.640625 1.0 -1.71875q0.359375 -1.078125 0.359375 -2.625q0 -2.125 -0.703125 -3.265625q-0.703125 -1.15625 -1.703125 -1.546875q-0.71875 -0.28125 -2.328125 -0.28125l-2.859375 0l0 10.390625zm11.707336 1.609375l0 -13.59375l6.03125 0q1.8125 0 2.7499847 0.359375q0.953125 0.359375 1.515625 1.296875q0.5625 0.921875 0.5625 2.046875q0 1.453125 -0.9375 2.453125q-0.921875 0.984375 -2.8906097 1.25q0.71875 0.34375 1.09375 0.671875q0.78123474 0.734375 1.4843597 1.8125l2.375 3.703125l-2.265625 0l-1.7968597 -2.828125q-0.796875 -1.21875 -1.3125 -1.875q-0.5 -0.65625 -0.90625 -0.90625q-0.40625 -0.265625 -0.8125 -0.359375q-0.3125 -0.078125 -1.015625 -0.078125l-2.078125 0l0 6.046875l-1.796875 0zm1.796875 -7.59375l3.859375 0q1.234375 0 1.921875 -0.25q0.703125 -0.265625 1.0624847 -0.828125q0.375 -0.5625 0.375 -1.21875q0 -0.96875 -0.70310974 -1.578125q-0.703125 -0.625 -2.21875 -0.625l-4.296875 0l0 4.5zm10.144791 7.59375l5.234375 -13.59375l1.9375 0l5.5625 13.59375l-2.046875 0l-1.59375 -4.125l-5.6875 0l-1.484375 4.125l-1.921875 0zm3.921875 -5.578125l4.609375 0l-1.40625 -3.78125q-0.65625 -1.703125 -0.96875 -2.8125q-0.265625 1.3125 -0.734375 2.59375l-1.5 4.0zm9.959198 5.578125l0 -13.59375l2.71875 0l3.21875 9.625q0.4375 1.34375 0.640625 2.015625q0.234375 -0.75 0.734375 -2.1875l3.25 -9.453125l2.421875 0l0 13.59375l-1.734375 0l0 -11.390625l-3.953125 11.390625l-1.625 0l-3.9375 -11.578125l0 11.578125l-1.734375 0z" fill-rule="nonzero"></path><path fill="#cfe2f3" d="m47.269028 11.398951l265.85828 0l0 157.03937l-265.85828 0z" fill-rule="nonzero"></path><path fill="#000000" fill-opacity="0.0" d="m45.42936 89.91863l-14.672884 0l0.34965706 154.8013l15.021873 0" fill-rule="nonzero"></path><path stroke="#434343" stroke-width="2.0" stroke-linejoin="round" stroke-linecap="butt" d="m45.42936 89.91863l-14.672884 0l0.34965706 154.8013l8.167698 0" fill-rule="evenodd"></path><path fill="#434343" stroke="#434343" stroke-width="2.0" stroke-linecap="butt" d="m39.27383 244.71992l-2.2491684 2.2491608l6.1795387 -2.2491608l-6.1795387 -2.249176z" fill-rule="evenodd"></path><path fill="#000000" fill-opacity="0.0" d="m315.24933 244.71503l18.62439 0l0 -160.16647l-18.170563 0" fill-rule="nonzero"></path><path stroke="#434343" stroke-width="2.0" stroke-linejoin="round" stroke-linecap="butt" d="m315.24933 244.71501l18.62439 0l0 -160.16646l-11.316406 0" fill-rule="evenodd"></path><path fill="#434343" stroke="#434343" stroke-width="2.0" stroke-linecap="butt" d="m322.5573 84.54855l2.249176 -2.2491608l-6.179535 2.2491608l6.179535 2.2491684z" fill-rule="evenodd"></path><path fill="#d9ead3" d="m182.12941 68.50074l0 0c0 -8.862648 8.9613495 -16.047241 20.015747 -16.047241l0 0c11.054382 0 20.015747 7.184593 20.015747 16.047241l0 0c0 8.862648 -8.961365 16.047249 -20.015747 16.047249l0 0c-11.054398 0 -20.015747 -7.184601 -20.015747 -16.047249z" fill-rule="nonzero"></path><path fill="#000000" d="m201.7575 72.46168l0 -3.71875l-3.703125 0l0 -1.5625l3.703125 0l0 -3.703125l1.578125 0l0 3.703125l3.6875 0l0 1.5625l-3.6875 0l0 3.71875l-1.578125 0z" fill-rule="nonzero"></path><path fill="#d9ead3" d="m181.09396 146.80055l0 0c0 -8.86264 8.961365 -16.047241 20.015747 -16.047241l0 0c11.054398 0 20.015762 7.184601 20.015762 16.047241l0 0c0 8.862656 -8.961365 16.047241 -20.015762 16.047241l0 0c-11.054382 0 -20.015747 -7.1845856 -20.015747 -16.047241z" fill-rule="nonzero"></path><path fill="#000000" d="m196.56583 148.88649l0 -1.6875l5.125 0l0 1.6875l-5.125 0z" fill-rule="nonzero"></path><path fill="#d9ead3" d="m261.08005 116.76642l0 0c0 -8.862648 8.961365 -16.047249 20.015747 -16.047249l0 0c11.054413 0 20.015747 7.184601 20.015747 16.047249l0 0c0 8.862648 -8.961334 16.047241 -20.015747 16.047241l0 0c-11.054382 0 -20.015747 -7.184593 -20.015747 -16.047241z" fill-rule="nonzero"></path><path fill="#000000" d="m276.5519 118.852356l0 -1.6875l5.125 0l0 1.6875l-5.125 0z" fill-rule="nonzero"></path><path fill="#000000" fill-opacity="0.0" d="m227.87433 4.6299214l102.519684 0l0 43.77953l-102.519684 0z" fill-rule="nonzero"></path><path fill="#000000" d="m256.99356 34.457184l0 -17.1875l5.90625 0q2.015625 0 3.0625 0.25q1.484375 0.34375 2.515625 1.234375q1.359375 1.140625 2.03125 2.9375q0.6875 1.78125 0.6875 4.078125q0 1.953125 -0.46875 3.46875q-0.453125 1.515625 -1.171875 2.515625q-0.703125 0.984375 -1.5625 1.546875q-0.84375 0.5625 -2.046875 0.859375q-1.203125 0.296875 -2.765625 0.296875l-6.1875 0zm2.265625 -2.03125l3.671875 0q1.703125 0 2.65625 -0.3125q0.96875 -0.3125 1.546875 -0.890625q0.8125 -0.8125 1.265625 -2.171875q0.453125 -1.375 0.453125 -3.3125q0 -2.703125 -0.890625 -4.140625q-0.890625 -1.453125 -2.15625 -1.9375q-0.90625 -0.359375 -2.9375 -0.359375l-3.609375 0l0 13.125zm15.175781 2.03125l0 -17.1875l11.59375 0l0 2.03125l-9.3125 0l0 5.328125l8.0625 0l0 2.015625l-8.0625 0l0 7.8125l-2.28125 0zm14.597656 0l0 -17.1875l12.421875 0l0 2.03125l-10.15625 0l0 5.265625l9.5 0l0 2.015625l-9.5 0l0 5.84375l10.546875 0l0 2.03125l-12.8125 0z" fill-rule="nonzero"></path><path fill="#000000" fill-opacity="0.0" d="m-10.223097 236.71785l0 -144.0l48.0 0l0 144.0z" fill-rule="nonzero"></path><path fill="#000000" d="m19.940966 182.95294l-13.59375 0l0 -4.6875q0 -1.578125 0.1875 -2.421875q0.265625 -1.15625 0.96875 -1.984375q0.9218755 -1.078125 2.3437505 -1.609375q1.40625 -0.53125 3.21875 -0.53125q1.546875 0 2.75 0.359375q1.1875 0.359375 1.984375 0.921875q0.78125 0.5625 1.234375 1.234375q0.4375 0.671875 0.671875 1.625q0.234375 0.953125 0.234375 2.1875l0 4.90625zm-1.609375 -1.796875l0 -2.90625q0 -1.34375 -0.25 -2.109375q-0.25 -0.765625 -0.703125 -1.21875q-0.640625 -0.640625 -1.71875 -1.0q-1.078125 -0.359375 -2.625 -0.359375q-2.125 0 -3.265625 0.703125q-1.15625 0.703125 -1.546875 1.703125q-0.28125048 0.71875 -0.28125048 2.328125l0 2.859375l10.390625 0zm0.390625 -17.894821q0.796875 0.9375 1.125 1.796875q0.3125 0.859375 0.3125 1.84375q0 1.609375 -0.78125 2.484375q-0.796875 0.875 -2.03125 0.875q-0.734375 0 -1.328125 -0.328125q-0.59375 -0.328125 -0.953125 -0.859375q-0.359375 -0.53125 -0.546875 -1.203125q-0.140625 -0.5 -0.25 -1.484375q-0.25 -2.03125 -0.578125 -2.984375q-0.34375 0 -0.4375 0q-1.015625 0 -1.4375 0.46875q-0.5625 0.640625 -0.5625 1.90625q0 1.171875 0.40625 1.734375q0.40625 0.5625 1.46875 0.828125l-0.234375 1.640625q-1.046875 -0.234375 -1.6875 -0.734375q-0.640625 -0.515625 -0.984375 -1.46875q-0.359375 -0.96875 -0.359375 -2.25q0 -1.265625 0.296875 -2.046875q0.296875 -0.78125 0.75 -1.15625q0.453125 -0.375 1.140625 -0.515625q0.421875 -0.09375 1.53125 -0.09375l2.234375 0q2.328125 0 2.953125 -0.09375q0.609375 -0.109375 1.171875 -0.4375l0 1.75q-0.515625 0.265625 -1.21875 0.328125zm-3.71875 0.140625q0.359375 0.90625 0.625 2.734375q0.140625 1.03125 0.328125 1.453125q0.1875 0.421875 0.546875 0.65625q0.359375 0.234375 0.796875 0.234375q0.671875 0 1.125 -0.5q0.4375 -0.515625 0.4375 -1.484375q0 -0.96875 -0.421875 -1.71875q-0.4375 -0.75 -1.15625 -1.109375q-0.578125 -0.265625 -1.671875 -0.265625l-0.609375 0zm3.4375 -7.735092l1.484375 -0.234375q0.140625 0.703125 0.140625 1.265625q0 0.90625 -0.28125 1.40625q-0.296875 0.5 -0.75 0.703125q-0.46875 0.203125 -1.984375 0.203125l-5.65625 0l0 1.234375l-1.3125 0l0 -1.234375l-2.4375005 0l-1.0 -1.65625l3.4375005 0l0 -1.6875l1.3125 0l0 1.6875l5.75 0q0.71875 0 0.921875 -0.078125q0.203125 -0.09375 0.328125 -0.296875q0.125 -0.203125 0.125 -0.578125q0 -0.265625 -0.078125 -0.734375zm0.28125 -7.964554q0.796875 0.9375 1.125 1.796875q0.3125 0.859375 0.3125 1.84375q0 1.609375 -0.78125 2.484375q-0.796875 0.875 -2.03125 0.875q-0.734375 0 -1.328125 -0.328125q-0.59375 -0.328125 -0.953125 -0.859375q-0.359375 -0.53125 -0.546875 -1.203125q-0.140625 -0.5 -0.25 -1.484375q-0.25 -2.03125 -0.578125 -2.984375q-0.34375 0 -0.4375 0q-1.015625 0 -1.4375 0.46875q-0.5625 0.640625 -0.5625 1.90625q0 1.171875 0.40625 1.734375q0.40625 0.5625 1.46875 0.828125l-0.234375 1.640625q-1.046875 -0.234375 -1.6875 -0.734375q-0.640625 -0.515625 -0.984375 -1.46875q-0.359375 -0.96875 -0.359375 -2.25q0 -1.265625 0.296875 -2.046875q0.296875 -0.78125 0.75 -1.15625q0.453125 -0.375 1.140625 -0.515625q0.421875 -0.09375 1.53125 -0.09375l2.234375 0q2.328125 0 2.953125 -0.09375q0.609375 -0.109375 1.171875 -0.4375l0 1.75q-0.515625 0.265625 -1.21875 0.328125zm-3.71875 0.140625q0.359375 0.90625 0.625 2.734375q0.140625 1.03125 0.328125 1.453125q0.1875 0.421875 0.546875 0.65625q0.359375 0.234375 0.796875 0.234375q0.671875 0 1.125 -0.5q0.4375 -0.515625 0.4375 -1.484375q0 -0.96875 -0.421875 -1.71875q-0.4375 -0.75 -1.15625 -1.109375q-0.578125 -0.265625 -1.671875 -0.265625l-0.609375 0z" fill-rule="nonzero"></path><path fill="#000000" fill-opacity="0.0" d="m322.87665 236.71916l0 -144.0l48.0 0l0 144.0z" fill-rule="nonzero"></path><path fill="#000000" d="m353.0407 182.95425l-13.59375 0l0 -4.6875q0 -1.578125 0.1875 -2.421875q0.265625 -1.15625 0.96875 -1.984375q0.921875 -1.078125 2.34375 -1.609375q1.40625 -0.53125 3.21875 -0.53125q1.546875 0 2.75 0.359375q1.1875 0.359375 1.984375 0.921875q0.78125 0.5625 1.234375 1.234375q0.4375 0.671875 0.671875 1.625q0.234375 0.953125 0.234375 2.1875l0 4.90625zm-1.609375 -1.796875l0 -2.90625q0 -1.34375 -0.25 -2.109375q-0.25 -0.765625 -0.703125 -1.21875q-0.640625 -0.640625 -1.71875 -1.0q-1.078125 -0.359375 -2.625 -0.359375q-2.125 0 -3.265625 0.703125q-1.15625 0.703125 -1.546875 1.703125q-0.28125 0.71875 -0.28125 2.328125l0 2.859375l10.390625 0zm0.390625 -17.894821q0.796875 0.9375 1.125 1.796875q0.3125 0.859375 0.3125 1.84375q0 1.609375 -0.78125 2.484375q-0.796875 0.875 -2.03125 0.875q-0.734375 0 -1.328125 -0.328125q-0.59375 -0.328125 -0.953125 -0.859375q-0.359375 -0.53125 -0.546875 -1.203125q-0.140625 -0.5 -0.25 -1.484375q-0.25 -2.03125 -0.578125 -2.984375q-0.34375 0 -0.4375 0q-1.015625 0 -1.4375 0.46875q-0.5625 0.640625 -0.5625 1.90625q0 1.171875 0.40625 1.734375q0.40625 0.5625 1.46875 0.828125l-0.234375 1.640625q-1.046875 -0.234375 -1.6875 -0.734375q-0.640625 -0.515625 -0.984375 -1.46875q-0.359375 -0.96875 -0.359375 -2.25q0 -1.265625 0.296875 -2.046875q0.296875 -0.78125 0.75 -1.15625q0.453125 -0.375 1.140625 -0.515625q0.421875 -0.09375 1.53125 -0.09375l2.234375 0q2.328125 0 2.953125 -0.09375q0.609375 -0.109375 1.171875 -0.4375l0 1.75q-0.515625 0.265625 -1.21875 0.328125zm-3.71875 0.140625q0.359375 0.90625 0.625 2.734375q0.140625 1.03125 0.328125 1.453125q0.1875 0.421875 0.546875 0.65625q0.359375 0.234375 0.796875 0.234375q0.671875 0 1.125 -0.5q0.4375 -0.515625 0.4375 -1.484375q0 -0.96875 -0.421875 -1.71875q-0.4375 -0.75 -1.15625 -1.109375q-0.578125 -0.265625 -1.671875 -0.265625l-0.609375 0zm3.4375 -7.735092l1.484375 -0.234375q0.140625 0.703125 0.140625 1.265625q0 0.90625 -0.28125 1.40625q-0.296875 0.5 -0.75 0.703125q-0.46875 0.203125 -1.984375 0.203125l-5.65625 0l0 1.234375l-1.3125 0l0 -1.234375l-2.4375 0l-1.0 -1.65625l3.4375 0l0 -1.6875l1.3125 0l0 1.6875l5.75 0q0.71875 0 0.921875 -0.078125q0.203125 -0.09375 0.328125 -0.296875q0.125 -0.203125 0.125 -0.578125q0 -0.265625 -0.078125 -0.734375zm0.28125 -7.964554q0.796875 0.9375 1.125 1.796875q0.3125 0.859375 0.3125 1.84375q0 1.609375 -0.78125 2.484375q-0.796875 0.875 -2.03125 0.875q-0.734375 0 -1.328125 -0.328125q-0.59375 -0.328125 -0.953125 -0.859375q-0.359375 -0.53125 -0.546875 -1.203125q-0.140625 -0.5 -0.25 -1.484375q-0.25 -2.03125 -0.578125 -2.984375q-0.34375 0 -0.4375 0q-1.015625 0 -1.4375 0.46875q-0.5625 0.640625 -0.5625 1.90625q0 1.171875 0.40625 1.734375q0.40625 0.5625 1.46875 0.828125l-0.234375 1.640625q-1.046875 -0.234375 -1.6875 -0.734375q-0.640625 -0.515625 -0.984375 -1.46875q-0.359375 -0.96875 -0.359375 -2.25q0 -1.265625 0.296875 -2.046875q0.296875 -0.78125 0.75 -1.15625q0.453125 -0.375 1.140625 -0.515625q0.421875 -0.09375 1.53125 -0.09375l2.234375 0q2.328125 0 2.953125 -0.09375q0.609375 -0.109375 1.171875 -0.4375l0 1.75q-0.515625 0.265625 -1.21875 0.328125zm-3.71875 0.140625q0.359375 0.90625 0.625 2.734375q0.140625 1.03125 0.328125 1.453125q0.1875 0.421875 0.546875 0.65625q0.359375 0.234375 0.796875 0.234375q0.671875 0 1.125 -0.5q0.4375 -0.515625 0.4375 -1.484375q0 -0.96875 -0.421875 -1.71875q-0.4375 -0.75 -1.15625 -1.109375q-0.578125 -0.265625 -1.671875 -0.265625l-0.609375 0z" fill-rule="nonzero"></path><path fill="#d9ead3" d="m99.02909 146.80055l0 0c0 -8.86264 8.9613495 -16.047241 20.015747 -16.047241l0 0c11.05439 0 20.01574 7.184601 20.01574 16.047241l0 0c0 8.862656 -8.9613495 16.047241 -20.01574 16.047241l0 0c-11.054398 0 -20.015747 -7.1845856 -20.015747 -16.047241z" fill-rule="nonzero"></path><path fill="#000000" d="m113.89156 153.19899l3.9375 -14.0625l1.34375 0l-3.9375 14.0625l-1.34375 0z" fill-rule="nonzero"></path><path fill="#d9ead3" d="m71.33071 68.50074l0 0c0 -8.862648 8.961357 -16.047241 20.015747 -16.047241l0 0c11.054398 0 20.015755 7.184593 20.015755 16.047241l0 0c0 8.862648 -8.961357 16.047249 -20.015755 16.047249l0 0c-11.05439 0 -20.015747 -7.184601 -20.015747 -16.047249z" fill-rule="nonzero"></path><path fill="#000000" d="m86.33382 74.6648l3.59375 -5.125l-3.328125 -4.734375l2.09375 0l1.515625 2.3125q0.421875 0.65625 0.671875 1.109375q0.421875 -0.609375 0.765625 -1.09375l1.65625 -2.328125l1.984375 0l-3.390625 4.640625l3.65625 5.21875l-2.046875 0l-2.03125 -3.0625l-0.53125 -0.828125l-2.59375 3.890625l-2.015625 0z" fill-rule="nonzero"></path><path fill="#d9ead3" d="m126.73006 68.50074l0 0c0 -8.862648 8.9613495 -16.047241 20.015747 -16.047241l0 0c11.054398 0 20.015747 7.184593 20.015747 16.047241l0 0c0 8.862648 -8.9613495 16.047249 -20.015747 16.047249l0 0c-11.054398 0 -20.015747 -7.184601 -20.015747 -16.047249z" fill-rule="nonzero"></path><path fill="#000000" d="m142.2019 70.58668l0 -1.6875l5.125 0l0 1.6875l-5.125 0z" fill-rule="nonzero"></path><path fill="#000000" fill-opacity="0.0" d="m261.08005 116.76642l-39.954575 30.034134" fill-rule="nonzero"></path><path stroke="#434343" stroke-width="1.0" stroke-linejoin="round" stroke-linecap="butt" d="m261.08005 116.76641l-37.215164 27.974907" fill-rule="evenodd"></path><path fill="#434343" stroke="#434343" stroke-width="1.0" stroke-linecap="butt" d="m223.8649 144.74132l0.22319031 -1.5746613l-1.7940521 2.755478l3.145523 -0.95762634z" fill-rule="evenodd"></path><path fill="#000000" fill-opacity="0.0" d="m261.08005 116.76642l-38.919144 -48.26568" fill-rule="nonzero"></path><path stroke="#434343" stroke-width="1.0" stroke-linejoin="round" stroke-linecap="butt" d="m261.08005 116.76641l-36.767944 -45.597847" fill-rule="evenodd"></path><path fill="#434343" stroke="#434343" stroke-width="1.0" stroke-linecap="butt" d="m224.3121 71.168564l1.5813446 0.16952515l-2.8148956 -1.6993256l1.0640259 3.1111374z" fill-rule="evenodd"></path><path fill="#000000" fill-opacity="0.0" d="m182.12941 68.50074l-15.367859 0" fill-rule="nonzero"></path><path stroke="#434343" stroke-width="1.0" stroke-linejoin="round" stroke-linecap="butt" d="m182.12941 68.50074l-11.940765 0" fill-rule="evenodd"></path><path fill="#434343" stroke="#434343" stroke-width="1.0" stroke-linecap="butt" d="m170.18864 68.50074l1.124588 -1.1245804l-3.0897827 1.1245804l3.0897827 1.124588z" fill-rule="evenodd"></path><path fill="#000000" fill-opacity="0.0" d="m181.09396 146.80055l-42.033386 0" fill-rule="nonzero"></path><path stroke="#434343" stroke-width="1.0" stroke-linejoin="round" stroke-linecap="butt" d="m181.09398 146.80055l-38.606308 0" fill-rule="evenodd"></path><path fill="#434343" stroke="#434343" stroke-width="1.0" stroke-linecap="butt" d="m142.48767 146.80055l1.124588 -1.1245728l-3.0897675 1.1245728l3.0897675 1.124588z" fill-rule="evenodd"></path><path fill="#000000" fill-opacity="0.0" d="m126.73006 68.50074l-15.367844 0" fill-rule="nonzero"></path><path stroke="#434343" stroke-width="1.0" stroke-linejoin="round" stroke-linecap="butt" d="m126.73006 68.50074l-11.940765 0" fill-rule="evenodd"></path><path fill="#434343" stroke="#434343" stroke-width="1.0" stroke-linecap="butt" d="m114.78929 68.50074l1.1245804 -1.1245804l-3.0897675 1.1245804l3.0897675 1.124588z" fill-rule="evenodd"></path><path fill="#000000" fill-opacity="0.0" d="m71.33071 68.50074l-24.061684 21.417892" fill-rule="nonzero"></path><path stroke="#434343" stroke-width="1.0" stroke-linejoin="round" stroke-linecap="butt" d="m71.33071 68.50074l-21.501816 19.139297" fill-rule="evenodd"></path><path fill="#434343" stroke="#434343" stroke-width="1.0" stroke-linecap="butt" d="m49.828896 87.64004l0.0922966 -1.5877228l-1.5601959 2.894333l3.0556183 -1.2143173z" fill-rule="evenodd"></path><path fill="#000000" fill-opacity="0.0" d="m99.02909 146.80055l-51.760063 -56.88192" fill-rule="nonzero"></path><path stroke="#434343" stroke-width="1.0" stroke-linejoin="round" stroke-linecap="butt" d="m99.02908 146.80055l-49.45355 -54.347168" fill-rule="evenodd"></path><path fill="#434343" stroke="#434343" stroke-width="1.0" stroke-linecap="butt" d="m49.57554 92.453384l1.5886345 0.07489014l-2.911251 -1.5283813l1.2477188 3.042122z" fill-rule="evenodd"></path><path fill="#d9ead3" d="m187.48111 33.025677l0 0c0 -8.86265 8.9613495 -16.047245 20.015747 -16.047245l0 0c11.054398 0 20.015747 7.184595 20.015747 16.047245l0 0c0 8.862648 -8.9613495 16.047241 -20.015747 16.047241l0 0c-11.054398 0 -20.015747 -7.184593 -20.015747 -16.047241z" fill-rule="nonzero"></path><path fill="#000000" d="m202.95296 35.111614l0 -1.6875l5.125 0l0 1.6875l-5.125 0z" fill-rule="nonzero"></path><path fill="#d9ead3" d="m179.16878 111.438354l0 0c0 -8.862648 8.9613495 -16.047249 20.015747 -16.047249l0 0c11.054382 0 20.015747 7.184601 20.015747 16.047249l0 0c0 8.862648 -8.961365 16.047241 -20.015747 16.047241l0 0c-11.054398 0 -20.015747 -7.184593 -20.015747 -16.047241z" fill-rule="nonzero"></path><path fill="#000000" d="m194.17188 117.60242l3.59375 -5.125l-3.328125 -4.734375l2.09375 0l1.515625 2.3125q0.421875 0.65625 0.671875 1.109375q0.421875 -0.609375 0.765625 -1.09375l1.65625 -2.328125l1.984375 0l-3.390625 4.640625l3.65625 5.21875l-2.046875 0l-2.03125 -3.0625l-0.53125 -0.828125l-2.59375 3.890625l-2.015625 0z" fill-rule="nonzero"></path><path fill="#d9ead3" d="m260.19815 68.40159l0 0c0 -8.862648 8.961365 -16.047245 20.015747 -16.047245l0 0c11.054413 0 20.015778 7.184597 20.015778 16.047245l0 0c0 8.862648 -8.961365 16.047241 -20.015778 16.047241l0 0c-11.054382 0 -20.015747 -7.184593 -20.015747 -16.047241z" fill-rule="nonzero"></path><path fill="#000000" d="m279.82626 72.362526l0 -3.71875l-3.703125 0l0 -1.5625l3.703125 0l0 -3.703125l1.578125 0l0 3.703125l3.6875 0l0 1.5625l-3.6875 0l0 3.71875l-1.578125 0z" fill-rule="nonzero"></path><path fill="#d9ead3" d="m98.14458 111.438354l0 0c0 -8.862648 8.9613495 -16.047249 20.015747 -16.047249l0 0c11.054382 0 20.015747 7.184601 20.015747 16.047249l0 0c0 8.862648 -8.961365 16.047241 -20.015747 16.047241l0 0c-11.054398 0 -20.015747 -7.184593 -20.015747 -16.047241z" fill-rule="nonzero"></path><path fill="#000000" d="m113.616425 113.52429l0 -1.6875l5.125 0l0 1.6875l-5.125 0z" fill-rule="nonzero"></path><path fill="#d9ead3" d="m84.37271 31.036175l0 0c0 -8.862648 8.9613495 -16.047245 20.015747 -16.047245l0 0c11.05439 0 20.015747 7.184597 20.015747 16.047245l0 0c0 8.862648 -8.961357 16.047245 -20.015747 16.047245l0 0c-11.054398 0 -20.015747 -7.184597 -20.015747 -16.047245z" fill-rule="nonzero"></path><path fill="#000000" d="m99.37581 37.200237l3.59375 -5.125l-3.328125 -4.734377l2.09375 0l1.515625 2.3125q0.421875 0.65625 0.671875 1.109375q0.421875 -0.609375 0.765625 -1.09375l1.65625 -2.328125l1.984375 0l-3.390625 4.640625l3.65625 5.218752l-2.046875 0l-2.03125 -3.0625l-0.53125 -0.828125l-2.59375 3.890625l-2.015625 0z" fill-rule="nonzero"></path><path fill="#d9ead3" d="m135.9256 33.025677l0 0c0 -8.86265 8.9613495 -16.047245 20.015747 -16.047245l0 0c11.054398 0 20.015747 7.184595 20.015747 16.047245l0 0c0 8.862648 -8.9613495 16.047241 -20.015747 16.047241l0 0c-11.054398 0 -20.015747 -7.184593 -20.015747 -16.047241z" fill-rule="nonzero"></path><path fill="#000000" d="m155.5537 36.986614l0 -3.71875l-3.703125 0l0 -1.5625019l3.703125 0l0 -3.703125l1.578125 0l0 3.703125l3.6875 0l0 1.5625019l-3.6875 0l0 3.71875l-1.578125 0z" fill-rule="nonzero"></path><path fill="#000000" fill-opacity="0.0" d="m260.19815 68.40159l-40.99788 43.036766" fill-rule="nonzero"></path><path stroke="#434343" stroke-width="1.0" stroke-linejoin="round" stroke-linecap="butt" d="m260.19815 68.40159l-38.63405 40.55538" fill-rule="evenodd"></path><path fill="#434343" stroke="#434343" stroke-width="1.0" stroke-linecap="butt" d="m221.5641 108.95697l-0.03857422 -1.5899353l-1.3169098 3.012825l2.9454193 -1.4614639z" fill-rule="evenodd"></path><path fill="#000000" fill-opacity="0.0" d="m260.19815 68.40159l-32.685547 -35.37591" fill-rule="nonzero"></path><path stroke="#434343" stroke-width="1.0" stroke-linejoin="round" stroke-linecap="butt" d="m260.19815 68.40159l-30.359833 -32.858772" fill-rule="evenodd"></path><path fill="#434343" stroke="#434343" stroke-width="1.0" stroke-linecap="butt" d="m229.83832 35.542816l1.5891571 0.06281662l-2.9227753 -1.5062141l1.2707977 3.0325584z" fill-rule="evenodd"></path><path fill="#000000" fill-opacity="0.0" d="m187.48111 33.025677l-11.524017 0" fill-rule="nonzero"></path><path stroke="#434343" stroke-width="1.0" stroke-linejoin="round" stroke-linecap="butt" d="m187.48111 33.025677l-8.096939 0" fill-rule="evenodd"></path><path fill="#434343" stroke="#434343" stroke-width="1.0" stroke-linecap="butt" d="m179.38417 33.025677l1.124588 -1.1245861l-3.0897675 1.1245861l3.0897675 1.1245804z" fill-rule="evenodd"></path><path fill="#000000" fill-opacity="0.0" d="m179.16878 111.438354l-40.992706 0" fill-rule="nonzero"></path><path stroke="#434343" stroke-width="1.0" stroke-linejoin="round" stroke-linecap="butt" d="m179.16878 111.438354l-37.565628 0" fill-rule="evenodd"></path><path fill="#434343" stroke="#434343" stroke-width="1.0" stroke-linecap="butt" d="m141.60315 111.438354l1.124588 -1.124588l-3.0897675 1.124588l3.0897675 1.1245804z" fill-rule="evenodd"></path><path fill="#000000" fill-opacity="0.0" d="m135.9256 33.025677l-11.521393 -1.989502" fill-rule="nonzero"></path><path stroke="#434343" stroke-width="1.0" stroke-linejoin="round" stroke-linecap="butt" d="m135.9256 33.025677l-8.144287 -1.4063492" fill-rule="evenodd"></path><path fill="#434343" stroke="#434343" stroke-width="1.0" stroke-linecap="butt" d="m127.7813 31.61933l1.2995529 -0.91682434l-3.2360764 0.5824261l2.8533554 1.6339417z" fill-rule="evenodd"></path><path fill="#000000" fill-opacity="0.0" d="m84.37271 31.036175l-37.103683 58.882458" fill-rule="nonzero"></path><path stroke="#434343" stroke-width="1.0" stroke-linejoin="round" stroke-linecap="butt" d="m84.37271 31.036175l-35.276646 55.983006" fill-rule="evenodd"></path><path fill="#434343" stroke="#434343" stroke-width="1.0" stroke-linecap="butt" d="m49.09607 87.01918l-0.35190964 -1.5509796l-0.69576645 3.2136078l2.598652 -2.0145416z" fill-rule="evenodd"></path><path fill="#000000" fill-opacity="0.0" d="m98.14458 111.438354l-50.87555 -21.519722" fill-rule="nonzero"></path><path stroke="#434343" stroke-width="1.0" stroke-linejoin="round" stroke-linecap="butt" d="m98.14457 111.438354l-47.719204 -20.184631" fill-rule="evenodd"></path><path fill="#434343" stroke="#434343" stroke-width="1.0" stroke-linecap="butt" d="m50.425365 91.25372l1.4738426 -0.59763336l-3.2837715 -0.16793823l2.4075623 2.239418z" fill-rule="evenodd"></path><path fill="#000000" fill-opacity="0.0" d="m313.1273 89.91863l-12.897614 -21.517044" fill-rule="nonzero"></path><path stroke="#434343" stroke-width="1.0" stroke-linejoin="round" stroke-linecap="butt" d="m313.1273 89.91863l-11.135681 -18.577576" fill-rule="evenodd"></path><path fill="#434343" stroke="#434343" stroke-width="1.0" stroke-linecap="butt" d="m301.9916 71.34105l1.5427551 0.38639832l-2.5531006 -2.0719604l0.6239624 3.2283173z" fill-rule="evenodd"></path><path fill="#000000" fill-opacity="0.0" d="m313.1273 89.91863l-12.015747 26.847786" fill-rule="nonzero"></path><path stroke="#434343" stroke-width="1.0" stroke-linejoin="round" stroke-linecap="butt" d="m313.1273 89.91863l-10.615753 23.719688" fill-rule="evenodd"></path><path fill="#434343" stroke="#434343" stroke-width="1.0" stroke-linecap="butt" d="m302.51154 113.63832l-0.56707764 -1.4858704l-0.23571777 3.279602l2.2886658 -2.3608017z" fill-rule="evenodd"></path></g></svg>

